SplineFontDB: 3.0
FontName: NachlieliCLM-Light
FullName: Nachlieli CLM Light
FamilyName: Nachlieli CLM
Weight: Light
Copyright: Copyright (c) 2002-2017 by Maxim Iorsh (iorsh@users.sourceforge.net). Distributed under the terms of GNU General Public License version 2(http://www.gnu.org/licenses/gpl.html). \nLatin glyphs, digits and punctuation copyright 1999 by (URW)++ Design & Development. \nAll rights reserved.
UComments: "2002-7-16: Created." 
Version: 0.131
ItalicAngle: 0
UnderlinePosition: -140
UnderlineWidth: 70
Ascent: 872
Descent: 218
LayerCount: 2
Layer: 0 0 "Back"  1
Layer: 1 0 "Fore"  0
FSType: 0
OS2Version: 0
OS2_WeightWidthSlopeOnly: 0
OS2_UseTypoMetrics: 0
CreationTime: 1163025778
ModificationTime: 1493835133
PfmFamily: 33
TTFWeight: 300
TTFWidth: 5
LineGap: 90
VLineGap: 0
Panose: 2 0 6 3 0 0 0 0 0 0
OS2TypoAscent: 0
OS2TypoAOffset: 1
OS2TypoDescent: 0
OS2TypoDOffset: 1
OS2TypoLinegap: 0
OS2WinAscent: 0
OS2WinAOffset: 1
OS2WinDescent: 0
OS2WinDOffset: 1
HheadAscent: 0
HheadAOffset: 1
HheadDescent: 0
HheadDOffset: 1
OS2Vendor: 'PfEd'
Lookup: 6 1 0 "ccmpAltAyin"  {"ccmpAltAyin subtable"  } ['ccmp' ('hebr' <'dflt' > ) ]
Lookup: 1 1 0 "Single Substitution lookup 11"  {"Single Substitution lookup 11 subtable"  } []
Lookup: 6 1 0 "ccmpVavHolam"  {"ccmpVavHolam subtable"  } ['ccmp' ('hebr' <'dflt' > ) ]
Lookup: 1 1 0 "salt MiscSAlt"  {"MiscSAlt"  } ['salt' ('hebr' <'dflt' > ) ]
Lookup: 4 1 0 "ccmp AlephLamed2"  {"AlephLamed2"  } ['ccmp' ('hebr' <'JUD ' > ) ]
Lookup: 4 1 0 "dlig AlephLamed"  {"AlephLamed"  } ['dlig' ('hebr' <'dflt' > ) ]
Lookup: 4 1 0 "ccmp CustomPrecomp"  {"CustomPrecomp"  } ['ccmp' ('hebr' <'dflt' > ) ]
Lookup: 1 1 0 "jalt WideLetters"  {"WideLetters"  } ['jalt' ('hebr' <'dflt' > ) ]
Lookup: 1 1 0 "ccmp Yiddish2"  {"Yiddish2"  } ['ccmp' ('hebr' <'JII ' > ) ]
Lookup: 4 1 0 "ccmp Yiddish_dflt"  {"Yiddish_dflt"  } ['ccmp' ('hebr' <'dflt' > ) ]
Lookup: 4 1 0 "ccmp Yiddish"  {"Yiddish"  } ['ccmp' ('hebr' <'JII ' > ) ]

StartChar: .notdef
Encoding: 65536 -1 0
Width: 696
VWidth: 1000
Flags: W
HStem: -80 50<110 586> 630 50<110 586>
VStem: 60 50<-30 630> 586 50<-30 630>
LayerCount: 2
Fore
SplineSet
110 630 m 5
 110 -30 l 5
 586 -30 l 1
 586 630 l 1
 110 630 l 5
60 680 m 1
 636 680 l 1
 636 -80 l 1
 60 -80 l 1
 60 680 l 1
EndSplineSet
Validated: 1
EndChar

StartChar: exclam
Encoding: 33 33 2
Width: 315
VWidth: 1000
Flags: W
HStem: 0 104<124 215> 709 20G<125 215>
VStem: 125 90<0 104 343.796 729>
LayerCount: 2
Fore
SplineSet
215 729 m 5
 215 411 l 5
 193 188 l 5
 147 188 l 1
 125 411 l 1
 125 729 l 1
 215 729 l 5
215 104 m 5
 215 0 l 5
 124 0 l 1
 124 104 l 1
 215 104 l 5
EndSplineSet
Validated: 1
EndChar

StartChar: quotedbl
Encoding: 34 34 3
Width: 373
VWidth: 1000
Flags: W
HStem: 464 245<52 108 235 291>
VStem: 52 88<573.665 709> 52 56<464 498.335> 235 88<573.665 709> 235 56<464 498.335>
LayerCount: 2
Back
SplineSet
52 709 m 5
 145 709 l 5
 145 598 l 5
 118 464 l 5
 79 464 l 5
 52 598 l 5
 52 709 l 5
212 709 m 1
 305 709 l 1
 305 598 l 1
 278 464 l 1
 239 464 l 1
 212 598 l 1
 212 709 l 1
EndSplineSet
Fore
SplineSet
52 709 m 1xc0
 140 709 l 5
 140 608 l 5xc0
 108 464 l 1
 52 464 l 1xa0
 52 709 l 1xc0
235 709 m 1x90
 323 709 l 261
 323 608 l 5x90
 291 464 l 1
 235 464 l 1x88
 235 709 l 1x90
EndSplineSet
Validated: 1
Comment: "%DiaToBase1+AD0A-190+AAoA%DiaToBase2+AD0A-190+AAoA%DiaToBase3+AD0A-190+AAoA%DiaToBaseO+AD0A-0+AAoA%DiaToBaseU+AD0A-190+AAoA" 
EndChar

StartChar: numbersign
Encoding: 35 35 4
Width: 556
VWidth: 1000
Flags: W
HStem: -8 21G<77 156.697 278 357.697> 203 68<14 115 204 316 405 510> 445 68<51 159 248 360 449 542> 689 20G<204.327 284 404.429 485>
LayerCount: 2
Fore
SplineSet
485 709 m 1
 449 513 l 1
 542 513 l 1
 542 445 l 1
 436 445 l 1
 405 271 l 1
 510 271 l 1
 510 203 l 1
 393 203 l 1
 354 -8 l 1
 278 -8 l 1
 316 203 l 1
 192 203 l 1
 153 -8 l 1
 77 -8 l 1
 115 203 l 1
 14 203 l 1
 14 271 l 1
 128 271 l 1
 159 445 l 1
 51 445 l 1
 51 513 l 1
 172 513 l 1
 208 709 l 1
 284 709 l 1
 248 513 l 1
 373 513 l 1
 408 709 l 1
 485 709 l 1
360 445 m 1
 236 445 l 1
 204 271 l 1
 329 271 l 1
 360 445 l 1
EndSplineSet
Validated: 1
EndChar

StartChar: dollar
Encoding: 36 36 5
Width: 636
VWidth: 1000
Flags: HMW
VStem: 86 81<495.5 559> 283 59<-126 -23 46 309 405 645 645 645 716 770> 476 82<163.5 216>
LayerCount: 2
Fore
SplineSet
283 770 m 1
 342 770 l 1
 342 716 l 1
 463 707 536 633 536 519 c 1
 457 519 l 1
 456 592 409 643 342 646 c 1
 342 397 l 1
 434 369 447 364 473 349 c 0
 531 316 558 266 558 195 c 0
 558 117 524 48 466 12 c 0
 433 -8 396 -19 342 -23 c 1
 342 -126 l 1
 283 -126 l 1
 283 -23 l 1
 142 -14 66 69 73 208 c 1
 152 208 l 1
 158 143 162 126 177 103 c 1
 200 72 238 52 283 46 c 1
 283 318 l 1
 210 340 183 351 157 370 c 0
 110 404 86 453 86 516 c 0
 86 630 155 700 283 716 c 1
 283 770 l 1
283 405 m 1
 283 645 l 1
 209 635 167 592 167 526 c 0
 167 465 204 426 283 405 c 1
342 309 m 1
 342 46 l 1
 385 51 410 60 434 83 c 0
 461 109 476 144 476 183 c 0
 476 249 444 279 342 309 c 1
EndSplineSet
Validated: 33
EndChar

StartChar: percent
Encoding: 37 37 6
Width: 889
VWidth: 1000
Flags: W
HStem: -22.3672 70<582.234 708.604> 0 21G<134.188 223.926> 248.633 70<581.92 709.116> 365.633 70<188.734 315.31> 637.633 70<188.42 315.617>
VStem: 81.3652 69<473.412 600.061> 353.365 69<472.667 599.729> 474.865 69<85.2047 211.374> 746.865 69<84.5779 210.954>
LayerCount: 2
Back
SplineSet
266.365 707.633 m 0
 362 699.266 430.091 617.02 421.637 520.389 c 0
 413.618 428.738 330.2 358.742 237.555 366.848 c 0
 143.912 375.041 73.916 458.459 82.1084 552.1 c 0
 90.3018 645.742 173.72 715.738 266.365 707.633 c 0
260.265 637.9 m 0
 205.474 642.693 155.727 601.873 150.847 546.086 c 0
 146.053 491.297 187.868 441.463 243.655 436.582 c 0
 298.446 431.787 348.193 472.607 352.986 527.398 c 0
 357.954 584.182 317.048 632.932 260.265 637.9 c 0
681.457 688.999 m 1
 750.816 682.931 l 1
 207.367 -1.33301 l 1
 138.296 4.71289 l 1
 681.457 688.999 l 1
643.09 318.422 m 0
 738.725 310.055 806.814 227.808 798.447 132.173 c 0
 790.43 40.5225 706.016 -29.3857 614.365 -21.3672 c 0
 520.723 -13.1748 450.727 70.2432 458.92 163.886 c 0
 467.025 256.531 550.443 326.527 643.09 318.422 c 0
636.988 248.688 m 0
 582.197 253.481 532.451 212.662 527.656 157.871 c 0
 522.775 102.085 564.68 53.2471 620.467 48.3662 c 0
 675.256 43.5723 725.004 84.3916 729.711 138.187 c 0
 734.678 194.97 693.771 243.721 636.988 248.688 c 0
199 685 m 0
 295 685 370 609 370 512 c 0
 370 420 293 343 200 343 c 0
 106 343 29 420 29 514 c 0
 29 608 106 685 199 685 c 0
199 615 m 0
 144 615 98 570 98 514 c 0
 98 459 144 413 200 413 c 0
 255 413 301 458 301 513 c 0
 301 570 256 615 199 615 c 0
609 709 m 1
 675 709 l 1
 280 -20 l 1
 214 -20 l 1
 609 709 l 1
688 322 m 4
 784 322 859 246 859 150 c 4
 859 58 781 -19 689 -19 c 4
 595 -19 518 58 518 152 c 4
 518 245 595 322 688 322 c 4
688 252 m 4
 633 252 587 207 587 152 c 4
 587 96 633 51 689 51 c 4
 744 51 790 96 790 150 c 4
 790 207 745 252 688 252 c 4
EndSplineSet
Fore
SplineSet
644.865 318.633 m 0xbf80
 740.865 318.633 815.865 242.633 815.865 146.633 c 0
 815.865 54.6328 737.865 -22.3672 645.865 -22.3672 c 0
 551.865 -22.3672 474.865 54.6328 474.865 148.633 c 0
 474.865 241.633 551.865 318.633 644.865 318.633 c 0xbf80
644.865 248.633 m 0
 589.865 248.633 543.865 203.633 543.865 148.633 c 0
 543.865 92.6328 589.865 47.6328 645.865 47.6328 c 0
 700.865 47.6328 746.865 92.6328 746.865 146.633 c 0
 746.865 203.633 701.865 248.633 644.865 248.633 c 0
251.365 707.633 m 0
 347.365 707.633 422.365 631.633 422.365 534.633 c 0
 422.365 442.633 345.365 365.633 252.365 365.633 c 0
 158.365 365.633 81.3652 442.633 81.3652 536.633 c 0
 81.3652 630.633 158.365 707.633 251.365 707.633 c 0
251.365 637.633 m 0
 196.365 637.633 150.365 592.633 150.365 536.633 c 0
 150.365 481.633 196.365 435.633 252.365 435.633 c 0
 307.365 435.633 353.365 480.633 353.365 535.633 c 0
 353.365 592.633 308.365 637.633 251.365 637.633 c 0
697.059 708.749 m 1
 771.211 708.748 l 1
 208.034 0 l 1x7f80
 134.188 0.00390625 l 1
 697.059 708.749 l 1
EndSplineSet
Validated: 1
EndChar

StartChar: ampersand
Encoding: 38 38 7
Width: 667
VWidth: 1000
Flags: W
HStem: -23 78<231 281.5> 639 70<275 326>
VStem: 52 84<148 211> 133 82<535.5 579> 388 79<531.5 578.5>
LayerCount: 2
Fore
SplineSet
493 334 m 1xd8
 573 334 l 1
 573 274 552 208 515 151 c 1
 637 0 l 1
 528 0 l 1
 466 78 l 1
 428 41 410 26 389 13 c 0
 353 -10 306 -23 257 -23 c 0
 134 -23 52 56 52 176 c 0xe8
 52 267 90 317 214 389 c 1
 152 467 133 505 133 552 c 0
 133 640 209 709 304 709 c 0
 399 709 467 644 467 552 c 0
 467 480 433 437 329 378 c 1
 462 215 l 1
 482 250 494 298 493 334 c 1xd8
285 431 m 1
 363 480 388 509 388 554 c 0
 388 603 351 639 301 639 c 0
 249 639 215 605 215 553 c 0xd8
 215 518 224 501 285 431 c 1
418 137 m 1
 258 337 l 1
 167 279 136 239 136 183 c 0xe8
 136 113 195 55 267 55 c 0
 319 55 362 78 418 137 c 1
EndSplineSet
Validated: 33
EndChar

StartChar: quotesingle
Encoding: 39 39 8
Width: 216
VWidth: 1000
Flags: HMW
HStem: 464 245<63.6668 119.667>
VStem: 63.6668 93<578.305 709> 63.6668 56<464 493.695>
LayerCount: 2
Back
SplineSet
64 709 m 5
 157 709 l 5
 157 598 l 5
 130 464 l 5
 91 464 l 5
 64 598 l 5
 64 709 l 5
64 729 m 1
 157 729 l 1
 157 628 l 2
 157 548 124 502 64 497 c 1
 64 535 l 1
 99 540 113 567 112 625 c 1
 64 625 l 1
 64 729 l 1
EndSplineSet
Fore
SplineSet
63.8369 709 m 1xc0
 151.837 709 l 5
 151.837 608 l 5xc0
 119.837 464 l 1
 63.8369 464 l 1xa0
 63.8369 709 l 1xc0
EndSplineSet
Validated: 1
EndChar

StartChar: parenleft
Encoding: 40 40 9
Width: 333
VWidth: 1000
Flags: HMW
HStem: 709 20<236 291 291 291>
VStem: 73 81<180 337.5>
LayerCount: 2
Fore
SplineSet
236 771 m 5
 291 771 l 5
 203 629 154 460 154 301 c 4
 154 141 203 -27 291 -170 c 5
 236 -170 l 5
 136 -39 73 143 73 301 c 4
 73 458 136 640 236 771 c 5
EndSplineSet
Validated: 1
EndChar

StartChar: parenright
Encoding: 41 41 10
Width: 333
VWidth: 1000
Flags: HMW
HStem: 751 20<38 93 93 93>
VStem: 175 81<221.5 379>
LayerCount: 2
Fore
SplineSet
93 -170 m 1
 38 -170 l 1
 126 -28 175 141 175 300 c 0
 175 460 126 628 38 771 c 1
 93 771 l 1
 193 640 256 458 256 300 c 0
 256 143 193 -39 93 -170 c 1
EndSplineSet
Validated: 1
EndChar

StartChar: asterisk
Encoding: 42 42 11
Width: 543
VWidth: 883
Flags: HMW
HStem: 299.8 24<272.4 272.4> 533.8 24<234 309.6 309.6 309.6>
LayerCount: 2
Fore
SplineSet
234 557.8 m 1
 309.6 557.8 l 1
 303.6 423.4 l 1
 430.8 469 l 1
 453.6 398.2 l 1
 324 362.2 l 1
 408 255.4 l 1
 346.8 212.2 l 1
 272.399 323.8 l 1
 196.8 212.2 l 1
 136.8 255.4 l 1
 219.6 362.2 l 1
 90 398.2 l 1
 112.8 469 l 1
 240 423.4 l 1
 234 557.8 l 1
EndSplineSet
Validated: 1
EndChar

StartChar: plus
Encoding: 43 43 12
Width: 664
VWidth: 1100
Flags: HMW
HStem: 90 20 297 70<90 297 367 574>
VStem: 297 70<90 297 367 574>
LayerCount: 2
Fore
SplineSet
574 367 m 1
 574 297 l 1
 367 297 l 1
 367 90 l 1
 297 90 l 1
 297 297 l 1
 90 297 l 1
 90 367 l 1
 297 367 l 1
 297 574 l 1
 367 574 l 1
 367 367 l 1
 574 367 l 1
EndSplineSet
Validated: 1
Substitution2: "MiscSAlt" uniFB29
EndChar

StartChar: comma
Encoding: 44 44 13
Width: 266
VWidth: 1000
Flags: HMW
HStem: 625 104<99 147>
VStem: 99 93<625 628 628 729>
LayerCount: 2
Back
SplineSet
87 104 m 5
 192 104 l 1
 192 -16 l 2
 192 -102 157 -147 87 -147 c 1
 87 -109 l 1
 134 -107 147 -87 147 -18 c 2
 147 0 l 1
 87 0 l 1
 87 104 l 5
EndSplineSet
Fore
SplineSet
87 104 m 5
 176.25 104 l 5
 176.25 -7 l 5
 120.15 -141 l 5
 87 -141 l 5
 87 104 l 5
EndSplineSet
Validated: 1
EndChar

StartChar: hyphen
Encoding: 45 45 14
Width: 488
VWidth: 1000
Flags: W
HStem: 240 72<85 403>
VStem: 85 318<240 312>
LayerCount: 2
Fore
SplineSet
403 312 m 5
 403 240 l 5
 85 240 l 1
 85 312 l 1
 403 312 l 5
EndSplineSet
Validated: 1
EndChar

StartChar: period
Encoding: 46 46 15
Width: 283
VWidth: 1000
Flags: HMW
HStem: 0 104<87 191>
VStem: 87 104<0 104>
LayerCount: 2
Fore
SplineSet
191 104 m 1
 191 0 l 1
 87 0 l 1
 87 104 l 1
 191 104 l 1
EndSplineSet
Validated: 1
EndChar

StartChar: slash
Encoding: 47 47 16
Width: 278
VWidth: 1000
Flags: MW
HStem: -20 20 709 20<229 284 284 284>
LayerCount: 2
Fore
SplineSet
229 729 m 1
 284 729 l 1
 47 -20 l 1
 -8 -20 l 1
 229 729 l 1
EndSplineSet
Validated: 1
EndChar

StartChar: zero
Encoding: 48 48 17
Width: 556
VWidth: 1000
Flags: MW
HStem: -23 73<226.5 322> 631 78<242 308.5>
VStem: 43 90<245 408.5> 417 90<244.5 406>
LayerCount: 2
Fore
SplineSet
275 709 m 0
 342 709 401 681 438 631 c 0
 485 567 507 475 507 337 c 0
 507 104 425 -23 275 -23 c 0
 123 -23 43 104 43 343 c 0
 43 474 66 569 112 631 c 0
 149 680 209 709 275 709 c 0
275 631 m 0
 180 631 133 536 133 342 c 0
 133 148 180 50 273 50 c 0
 371 50 417 144 417 345 c 0
 417 535 370 631 275 631 c 0
EndSplineSet
Validated: 1
EndChar

StartChar: one
Encoding: 49 49 18
Width: 556
VWidth: 1000
Flags: MW
HStem: 0 20 689 20<289 347 347 347>
VStem: 259 88<0 505 505 505>
LayerCount: 2
Fore
SplineSet
259 505 m 1
 102 505 l 1
 102 568 l 1
 238 585 258 600 289 709 c 1
 347 709 l 1
 347 0 l 1
 259 0 l 1
 259 505 l 1
EndSplineSet
Validated: 1
EndChar

StartChar: two
Encoding: 50 50 19
Width: 556
VWidth: 1000
Flags: MW
HStem: 0 87<133 506> 632 77<254.5 317.5>
VStem: 421 90<471 530.5>
LayerCount: 2
Fore
SplineSet
506 87 m 1
 506 0 l 1
 34 0 l 1
 42 156 85 223 233 307 c 2
 325 359 l 2
 388 395 421 443 421 499 c 0
 421 575 361 632 281 632 c 0
 228 632 182 606 159 563 c 0
 147 540 141 511 138 463 c 1
 50 463 l 1
 52 535 63 579 88 617 c 0
 127 677 194 709 284 709 c 0
 351 709 403 691 445 653 c 0
 487 615 511 560 511 501 c 0
 511 414 460 341 361 287 c 2
 261 233 l 1
 174 182 142 145 133 87 c 1
 506 87 l 1
EndSplineSet
Validated: 1
EndChar

StartChar: three
Encoding: 51 51 20
Width: 556
VWidth: 1000
Flags: W
HStem: -23 78<221 315> 632 77<242.5 309>
VStem: 395 90<486 548.5> 416 90<152.5 239.5>
LayerCount: 2
Fore
SplineSet
221 325 m 1xd0
 221 400 l 1
 283 401 314 405 338 415 c 0
 377 431 395 461 395 511 c 0
 395 586 348 632 270 632 c 0
 215 632 171 608 151 569 c 0
 140 547 136 523 135 480 c 1
 47 480 l 1
 50 631 126 709 269 709 c 0
 404 709 485 636 485 514 c 0xe0
 485 443 452 393 386 367 c 1
 471 338 506 288 506 198 c 0
 506 64 412 -23 266 -23 c 0
 169 -23 99 12 63 80 c 0
 46 112 36 149 32 206 c 1
 120 206 l 1
 126 103 173 55 269 55 c 0
 361 55 416 108 416 197 c 0
 416 282 366 326 269 326 c 2
 232 325 l 1
 221 325 l 1xd0
EndSplineSet
Validated: 1
EndChar

StartChar: four
Encoding: 52 52 21
Width: 556
VWidth: 1000
Flags: MW
HStem: 0 20 170 79<105 327 415 520> 689 20<350 415 415 415>
VStem: 327 88<0 170 249 559 559 559>
LayerCount: 2
Fore
SplineSet
327 170 m 1
 28 170 l 1
 28 263 l 1
 350 709 l 1
 415 709 l 1
 415 249 l 1
 520 249 l 1
 520 170 l 1
 415 170 l 1
 415 0 l 1
 327 0 l 1
 327 170 l 1
327 249 m 1
 327 559 l 1
 105 249 l 1
 327 249 l 1
EndSplineSet
Validated: 1
EndChar

StartChar: five
Encoding: 53 53 22
Width: 556
VWidth: 1000
Flags: MW
HStem: -23 78<230 316> 389 78<259 315.5> 622 87<181 476 181 181>
VStem: 423 90<168 271.5>
LayerCount: 2
Fore
SplineSet
476 709 m 1
 476 622 l 1
 181 622 l 1
 153 424 l 1
 194 454 234 467 284 467 c 0
 420 467 513 371 513 231 c 0
 513 81 413 -23 270 -23 c 0
 190 -23 118 8 78 62 c 1
 57 88 47 116 35 174 c 1
 123 174 l 1
 144 94 191 55 268 55 c 0
 364 55 423 117 423 219 c 0
 423 324 363 389 268 389 c 0
 213 389 179 372 138 323 c 1
 57 323 l 1
 110 709 l 1
 476 709 l 1
EndSplineSet
Validated: 1
EndChar

StartChar: six
Encoding: 54 54 23
Width: 556
VWidth: 1000
Flags: MW
HStem: -23 78<242 322.5> 363 78<261 327.5> 631 78<258 322>
VStem: 43 95<139.781 517.47> 423 90<164.5 256.5>
LayerCount: 2
Fore
SplineSet
498 524 m 1
 410 524 l 1
 396 592 353 631 291 631 c 0
 190 631 134 535 133 362 c 1
 171 414 226 441 296 441 c 0
 423 441 513 348 513 216 c 0
 513 77 416 -23 281 -23 c 0
 203 -23 141 8 103 65 c 0
 61 128 43 204 43 323 c 0
 43 452 63 539 107 608 c 0
 149 671 219 709 297 709 c 0
 405 709 481 640 498 524 c 1
285 363 m 0
 198 363 138 302 138 214 c 0
 138 123 200 55 282 55 c 0
 363 55 423 120 423 209 c 0
 423 304 370 363 285 363 c 0
EndSplineSet
Validated: 1
EndChar

StartChar: seven
Encoding: 55 55 24
Width: 556
VWidth: 1000
Flags: MW
HStem: 0 20 622 87<46 429>
LayerCount: 2
Fore
SplineSet
520 709 m 1
 520 635 l 1
 360 422 271 227 232 0 c 1
 138 0 l 1
 191 233 260 381 429 622 c 1
 46 622 l 1
 46 709 l 1
 520 709 l 1
EndSplineSet
Validated: 1
EndChar

StartChar: eight
Encoding: 56 56 25
Width: 556
VWidth: 1000
Flags: W
HStem: -23 78<230 318> 334 74<238 312> 631 78<238 312.5>
VStem: 37 90<153.5 236> 62 90<487 553> 398 90<486.5 552.5> 423 90<153 235.5>
LayerCount: 2
Fore
SplineSet
391 373 m 1xec
 473 334 513 275 513 196 c 0
 513 67 415 -23 275 -23 c 0
 135 -23 37 67 37 197 c 0xf2
 37 275 77 334 158 373 c 1
 86 418 62 454 62 520 c 0
 62 631 150 709 275 709 c 0
 401 709 488 631 488 520 c 0
 488 453 464 417 391 373 c 1xec
275 631 m 0
 201 631 152 587 152 519 c 0
 152 452 201 408 275 408 c 0
 349 408 398 452 398 518 c 0xec
 398 587 350 631 275 631 c 0
275 334 m 0
 187 334 127 278 127 195 c 0
 127 112 187 55 273 55 c 0
 363 55 423 111 423 195 c 0xf2
 423 278 363 334 275 334 c 0
EndSplineSet
Validated: 1
EndChar

StartChar: nine
Encoding: 57 57 26
Width: 556
VWidth: 1000
Flags: MW
HStem: -23 78<229 293> 245 78<223.5 289.5> 632 77<228.5 309>
VStem: 38 90<429.5 522> 413 96<168.53 546.545>
LayerCount: 2
Fore
SplineSet
53 162 m 1
 141 162 l 1
 155 94 198 55 260 55 c 0
 361 55 417 151 418 324 c 1
 372 269 323 245 256 245 c 0
 128 245 38 338 38 470 c 0
 38 609 135 709 270 709 c 0
 348 709 410 678 449 621 c 0
 491 558 509 482 509 363 c 0
 509 234 489 147 444 78 c 0
 403 15 332 -23 254 -23 c 0
 146 -23 70 46 53 162 c 1
269 632 m 0
 188 632 128 567 128 477 c 0
 128 382 181 323 266 323 c 0
 352 323 413 385 413 472 c 0
 413 564 351 632 269 632 c 0
EndSplineSet
Validated: 1
EndChar

StartChar: colon
Encoding: 58 58 27
Width: 303
VWidth: 1000
Flags: HMW
HStem: 0 104<110 214> 420 104<110 214>
VStem: 110 104<0 104 420 524>
LayerCount: 2
Fore
SplineSet
214 104 m 1
 214 0 l 1
 110 0 l 1
 110 104 l 1
 214 104 l 1
214 524 m 1
 214 420 l 1
 110 420 l 1
 110 524 l 1
 214 524 l 1
EndSplineSet
Validated: 1
EndChar

StartChar: semicolon
Encoding: 59 59 28
Width: 303
VWidth: 1000
Flags: HMW
HStem: 625 104<99 147>
VStem: 99 93<625 628 628 729>
LayerCount: 2
Back
SplineSet
215 524 m 1
 215 420 l 1
 111 420 l 1
 111 524 l 1
 215 524 l 1
110 104 m 1
 215 104 l 1
 215 -16 l 2
 215 -102 180 -147 110 -147 c 1
 110 -109 l 1
 157 -107 170 -87 170 -18 c 2
 170 0 l 1
 110 0 l 1
 110 104 l 1
EndSplineSet
Fore
SplineSet
117.875 104 m 5
 207.125 104 l 5
 207.125 -7 l 5
 151.025 -141 l 5
 117.875 -141 l 5
 117.875 104 l 5
215 524 m 1
 215 420 l 1
 111 420 l 1
 111 524 l 1
 215 524 l 1
EndSplineSet
Validated: 1
EndChar

StartChar: less
Encoding: 60 60 29
Width: 669
VWidth: 1100
Flags: HMW
HStem: 91 20
LayerCount: 2
Fore
SplineSet
90 298 m 1
 90 367 l 1
 579 574 l 1
 579 495 l 1
 185 334 l 1
 579 170 l 1
 579 91 l 1
 90 298 l 1
EndSplineSet
Validated: 1
EndChar

StartChar: equal
Encoding: 61 61 30
Width: 664
VWidth: 1100
Flags: HMW
HStem: 211 70<90 574> 383 70<90 574>
LayerCount: 2
Fore
SplineSet
574 453 m 1
 574 383 l 1
 90 383 l 1
 90 453 l 1
 574 453 l 1
574 281 m 1
 574 211 l 1
 90 211 l 1
 90 281 l 1
 574 281 l 1
EndSplineSet
Validated: 1
EndChar

StartChar: greater
Encoding: 62 62 31
Width: 669
VWidth: 1100
Flags: HMW
HStem: 91 20
LayerCount: 2
Fore
SplineSet
579 367 m 1
 579 298 l 1
 90 91 l 1
 90 170 l 1
 484 331 l 1
 90 495 l 1
 90 574 l 1
 579 367 l 1
EndSplineSet
Validated: 1
EndChar

StartChar: question
Encoding: 63 63 32
Width: 591
VWidth: 1000
Flags: HMW
HStem: 0 104<240 330> 663 78<264.5 329.5>
VStem: 240 90<0 104 199 246> 419 90<526 583>
LayerCount: 2
Fore
SplineSet
330 199 m 1
 240 199 l 1
 240 254 l 2
 240 290 247 313 268 341 c 0
 285 364 285 364 344 417 c 0
 397 464 419 503 419 549 c 0
 419 617 368 663 291 663 c 0
 238 663 198 642 179 605 c 0
 167 581 162 553 162 507 c 1
 77 507 l 1
 77 661 152 741 296 741 c 0
 426 741 509 666 509 549 c 0
 509 483 484 438 409 370 c 0
 341 307 330 290 330 246 c 2
 330 199 l 1
330 104 m 1
 330 0 l 1
 240 0 l 1
 240 104 l 1
 330 104 l 1
EndSplineSet
Validated: 1
EndChar

StartChar: at
Encoding: 64 64 33
Width: 1015
VWidth: 1000
Flags: W
HStem: -142 77<388 521> 57 70<682.5 716> 62 64<425.5 453.5> 458 64<473 543> 664 77<465.5 607.5>
VStem: 34 85<177.5 323.5> 264 90<211 300> 864 87<330 440.5>
LayerCount: 2
Fore
SplineSet
665 501 m 1xbf
 748 501 l 1
 658 221 l 1
 650 198 646 180 646 171 c 0
 646 147 669 127 696 127 c 0
 781 127 864 240 864 357 c 0
 864 524 703 664 512 664 c 0
 301 664 119 483 119 273 c 0
 119 82 282 -65 494 -65 c 0
 548 -65 605 -56 687 -33 c 1
 715 -100 l 1
 643 -127 563 -142 489 -142 c 0
 236 -142 34 36 34 258 c 0
 34 389 94 523 192 612 c 0
 280 692 406 741 525 741 c 0
 758 741 951 572 951 369 c 0
 951 291 920 210 865 146 c 0
 814 86 753 57 679 57 c 0xdf
 616 57 578 83 569 134 c 1
 523 84 480 62 427 62 c 0
 334 62 264 141 264 245 c 0
 264 390 387 522 521 522 c 0
 576 522 618 492 643 435 c 1
 665 501 l 1xbf
515 458 m 0
 431 458 354 356 354 244 c 0
 354 178 398 126 453 126 c 0xbf
 490 126 527 150 555 191 c 0
 580 228 607 312 609 362 c 0
 612 416 571 458 515 458 c 0
EndSplineSet
Validated: 33
EndChar

StartChar: A
Encoding: 65 65 34
Width: 667
VWidth: 1000
Flags: MW
HStem: 0 20 219 78<216 448> 709 20<277 397 397 397>
LayerCount: 2
Fore
SplineSet
474 219 m 1
 193 219 l 1
 116 0 l 1
 17 0 l 1
 277 729 l 1
 397 729 l 1
 653 0 l 1
 549 0 l 1
 474 219 l 1
448 297 m 1
 336 629 l 1
 216 297 l 1
 448 297 l 1
EndSplineSet
Validated: 1
EndChar

StartChar: B
Encoding: 66 66 35
Width: 667
VWidth: 1000
Flags: W
HStem: 0 82<172 399 399 408> 333 82<172 352 352 378> 647 82<172 352 172 172>
VStem: 79 93<82 333 415 647> 498 93<511.5 551> 530 93<189.5 225>
LayerCount: 2
Fore
SplineSet
79 0 m 1xf4
 79 729 l 1
 375 729 l 2
 445 729 495 713 533 678 c 0
 571 644 591 597 591 544 c 0xf8
 591 470 556 416 490 385 c 1
 583 349 623 296 623 208 c 0
 623 151 603 99 567 61 c 0
 528 19 477 0 408 0 c 2
 79 0 l 1xf4
172 415 m 1
 352 415 l 2
 404 415 433 422 458 441 c 0
 484 461 498 492 498 531 c 0
 498 571 484 601 458 621 c 0
 433 640 404 647 352 647 c 2
 172 647 l 1
 172 415 l 1
172 82 m 1
 399 82 l 2
 444 82 474 93 496 117 c 0
 518 140 530 172 530 207 c 0xf4
 530 243 518 275 496 298 c 0
 474 322 444 333 399 333 c 2
 172 333 l 1
 172 82 l 1
EndSplineSet
Validated: 1
EndChar

StartChar: C
Encoding: 67 67 36
Width: 722
VWidth: 1000
Flags: MW
HStem: -23 82<329.5 417> 659 82<332 399.5>
VStem: 48 93<296 415>
LayerCount: 2
Fore
SplineSet
662 503 m 1
 567 503 l 1
 556 557 541 588 514 613 c 0
 484 641 429 659 370 659 c 0
 229 659 141 544 141 357 c 0
 141 175 233 59 378 59 c 0
 456 59 518 93 548 153 c 0
 563 182 573 216 581 266 c 1
 677 266 l 1
 655 73 555 -23 377 -23 c 0
 282 -23 210 4 154 62 c 0
 85 133 48 236 48 356 c 0
 48 474 84 578 150 650 c 0
 204 710 283 741 381 741 c 0
 541 741 633 663 662 503 c 1
EndSplineSet
Validated: 1
EndChar

StartChar: D
Encoding: 68 68 37
Width: 722
VWidth: 1000
Flags: MW
HStem: 0 82<182 354 354 370> 647 82<182 354 182 182>
VStem: 89 93<82 647> 574 93<272 457>
LayerCount: 2
Fore
SplineSet
89 0 m 1
 89 729 l 1
 370 729 l 2
 555 729 667 591 667 365 c 0
 667 138 554 0 370 0 c 2
 89 0 l 1
182 82 m 1
 354 82 l 2
 498 82 574 180 574 364 c 0
 574 550 498 647 354 647 c 2
 182 647 l 1
 182 82 l 1
EndSplineSet
Validated: 1
EndChar

StartChar: E
Encoding: 69 69 38
Width: 667
VWidth: 1000
Flags: MW
HStem: 0 82<183 613> 332 82<183 580> 647 82<183 595 183 183>
VStem: 90 93<82 332 414 647>
LayerCount: 2
Fore
SplineSet
183 332 m 1
 183 82 l 1
 613 82 l 1
 613 0 l 1
 90 0 l 1
 90 729 l 1
 595 729 l 1
 595 647 l 1
 183 647 l 1
 183 414 l 1
 580 414 l 1
 580 332 l 1
 183 332 l 1
EndSplineSet
Validated: 1
EndChar

StartChar: F
Encoding: 70 70 39
Width: 611
VWidth: 1000
Flags: MW
HStem: 0 20 332 82<183 531> 647 82<183 579 183 183>
VStem: 90 93<0 332 414 647>
LayerCount: 2
Fore
SplineSet
183 332 m 1
 183 0 l 1
 90 0 l 1
 90 729 l 1
 579 729 l 1
 579 647 l 1
 183 647 l 1
 183 414 l 1
 531 414 l 1
 531 332 l 1
 183 332 l 1
EndSplineSet
Validated: 1
EndChar

StartChar: G
Encoding: 71 71 40
Width: 778
VWidth: 1000
Flags: MW
HStem: -23 82<361 427.5> 303 82<405 627> 659 82<349.5 448.5>
VStem: 44 93<317 422.5> 627 82<93 93 283 303 303 303>
LayerCount: 2
Fore
SplineSet
709 385 m 1
 709 -4 l 1
 650 -4 l 1
 627 93 l 1
 556 14 477 -23 378 -23 c 0
 181 -23 44 133 44 357 c 0
 44 488 92 601 176 671 c 0
 233 718 305 741 394 741 c 4
 561 741 673 656 699 508 c 1
 604 508 l 1
 584 602 504 659 393 659 c 0
 239 659 137 541 137 362 c 0
 137 272 166 185 214 133 c 0
 257 86 324 59 398 59 c 0
 531 59 627 153 627 283 c 2
 627 303 l 1
 405 303 l 1
 405 385 l 1
 709 385 l 1
EndSplineSet
Validated: 1
EndChar

StartChar: H
Encoding: 72 72 41
Width: 722
VWidth: 1000
Flags: W
HStem: 0 20 332 82<177 551 177 177> 709 20<83 176 176 176 551 644 644 644>
VStem: 83 93<414 729> 83 94<0 332> 551 93<0 332 332 332 414 729>
LayerCount: 2
Fore
SplineSet
551 332 m 1xf4
 177 332 l 1
 177 0 l 1
 83 0 l 1xec
 83 729 l 1
 176 729 l 1
 176 414 l 1
 551 414 l 1
 551 729 l 1
 644 729 l 1
 644 0 l 1
 551 0 l 1
 551 332 l 1xf4
EndSplineSet
Validated: 1
EndChar

StartChar: I
Encoding: 73 73 42
Width: 278
VWidth: 1000
Flags: HMW
HStem: 0 20 709 20<100 194 194 194>
VStem: 100 94<0 729>
LayerCount: 2
Fore
SplineSet
194 729 m 1
 194 0 l 1
 100 0 l 1
 100 729 l 1
 194 729 l 1
EndSplineSet
Validated: 1
EndChar

StartChar: J
Encoding: 74 74 43
Width: 500
VWidth: 1000
Flags: MW
HStem: -23 78<186 239.5> 709 20<333 426 426 426>
VStem: 17 95<170 187 187 234> 333 93<216 729>
LayerCount: 2
Fore
SplineSet
333 729 m 1
 426 729 l 1
 426 182 l 2
 426 56 347 -23 220 -23 c 0
 95 -23 17 52 17 170 c 2
 17 234 l 1
 112 234 l 1
 112 187 l 2
 112 102 151 55 221 55 c 0
 258 55 292 72 310 100 c 0
 327 125 333 158 333 216 c 2
 333 729 l 1
EndSplineSet
Validated: 1
EndChar

StartChar: K
Encoding: 75 75 44
Width: 667
VWidth: 1000
Flags: MW
HStem: 0 20 709 20<79 172 172 172 535 655 655 655>
VStem: 79 93<0 255 360 729>
LayerCount: 2
Fore
SplineSet
172 255 m 1
 172 0 l 1
 79 0 l 1
 79 729 l 1
 172 729 l 1
 172 360 l 1
 535 729 l 1
 655 729 l 1
 358 432 l 1
 658 0 l 1
 548 0 l 1
 291 374 l 1
 172 255 l 1
EndSplineSet
Validated: 1
EndChar

StartChar: L
Encoding: 76 76 45
Width: 556
VWidth: 1000
Flags: MW
HStem: 0 82<173 533> 709 20<80 173 173 173>
VStem: 80 93<82 729>
LayerCount: 2
Fore
SplineSet
173 729 m 1
 173 82 l 1
 533 82 l 1
 533 0 l 1
 80 0 l 1
 80 729 l 1
 173 729 l 1
EndSplineSet
Validated: 1
EndChar

StartChar: M
Encoding: 77 77 46
Width: 833
VWidth: 1000
Flags: MW
HStem: 0 20 709 20<75 204 204 204 632 761 761 761>
VStem: 75 88<0 611> 673 88<0 611 611 611>
LayerCount: 2
Fore
SplineSet
468 0 m 1
 370 0 l 1
 163 611 l 1
 163 0 l 1
 75 0 l 1
 75 729 l 1
 204 729 l 1
 420 94 l 1
 632 729 l 1
 761 729 l 1
 761 0 l 1
 673 0 l 1
 673 611 l 1
 468 0 l 1
EndSplineSet
Validated: 1
EndChar

StartChar: N
Encoding: 78 78 47
Width: 722
VWidth: 1000
Flags: MW
HStem: 0 20 709 20<76 177 177 177 558 646 646 646>
VStem: 76 88<0 591> 558 88<133 729>
LayerCount: 2
Fore
SplineSet
646 729 m 1
 646 0 l 1
 541 0 l 1
 164 591 l 1
 164 0 l 1
 76 0 l 1
 76 729 l 1
 177 729 l 1
 558 133 l 1
 558 729 l 1
 646 729 l 1
EndSplineSet
Validated: 1
EndChar

StartChar: O
Encoding: 79 79 48
Width: 778
VWidth: 1000
Flags: MW
HStem: -23 82<312.5 434> 659 82<312 468>
VStem: 38 93<269 449> 649 93<293.5 447>
LayerCount: 2
Fore
SplineSet
389 741 m 0
 603 741 742 588 742 353 c 0
 742 234 695 121 616 54 c 0
 557 4 478 -23 390 -23 c 0
 180 -23 38 131 38 359 c 0
 38 587 180 741 389 741 c 0
389 659 m 0
 235 659 131 539 131 359 c 0
 131 179 235 59 390 59 c 0
 544 59 649 179 649 355 c 0
 649 539 547 659 389 659 c 0
EndSplineSet
Validated: 1
EndChar

StartChar: P
Encoding: 80 80 49
Width: 667
VWidth: 1000
Flags: MW
HStem: 0 20 309 82<184 378 378 413> 647 82<184 378 184 184>
VStem: 91 93<0 309 391 647> 520 97<481.5 559>
LayerCount: 2
Fore
SplineSet
184 309 m 1
 184 0 l 1
 91 0 l 1
 91 729 l 1
 392 729 l 2
 536 729 617 652 617 515 c 0
 617 448 598 401 554 361 c 0
 515 326 470 309 413 309 c 2
 184 309 l 1
184 391 m 1
 378 391 l 2
 467 391 520 439 520 519 c 0
 520 599 467 647 378 647 c 2
 184 647 l 1
 184 391 l 1
EndSplineSet
Validated: 1
EndChar

StartChar: Q
Encoding: 81 81 50
Width: 778
VWidth: 1000
Flags: MW
HStem: -23 82<311.5 411> 659 82<312.5 467.5>
VStem: 38 93<269 449> 649 93<313 449.5>
LayerCount: 2
Fore
SplineSet
733 -1 m 1
 686 -59 l 1
 581 28 l 1
 522 -7 462 -23 390 -23 c 0
 180 -23 38 131 38 359 c 0
 38 587 180 741 390 741 c 0
 600 741 742 587 742 361 c 0
 742 246 708 152 639 76 c 1
 733 -1 l 1
481 205 m 1
 570 132 l 1
 624 193 649 266 649 360 c 0
 649 539 545 659 390 659 c 0
 235 659 131 539 131 359 c 0
 131 179 234 59 389 59 c 0
 433 59 466 67 509 87 c 1
 435 149 l 1
 481 205 l 1
EndSplineSet
Validated: 1
EndChar

StartChar: R
Encoding: 82 82 51
Width: 722
VWidth: 1000
Flags: MW
HStem: 0 20 314 82<186 411 411 426> 647 82<186 411 186 186>
VStem: 93 93<0 314 396 647> 554 97<492.5 543>
LayerCount: 2
Fore
SplineSet
186 314 m 1
 186 0 l 1
 93 0 l 1
 93 729 l 1
 429 729 l 2
 572 729 651 660 651 534 c 0
 651 451 618 400 536 360 c 1
 615 326 634 290 635 170 c 0
 637 73 644 47 679 23 c 1
 679 0 l 1
 566 0 l 1
 553 30 545 74 545 119 c 1
 546 184 l 1
 546 274 509 314 426 314 c 2
 186 314 l 1
186 396 m 1
 411 396 l 2
 510 396 554 435 554 521 c 0
 554 565 541 598 516 619 c 0
 493 639 463 647 411 647 c 2
 186 647 l 1
 186 396 l 1
EndSplineSet
Validated: 1
EndChar

StartChar: S
Encoding: 83 83 52
Width: 667
VWidth: 1000
Flags: MW
HStem: -23 82<302.5 371.5> 663 78<277 384>
VStem: 70 93<512 577> 528 93<171.5 219.5>
LayerCount: 2
Fore
SplineSet
596 515 m 1
 508 515 l 1
 507 610 442 663 326 663 c 0
 228 663 163 614 163 540 c 0
 163 484 195 456 283 432 c 2
 466 383 l 2
 565 356 621 290 621 200 c 0
 621 137 590 72 541 33 c 0
 494 -3 423 -23 336 -23 c 0
 225 -23 141 13 91 81 c 0
 62 121 49 165 48 232 c 1
 136 232 l 1
 135 187 147 152 174 120 c 0
 209 78 263 59 342 59 c 0
 401 59 447 70 476 90 c 0
 507 112 528 152 528 191 c 0
 528 248 486 285 394 309 c 2
 213 357 l 2
 117 382 70 438 70 527 c 0
 70 659 169 741 329 741 c 0
 497 741 595 658 596 515 c 1
EndSplineSet
Validated: 33
EndChar

StartChar: T
Encoding: 84 84 53
Width: 611
VWidth: 1000
Flags: MW
HStem: 0 20 647 82<21 261 354 593 354 354>
VStem: 261 93<0 647>
LayerCount: 2
Fore
SplineSet
354 647 m 1
 354 0 l 1
 261 0 l 1
 261 647 l 1
 21 647 l 1
 21 729 l 1
 593 729 l 1
 593 647 l 1
 354 647 l 1
EndSplineSet
Validated: 1
EndChar

StartChar: U
Encoding: 85 85 54
Width: 722
VWidth: 1000
Flags: MW
HStem: -23 82<337 422.5> 709 20<85 178 178 178 552 645 645 645>
VStem: 85 93<217 729> 552 93<217 729>
LayerCount: 2
Fore
SplineSet
552 729 m 1
 645 729 l 1
 645 217 l 2
 645 71 535 -23 364 -23 c 0
 191 -23 85 69 85 217 c 2
 85 729 l 5
 178 729 l 1
 178 217 l 2
 178 162 195 125 231 97 c 1
 266 72 310 59 364 59 c 0
 481 59 552 119 552 217 c 2
 552 729 l 1
EndSplineSet
Validated: 1
EndChar

StartChar: V
Encoding: 86 86 55
Width: 667
VWidth: 1000
Flags: MW
HStem: 0 20 709 20<30 130 130 130 546 645 645 645>
LayerCount: 2
Fore
SplineSet
392 0 m 1
 292 0 l 1
 30 729 l 1
 130 729 l 1
 344 112 l 1
 546 729 l 1
 645 729 l 1
 392 0 l 1
EndSplineSet
Validated: 1
EndChar

StartChar: W
Encoding: 87 87 56
Width: 944
VWidth: 1000
Flags: MW
HStem: 0 20 709 20<22 126 126 126 425 525 525 525 825 929 929 929>
LayerCount: 2
Fore
SplineSet
744 0 m 1
 642 0 l 1
 474 599 l 1
 311 0 l 1
 209 0 l 1
 22 729 l 1
 126 729 l 1
 263 137 l 1
 425 729 l 1
 525 729 l 1
 691 137 l 1
 825 729 l 1
 929 729 l 1
 744 0 l 1
EndSplineSet
Validated: 1
EndChar

StartChar: X
Encoding: 88 88 57
Width: 667
VWidth: 1000
Flags: MW
HStem: 0 20 709 20<38 151 151 151 526 637 637 637>
LayerCount: 2
Fore
SplineSet
391 374 m 1
 649 0 l 1
 534 0 l 1
 335 304 l 1
 135 0 l 1
 22 0 l 1
 280 374 l 1
 38 729 l 1
 151 729 l 1
 338 443 l 1
 526 729 l 1
 637 729 l 1
 391 374 l 1
EndSplineSet
Validated: 1
EndChar

StartChar: Y
Encoding: 89 89 58
Width: 667
VWidth: 1000
Flags: MW
HStem: 0 20 709 20<13 128 128 128 550 661 661 661>
VStem: 294 93<0 286>
LayerCount: 2
Fore
SplineSet
387 286 m 1
 387 0 l 1
 294 0 l 1
 294 286 l 1
 13 729 l 1
 128 729 l 1
 342 374 l 1
 550 729 l 1
 661 729 l 1
 387 286 l 1
EndSplineSet
Validated: 1
EndChar

StartChar: Z
Encoding: 90 90 59
Width: 611
VWidth: 1000
Flags: MW
HStem: 0 82<145 583> 647 82<56 466>
LayerCount: 2
Fore
SplineSet
581 729 m 1
 581 645 l 1
 145 82 l 1
 583 82 l 1
 583 0 l 1
 28 0 l 1
 28 82 l 1
 466 647 l 1
 56 647 l 1
 56 729 l 1
 581 729 l 1
EndSplineSet
Validated: 1
EndChar

StartChar: bracketleft
Encoding: 91 91 60
Width: 278
VWidth: 1000
Flags: HMW
HStem: -170 72<147 250> 699 72<147 250 147 147>
VStem: 64 83<-98 699>
LayerCount: 2
Fore
SplineSet
250 771 m 1
 250 699 l 1
 147 699 l 1
 147 -98 l 1
 250 -98 l 1
 250 -170 l 1
 64 -170 l 1
 64 771 l 1
 250 771 l 1
EndSplineSet
Validated: 1
EndChar

StartChar: backslash
Encoding: 92 92 61
Width: 278
VWidth: 1000
Flags: MW
HStem: -20 20 709 20<-8 47 47 47>
LayerCount: 2
Fore
SplineSet
47 729 m 1
 284 -20 l 1
 229 -20 l 1
 -8 729 l 1
 47 729 l 1
EndSplineSet
Validated: 1
EndChar

StartChar: bracketright
Encoding: 93 93 62
Width: 278
VWidth: 1000
Flags: HMW
HStem: -170 72<23 126> 699 72<23 126>
VStem: 126 83<-98 699 699 699>
LayerCount: 2
Fore
SplineSet
23 -170 m 1
 23 -98 l 1
 126 -98 l 1
 126 699 l 1
 23 699 l 1
 23 771 l 1
 209 771 l 1
 209 -170 l 1
 23 -170 l 1
EndSplineSet
Validated: 1
EndChar

StartChar: asciicircum
Encoding: 94 94 63
Width: 469
VWidth: 1000
Flags: W
LayerCount: 2
Fore
SplineSet
197 709 m 1
 270 709 l 1
 425 329 l 1
 356 329 l 1
 234 629 l 1
 113 329 l 1
 44 329 l 1
 197 709 l 1
EndSplineSet
Validated: 1
EndChar

StartChar: underscore
Encoding: 95 95 64
Width: 556
VWidth: 1000
Flags: MW
HStem: -176 50<-22 578>
LayerCount: 2
Fore
SplineSet
578 -126 m 1
 578 -176 l 1
 -22 -176 l 1
 -22 -126 l 1
 578 -126 l 1
EndSplineSet
Validated: 1
EndChar

StartChar: grave
Encoding: 96 96 65
Width: 222
VWidth: 1000
Flags: MW
HStem: 477 104<110 158>
VStem: 65 93<477 578 578 581>
LayerCount: 2
Fore
SplineSet
158 477 m 1
 65 477 l 1
 65 578 l 2
 65 657 98 704 158 709 c 1
 158 671 l 1
 124 666 109 638 110 581 c 1
 158 581 l 1
 158 477 l 1
EndSplineSet
Validated: 33
EndChar

StartChar: a
Encoding: 97 97 66
Width: 556
VWidth: 1000
Flags: MW
HStem: -23 73<199.5 247> 462 77<237 309.5>
VStem: 42 87<107.5 161.5> 389 83<165 259 259 259 362 384 384 396>
LayerCount: 2
Fore
SplineSet
535 49 m 1
 535 -14 l 1
 508 -21 495 -23 478 -23 c 0
 424 -23 398 1 392 54 c 1
 333 0 280 -23 214 -23 c 0
 108 -23 42 37 42 132 c 0
 42 200 73 247 134 272 c 0
 166 285 184 289 302 304 c 0
 368 312 389 327 389 362 c 2
 389 384 l 2
 389 434 347 462 272 462 c 0
 194 462 156 433 149 369 c 1
 65 369 l 1
 67 421 77 451 101 478 c 0
 136 517 199 539 275 539 c 4
 404 539 472 489 472 396 c 2
 472 88 l 2
 472 62 488 47 517 47 c 0
 522 47 526 47 535 49 c 1
389 165 m 2
 389 259 l 1
 361 246 343 242 255 230 c 0
 166 217 129 189 129 134 c 0
 129 81 167 50 232 50 c 0
 281 50 322 66 356 97 c 0
 381 120 389 137 389 165 c 2
EndSplineSet
Validated: 1
EndChar

StartChar: b
Encoding: 98 98 67
Width: 556
VWidth: 1000
Flags: MW
HStem: -23 78<258.5 328.5> 461 78<263 329.5> 709 20<54 137 137 137>
VStem: 54 83<196.5 319.5 453 729> 436 87<195.5 317.5>
LayerCount: 2
Fore
SplineSet
54 729 m 1
 137 729 l 1
 137 453 l 1
 176 512 227 539 299 539 c 0
 437 539 523 434 523 264 c 0
 523 90 433 -23 295 -23 c 0
 222 -23 169 6 129 67 c 1
 129 0 l 1
 54 0 l 1
 54 729 l 1
283 461 m 0
 195 461 137 381 137 258 c 0
 137 135 195 55 283 55 c 0
 374 55 436 136 436 255 c 0
 436 380 376 461 283 461 c 0
EndSplineSet
Validated: 1
EndChar

StartChar: c
Encoding: 99 99 68
Width: 500
VWidth: 1000
Flags: MW
HStem: -23 77<219 300.5> 462 77<217.5 298>
VStem: 31 87<191 318.5>
LayerCount: 2
Fore
SplineSet
471 348 m 1
 387 348 l 1
 377 421 333 462 263 462 c 0
 172 462 118 384 118 253 c 0
 118 129 173 54 265 54 c 0
 336 54 379 96 393 180 c 1
 477 180 l 1
 467 52 388 -23 263 -23 c 0
 121 -23 31 84 31 253 c 0
 31 427 123 539 264 539 c 0
 337 539 400 510 436 461 c 0
 456 432 467 399 471 348 c 1
EndSplineSet
Validated: 1
EndChar

StartChar: d
Encoding: 100 100 69
Width: 556
VWidth: 1000
Flags: MW
HStem: -23 78<220 290> 461 78<219.5 286> 709 20<412 495 495 495>
VStem: 26 87<197 319> 412 83<195.5 318.5 458 729>
LayerCount: 2
Fore
SplineSet
495 729 m 1
 495 0 l 1
 421 0 l 1
 421 69 l 1
 376 4 326 -23 254 -23 c 0
 113 -23 26 86 26 263 c 0
 26 430 115 539 251 539 c 0
 321 539 377 511 412 458 c 1
 412 729 l 1
 495 729 l 1
265 461 m 0
 174 461 113 380 113 258 c 0
 113 136 174 55 266 55 c 0
 354 55 412 135 412 256 c 0
 412 381 355 461 265 461 c 0
EndSplineSet
Validated: 1
EndChar

StartChar: e
Encoding: 101 101 70
Width: 556
VWidth: 1000
Flags: MW
HStem: -23 77<254.5 314.5> 234 68<129 423> 462 77<237 320>
LayerCount: 2
Fore
SplineSet
513 234 m 1
 127 234 l 1
 128 182 135 152 155 122 c 0
 183 78 228 54 281 54 c 0
 348 54 395 90 418 159 c 1
 502 159 l 1
 481 45 398 -23 278 -23 c 0
 131 -23 40 83 40 255 c 0
 40 427 134 539 280 539 c 0
 378 539 458 487 492 401 c 0
 507 362 513 314 513 234 c 1
129 302 m 1
 423 302 l 1
 424 304 424 306 424 308 c 0
 424 394 361 462 279 462 c 0
 195 462 136 399 129 302 c 1
EndSplineSet
Validated: 1
EndChar

StartChar: f
Encoding: 102 102 71
Width: 278
VWidth: 1000
Flags: MW
HStem: 0 20 456 68<18 88 171 258> 659 73<210 219.5>
VStem: 88 83<0 456 524 606>
LayerCount: 2
Fore
SplineSet
258 524 m 1
 258 456 l 1
 171 456 l 1
 171 0 l 1
 88 0 l 1
 88 456 l 1
 18 456 l 1
 18 524 l 1
 88 524 l 1
 88 613 l 2
 88 688 134 732 211 732 c 0
 228 732 239 731 258 727 c 1
 258 658 l 1
 239 659 236 659 229 659 c 0
 191 659 171 641 171 606 c 2
 171 524 l 1
 258 524 l 1
EndSplineSet
Validated: 1
EndChar

StartChar: g
Encoding: 103 103 72
Width: 556
VWidth: 1000
Flags: MW
HStem: -218 70<239 283.5> -23 77<217.5 278> 462 77<216.5 285.5>
VStem: 29 87<210 321> 412 77<448 524>
LayerCount: 2
Fore
SplineSet
412 524 m 1
 489 524 l 1
 489 86 l 2
 489 -37 474 -103 434 -151 c 0
 400 -193 333 -218 255 -218 c 0
 132 -218 55 -159 46 -60 c 1
 131 -60 l 1
 136 -91 144 -105 163 -120 c 0
 186 -138 220 -148 258 -148 c 0
 309 -148 352 -130 374 -99 c 0
 395 -70 404 -27 404 44 c 2
 404 71 l 1
 357 5 311 -23 245 -23 c 0
 190 -23 134 3 95 47 c 0
 52 97 29 167 29 253 c 0
 29 423 119 539 252 539 c 0
 319 539 370 510 412 448 c 1
 412 524 l 1
261 462 m 0
 172 462 116 384 116 258 c 0
 116 131 171 54 262 54 c 0
 350 54 404 130 404 255 c 0
 404 386 351 462 261 462 c 0
EndSplineSet
Validated: 1
EndChar

StartChar: h
Encoding: 104 104 73
Width: 556
VWidth: 1000
Flags: MW
HStem: 0 20 466 73<284 308.5> 709 20<70 153 153 153>
VStem: 70 83<0 289 452 729> 403 83<0 363 363 381.5>
LayerCount: 2
Fore
SplineSet
70 729 m 1
 153 729 l 1
 153 452 l 1
 202 516 247 539 321 539 c 0
 423 539 486 484 486 396 c 2
 486 0 l 1
 403 0 l 1
 403 363 l 2
 403 400 393 425 369 442 c 0
 349 457 322 466 295 466 c 0
 209 466 153 396 153 289 c 2
 153 0 l 1
 70 0 l 1
 70 729 l 1
EndSplineSet
Validated: 1
EndChar

StartChar: i
Encoding: 105 105 74
Width: 222
VWidth: 1000
Flags: W
HStem: 0 20 624 105<66 150>
VStem: 66 84<624 729> 67 83<0 524>
LayerCount: 2
Fore
SplineSet
150 524 m 1xd0
 150 0 l 1
 67 0 l 1
 67 524 l 1
 150 524 l 1xd0
150 729 m 1xe0
 150 624 l 1
 66 624 l 1
 66 729 l 1
 150 729 l 1xe0
EndSplineSet
Validated: 1
EndChar

StartChar: j
Encoding: 106 106 75
Width: 222
VWidth: 1000
Flags: MW
HStem: -218 73<3.5 27.5> 624 105<70 153>
VStem: 70 83<-76 524 624 729>
LayerCount: 2
Fore
SplineSet
70 524 m 1
 153 524 l 1
 153 -109 l 2
 153 -180 104 -218 10 -218 c 0
 -3 -218 -8 -217 -18 -215 c 1
 -18 -144 l 1
 -1 -145 -1 -145 2 -145 c 0
 53 -145 70 -128 70 -76 c 2
 70 524 l 1
153 729 m 1
 153 624 l 1
 70 624 l 1
 70 729 l 1
 153 729 l 1
EndSplineSet
Validated: 1
EndChar

StartChar: k
Encoding: 107 107 76
Width: 500
VWidth: 1000
Flags: MW
HStem: 0 20 709 20<58 141 141 141>
VStem: 58 83<0 204 302 729>
LayerCount: 2
Fore
SplineSet
141 729 m 1
 141 302 l 1
 363 524 l 1
 470 524 l 1
 288 343 l 1
 502 0 l 1
 399 0 l 1
 222 284 l 1
 141 204 l 1
 141 0 l 1
 58 0 l 1
 58 729 l 1
 141 729 l 1
EndSplineSet
Validated: 1
EndChar

StartChar: l
Encoding: 108 108 77
Width: 222
VWidth: 1000
Flags: MW
HStem: 0 20 709 20<68 152 152 152>
VStem: 68 84<0 729>
LayerCount: 2
Fore
SplineSet
152 729 m 1
 152 0 l 1
 68 0 l 1
 68 729 l 1
 152 729 l 1
EndSplineSet
Validated: 1
EndChar

StartChar: m
Encoding: 109 109 78
Width: 833
VWidth: 1000
Flags: W
HStem: 0 20 466 73<273 308 575 611.5> 504 20<70 147 147 147>
VStem: 70 77<450 524> 70 84<0 329> 374 84<0 329> 678 84<0 361 361 393>
LayerCount: 2
Fore
SplineSet
70 524 m 1xb6
 147 524 l 1
 147 450 l 1xb6
 192 513 238 539 308 539 c 0
 376 539 418 515 449 459 c 1
 498 518 540 539 610 539 c 0
 708 539 762 487 762 393 c 2
 762 0 l 1
 678 0 l 1
 678 361 l 2
 678 427 642 466 581 466 c 0
 513 466 458 405 458 329 c 2
 458 0 l 1
 374 0 l 1
 374 361 l 2
 374 428 339 466 277 466 c 0
 209 466 154 405 154 329 c 2
 154 0 l 1
 70 0 l 1xce
 70 524 l 1xb6
EndSplineSet
Validated: 1
EndChar

StartChar: n
Encoding: 110 110 79
Width: 556
VWidth: 1000
Flags: W
HStem: 0 20 466 73<282 329> 504 20<70 147 147 147>
VStem: 70 77<436 524> 70 84<0 289> 404 83<0 363 363 394.5>
LayerCount: 2
Fore
SplineSet
70 524 m 1xb4
 147 524 l 1
 147 436 l 1xb4
 193 509 243 539 321 539 c 0
 422 539 487 483 487 396 c 2
 487 0 l 1
 404 0 l 1
 404 363 l 2
 404 426 362 466 296 466 c 0
 210 466 154 396 154 289 c 2
 154 0 l 1
 70 0 l 1xcc
 70 524 l 1xb4
EndSplineSet
Validated: 1
EndChar

StartChar: o
Encoding: 111 111 80
Width: 556
VWidth: 1000
Flags: MW
HStem: -23 77<226.5 319> 462 77<226.5 320>
VStem: 36 87<194.5 321> 423 87<193.5 320>
LayerCount: 2
Fore
SplineSet
272 539 m 0
 423 539 510 435 510 254 c 0
 510 82 420 -23 273 -23 c 0
 124 -23 36 82 36 258 c 0
 36 434 125 539 272 539 c 0
273 462 m 0
 180 462 123 384 123 258 c 0
 123 131 180 54 273 54 c 0
 365 54 423 132 423 255 c 0
 423 385 367 462 273 462 c 0
EndSplineSet
Validated: 1
EndChar

StartChar: p
Encoding: 112 112 81
Width: 556
VWidth: 1000
Flags: W
HStem: -23 78<277 302> 461 78<277 302> 504 20G<54 131>
VStem: 54 77<445 524> 54 84<-218 55 245 279> 436 87<229 279>
LayerCount: 2
Fore
SplineSet
54 -218 m 5xcc
 54 524 l 1
 131 524 l 1
 131 445 l 1xb4
 170 507 227 539 298 539 c 0
 437 539 523 429 523 253 c 256
 523 86 434 -23 299 -23 c 0
 231 -23 182 1 138 55 c 1
 138 -218 l 1
 54 -218 l 5xcc
284 461 m 0xcc
 196 461 138 381 138 258 c 0
 138 135 196 55 284 55 c 0
 375 55 436 136 436 255 c 0
 436 380 376 461 284 461 c 0xcc
EndSplineSet
Validated: 1
EndChar

StartChar: q
Encoding: 113 113 82
Width: 556
VWidth: 1000
Flags: MW
HStem: -218 20 -23 78<220 286.5> 461 78<220 288.5>
VStem: 26 87<197 318.5> 412 83<-218 60 60 60 195 318>
LayerCount: 2
Fore
SplineSet
495 -218 m 1
 412 -218 l 1
 412 60 l 1
 373 3 323 -23 250 -23 c 0
 112 -23 26 82 26 252 c 0
 26 426 116 539 254 539 c 0
 323 539 382 509 421 454 c 1
 421 524 l 1
 495 524 l 1
 495 -218 l 1
266 461 m 0
 174 461 113 379 113 258 c 0
 113 136 174 55 266 55 c 0
 354 55 412 135 412 255 c 0
 412 381 355 461 266 461 c 0
EndSplineSet
Validated: 1
EndChar

StartChar: r
Encoding: 114 114 83
Width: 333
VWidth: 1000
Flags: W
HStem: 0 20 504 20<69 146 146 146> 519 20<262 294.5>
VStem: 69 77<429 524> 69 84<0 272>
LayerCount: 2
Fore
SplineSet
69 524 m 1xd0
 146 524 l 1
 146 429 l 1xd0
 194 507 235 539 289 539 c 0
 300 539 307 538 321 536 c 1
 321 451 l 1
 263 450 238 444 212 425 c 0
 172 396 153 347 153 272 c 2
 153 0 l 1
 69 0 l 1xa8
 69 524 l 1xd0
EndSplineSet
Validated: 1
EndChar

StartChar: s
Encoding: 115 115 84
Width: 500
VWidth: 1000
Flags: MW
HStem: -23 77<227.5 286.5> 462 77<211 278.5>
VStem: 47 87<364.5 407> 372 87<111.5 155>
LayerCount: 2
Fore
SplineSet
438 378 m 1
 350 378 l 1
 348 433 312 462 245 462 c 0
 177 462 134 431 134 383 c 0
 134 346 163 324 231 308 c 2
 311 289 l 2
 415 264 459 221 459 143 c 0
 459 42 375 -23 243 -23 c 0
 106 -23 38 35 34 156 c 1
 122 156 l 1
 127 119 133 104 146 89 c 0
 167 67 205 54 250 54 c 0
 323 54 372 87 372 136 c 0
 372 174 349 195 291 209 c 2
 213 228 l 2
 89 258 47 297 47 379 c 0
 47 476 126 539 248 539 c 0
 369 539 437 481 438 378 c 1
EndSplineSet
Validated: 1
EndChar

StartChar: t
Encoding: 116 116 85
Width: 278
VWidth: 1000
Flags: MW
HStem: -23 73<170.858 254> 456 68<14 85 168 254>
VStem: 85 83<78.5 97 97 456 524 668>
LayerCount: 2
Fore
SplineSet
254 524 m 1
 254 456 l 1
 168 456 l 1
 168 97 l 2
 168 60 178 50 214 50 c 0
 230 50 243 51 254 54 c 1
 254 -16 l 1
 226 -21 206 -23 186 -23 c 0
 121 -23 85 7 85 60 c 2
 85 456 l 1
 14 456 l 1
 14 524 l 1
 85 524 l 1
 85 668 l 1
 168 668 l 1
 168 524 l 1
 254 524 l 1
EndSplineSet
Validated: 1
EndChar

StartChar: u
Encoding: 117 117 86
Width: 556
VWidth: 1000
Flags: W
HStem: -23 73<223 270.5> 504 20<65 148 148 148 399 482 482 482>
VStem: 65 83<121.5 153 153 524> 399 83<227 524> 407 75<0 73 73 73>
LayerCount: 2
Fore
SplineSet
482 0 m 1xe8
 407 0 l 1
 407 73 l 1xe8
 358 4 309 -23 232 -23 c 0
 130 -23 65 33 65 120 c 2
 65 524 l 1
 148 524 l 1
 148 153 l 2
 148 90 190 50 256 50 c 0
 343 50 399 120 399 227 c 2
 399 524 l 1
 482 524 l 1xf0
 482 0 l 1xe8
EndSplineSet
Validated: 1
EndChar

StartChar: v
Encoding: 118 118 87
Width: 500
VWidth: 1000
Flags: MW
HStem: 0 20 504 20<10 104 104 104 392 486 486 486>
LayerCount: 2
Fore
SplineSet
285 0 m 1
 194 0 l 1
 10 524 l 1
 104 524 l 1
 244 99 l 1
 392 524 l 1
 486 524 l 1
 285 0 l 1
EndSplineSet
Validated: 1
EndChar

StartChar: w
Encoding: 119 119 88
Width: 722
VWidth: 1000
Flags: MW
HStem: 0 20 504 20<6 98 98 98 305 407 407 407 614 708 708 708>
LayerCount: 2
Fore
SplineSet
554 0 m 1
 459 0 l 1
 353 411 l 1
 252 0 l 1
 158 0 l 1
 6 524 l 1
 98 524 l 1
 205 116 l 1
 305 524 l 1
 407 524 l 1
 510 116 l 1
 614 524 l 1
 708 524 l 1
 554 0 l 1
EndSplineSet
Validated: 1
EndChar

StartChar: x
Encoding: 120 120 89
Width: 500
VWidth: 1000
Flags: MW
HStem: 0 20 504 20<27 122 122 122 374 468 468 468>
LayerCount: 2
Fore
SplineSet
292 271 m 1
 473 0 l 1
 376 0 l 1
 245 201 l 1
 112 0 l 1
 17 0 l 1
 202 267 l 1
 27 524 l 1
 122 524 l 1
 248 334 l 1
 374 524 l 1
 468 524 l 1
 292 271 l 1
EndSplineSet
Validated: 1
EndChar

StartChar: y
Encoding: 121 121 90
Width: 500
VWidth: 1000
Flags: MW
HStem: -218 82<99 115.5> 504 20<20 109 109 109 388 478 478 478>
LayerCount: 2
Fore
SplineSet
388 524 m 1
 478 524 l 1
 245 -110 l 1
 229 -152 214 -174 188 -193 c 0
 166 -209 137 -218 110 -218 c 0
 88 -218 71 -214 54 -205 c 1
 54 -130 l 1
 72 -134 86 -136 98 -136 c 0
 133 -136 152 -122 165 -85 c 1
 197 -2 l 1
 20 524 l 1
 109 524 l 1
 243 116 l 1
 388 524 l 1
EndSplineSet
Validated: 1
EndChar

StartChar: z
Encoding: 122 122 91
Width: 500
VWidth: 1000
Flags: MW
HStem: 0 73<132 457> 451 73<52 344>
LayerCount: 2
Fore
SplineSet
443 524 m 1
 443 450 l 1
 132 73 l 1
 457 73 l 1
 457 0 l 1
 31 0 l 1
 31 75 l 1
 344 451 l 1
 52 451 l 1
 52 524 l 5
 443 524 l 1
EndSplineSet
Validated: 1
EndChar

StartChar: braceleft
Encoding: 123 123 92
Width: 334
VWidth: 1000
Flags: MW
HStem: -212 65<261 276> 664 65<236.5 261 261 276>
VStem: 121 77<-81 -80 -80 86 86 101 431 597>
LayerCount: 2
Fore
SplineSet
276 729 m 1
 276 664 l 1
 261 664 l 2
 212 664 198 649 198 597 c 2
 198 416 l 2
 198 324 177 283 116 259 c 1
 172 233 198 184 198 101 c 2
 198 -80 l 2
 198 -132 212 -147 261 -147 c 2
 276 -147 l 1
 276 -212 l 1
 230 -212 l 2
 161 -212 121 -164 121 -81 c 2
 121 86 l 2
 121 178 102 212 43 224 c 1
 43 293 l 1
 102 305 121 338 121 431 c 2
 121 598 l 2
 121 681 161 729 230 729 c 2
 276 729 l 1
EndSplineSet
Validated: 1
EndChar

StartChar: bar
Encoding: 124 124 93
Width: 260
VWidth: 1000
Flags: MW
HStem: 709 20<100 160 160 160>
VStem: 100 60<-212 729>
LayerCount: 2
Fore
SplineSet
100 729 m 1
 160 729 l 1
 160 -212 l 1
 100 -212 l 1
 100 729 l 1
EndSplineSet
Validated: 1
EndChar

StartChar: braceright
Encoding: 125 125 94
Width: 334
VWidth: 1000
Flags: MW
HStem: -212 65<29 45 45 70> 664 65<29 45>
VStem: 109 77<-80 86 416 431 431 597 597 598>
LayerCount: 2
Fore
SplineSet
29 -212 m 1
 29 -147 l 1
 45 -147 l 2
 95 -147 109 -132 109 -80 c 2
 109 101 l 2
 109 184 135 233 191 258 c 1
 135 284 109 334 109 416 c 2
 109 597 l 2
 109 649 95 664 45 664 c 2
 29 664 l 1
 29 729 l 1
 76 729 l 2
 146 729 186 681 186 598 c 2
 186 431 l 2
 186 339 205 305 262 293 c 1
 262 224 l 1
 205 212 186 178 186 86 c 2
 186 -81 l 2
 186 -164 146 -212 76 -212 c 2
 29 -212 l 1
EndSplineSet
Validated: 1
EndChar

StartChar: asciitilde
Encoding: 126 126 95
Width: 584
VWidth: 1000
Flags: MW
HStem: 268 68<397 422.5> 371 67<172 186>
LayerCount: 2
Fore
SplineSet
455 411 m 1
 508 411 l 1
 508 395 l 2
 508 318 467 268 403 268 c 0
 378 268 348 278 322 294 c 2
 224 357 l 2
 214 363 191 371 181 371 c 0
 163 371 146 358 136 336 c 0
 132 326 130 316 128 293 c 1
 75 293 l 1
 80 387 118 438 183 438 c 0
 201 438 220 432 237 422 c 2
 354 353 l 2
 374 341 390 336 404 336 c 0
 441 336 456 358 455 411 c 1
EndSplineSet
Validated: 33
EndChar

StartChar: sterling
Encoding: 163 163 96
Width: 636
VWidth: 1000
Flags: W
HStem: -23 92<344.713 522.712> -14 21G<108.455 142> 23 77<193.295 334.101> 321 55<66 147 270 406> 651 78<242.126 410.737>
VStem: 94 93<440.068 598.411> 200 85<173.347 319.735> 464 88<497 593.959>
LayerCount: 2
Fore
SplineSet
406 376 m 1x7f
 406 321 l 1
 270 321 l 1
 280 292 285 269 285 250 c 0
 285 198 257 152 167 61 c 1
 206 87 246 100 289 100 c 0x7f
 315 100 333 97 371 85 c 0
 412 73 432 69 450 69 c 0
 476 69 504 79 533 99 c 1
 575 33 l 1
 535 -6 496 -23 444 -23 c 0x9f
 407 -23 381 -17 298 12 c 0
 277 19 253 23 232 23 c 0
 197 23 161 11 123 -14 c 1
 75 52 l 1
 167 131 200 182 200 243 c 0
 200 268 191 296 176 321 c 1
 66 321 l 1
 66 376 l 1
 147 376 l 1
 101 452 94 471 94 515 c 0
 94 636 198 729 332 729 c 0
 417 729 488 692 524 630 c 0
 543 597 551 558 552 497 c 1
 464 497 l 1
 461 600 415 651 328 651 c 0
 243 651 187 600 187 523 c 0
 187 486 193 469 230 404 c 1
 233 401 240 388 246 376 c 1
 406 376 l 1x7f
EndSplineSet
Validated: 1
EndChar

StartChar: uni0591
Encoding: 1425 1425 97
Width: 0
VWidth: 1000
Flags: W
HStem: -201 141<-34.9879 34.9879>
VStem: -119 62<-258 -213.276> -35 70<-154.36 -60> 57 62<-258 -213.276>
CounterMasks: 1 70
LayerCount: 2
Back
SplineSet
-28.2354 -140.992 m 1
 -28.2354 -60 l 1
 28.2354 -60 l 1
 28.2354 -140.992 l 1
 80.8652 -153.7 120 -201.132 120 -257.647 c 1
 63.5293 -257.647 l 1
 63.5293 -222.579 35.0684 -194.118 0 -194.118 c 0
 -35.0684 -194.118 -63.5293 -222.579 -63.5293 -257.647 c 1
 -120 -257.647 l 1
 -120 -201.132 -80.8652 -153.7 -28.2354 -140.992 c 1
EndSplineSet
Fore
SplineSet
35 -144 m 1
 83 -159 119 -205 119 -258 c 9
 57 -258 l 17
 57 -227 31 -201 0 -201 c 0
 -31 -201 -57 -227 -57 -258 c 9
 -119 -258 l 17
 -119 -205 -83 -159 -35 -144 c 1
 -35 -60 l 1
 35 -60 l 1
 35 -144 l 1
EndSplineSet
Validated: 1
EndChar

StartChar: uni0592
Encoding: 1426 1426 98
Width: 0
VWidth: 1000
Flags: W
HStem: 660 71<-100 -29 29 100> 784 70<-35 35>
VStem: -100 71<660 731> -35 70<784 854> 29 71<660 731>
LayerCount: 2
Back
SplineSet
-0.000976562 780 m 0
 -22.0811 780 -40.001 797.919 -40.001 819.998 c 0
 -40.001 842.079 -22.0811 859.998 -0.000976562 859.998 c 0
 22.082 859.998 40 842.079 40 819.998 c 0
 40 797.919 22.082 780 -0.000976562 780 c 0
-59.998 660 m 0
 -82.0801 660 -100 677.92 -100 700 c 0
 -100 722.078 -82.0801 740 -59.998 740 c 0
 -37.9189 740 -19.999 722.078 -19.999 700 c 0
 -19.999 677.92 -37.9189 660 -59.998 660 c 0
59.999 660 m 0
 37.9189 660 19.999 677.92 19.999 700 c 0
 19.999 722.078 37.9189 740 59.999 740 c 0
 82.0811 740 100 722.078 100 700 c 0
 100 677.92 82.0811 660 59.999 660 c 0
EndSplineSet
Fore
SplineSet
-100 660 m 5xe0
 -100 731 l 5
 -29 731 l 5
 -29 660 l 5
 -100 660 l 5xe0
29 660 m 5xc8
 29 731 l 5
 100 731 l 5
 100 660 l 5
 29 660 l 5xc8
-35 784 m 5xd0
 -35 854 l 5
 35 854 l 5
 35 784 l 5
 -35 784 l 5xd0
EndSplineSet
Validated: 1
EndChar

StartChar: uni0593
Encoding: 1427 1427 99
Width: 0
VWidth: 1000
Flags: W
HStem: 610 283
VStem: -86 172
LayerCount: 2
Back
SplineSet
7.05957 914.117 m 1
 91.7646 871.765 l 1
 7.05957 829.411 l 1
 91.7646 787.059 l 1
 7.05957 744.705 l 1
 91.7646 702.354 l 1
 7.05957 660 l 1
 -42.3525 684.705 l 1
 -7.05957 702.354 l 1
 -91.7646 744.705 l 1
 -7.05957 787.059 l 1
 -91.7646 829.411 l 1
 -7.05957 871.765 l 1
 -42.3525 889.411 l 1
 7.05957 914.117 l 1
EndSplineSet
Fore
SplineSet
86 831 m 1
 86 785 l 1
 -1 751 l 1
 86 718 l 1
 86 671 l 1
 -86 610 l 1
 -86 661 l 1
 1 695 l 1
 -86 728 l 1
 -86 775 l 1
 4 807 l 1
 -86 841 l 1
 -86 893 l 1
 86 831 l 1
EndSplineSet
Validated: 1
EndChar

StartChar: uni0594
Encoding: 1428 1428 100
Width: 0
VWidth: 1000
Flags: W
HStem: 660 71<-35 35> 784 70<-35 35>
VStem: -35 70<660 731 784 854>
LayerCount: 2
Back
SplineSet
-0.000976562 740 m 4
 22.0771 740 40.001 722.08 40.001 700.002 c 4
 40.001 677.923 22.0771 660 -0.000976562 660 c 4
 -22.0771 660 -40.001 677.923 -40.001 700.002 c 4
 -40.001 722.08 -22.0771 740 -0.000976562 740 c 4
-0.000976562 859.998 m 4
 22.0771 859.998 40.001 842.078 40.001 819.998 c 4
 40.001 797.92 22.0771 779.998 -0.000976562 779.998 c 4
 -22.0771 779.998 -40.001 797.92 -40.001 819.998 c 4
 -40.001 842.078 -22.0771 859.998 -0.000976562 859.998 c 4
EndSplineSet
Fore
SplineSet
-35 731 m 1
 35 731 l 1
 35 660 l 1
 -35 660 l 1
 -35 731 l 1
-35 854 m 1
 35 854 l 1
 35 784 l 1
 -35 784 l 1
 -35 854 l 1
EndSplineSet
Validated: 1
EndChar

StartChar: uni0595
Encoding: 1429 1429 101
Width: 0
VWidth: 1000
Flags: W
HStem: 660 71<26 98> 784 70<26 98>
VStem: -98 70<660 854> 26 72<660 731 784 854>
LayerCount: 2
Back
SplineSet
-94.002 864 m 5
 -33.999 863.934 l 5
 -33.999 660 l 5
 -94.002 660.067 l 5
 -94.002 864 l 5
54.001 740 m 0
 76.0781 740 94.002 722.08 94.002 700.002 c 0
 94.002 677.923 76.0781 660 54.001 660 c 0
 31.9238 660 14.001 677.923 14.001 700.002 c 0
 14.001 722.08 31.9238 740 54.001 740 c 0
54.001 859.998 m 0
 76.0781 859.998 94.002 842.078 94.002 819.998 c 0
 94.002 797.92 76.0781 779.998 54.001 779.998 c 0
 31.9238 779.998 14.001 797.92 14.001 819.998 c 0
 14.001 842.078 31.9238 859.998 54.001 859.998 c 0
EndSplineSet
Fore
SplineSet
26 731 m 1
 98 731 l 1
 98 660 l 1
 26 660 l 1
 26 731 l 1
26 854 m 1
 98 854 l 1
 98 784 l 1
 26 784 l 1
 26 854 l 1
-28 854 m 1
 -28 660 l 1
 -98 660 l 1
 -98 854 l 1
 -28 854 l 1
EndSplineSet
Validated: 1
EndChar

StartChar: uni0596
Encoding: 1430 1430 102
Width: 0
VWidth: 1000
Flags: W
HStem: -273 213
VStem: -82 76<-177.375 -60>
LayerCount: 2
Back
SplineSet
63.6279 -236.471 m 1
 35.3926 -271.766 l 1
 -29.3027 -221.751 -63.6279 -151.827 -63.6279 -70.0537 c 0
 -63.6279 -66.5195 -63.5693 -63.5312 -63.4297 -60 c 1
 -6.95996 -60 l 1
 -4.40723 -128.072 18.5312 -185.417 63.6279 -236.471 c 1
EndSplineSet
Fore
SplineSet
0 -273 m 21
 -55 -219 -82 -143 -82 -60 c 13
 -6 -60 l 21
 -6 -143 27 -219 82 -273 c 13
 0 -273 l 21
EndSplineSet
Validated: 1
EndChar

StartChar: uni0597
Encoding: 1431 1431 103
Width: 0
VWidth: 1000
Flags: W
HStem: 660 190
VStem: -95 190
LayerCount: 2
Back
SplineSet
-70.5889 754.117 m 1
 0 848.235 l 5
 70.5889 754.117 l 1
 0 660 l 1
 -70.5889 754.117 l 1
EndSplineSet
Fore
SplineSet
-95 755 m 5
 0 850 l 5
 95 755 l 5
 -0 660 l 5
 -95 755 l 5
EndSplineSet
Validated: 1
EndChar

StartChar: uni0598
Encoding: 1432 1432 104
Width: 0
VWidth: 1000
Flags: W
HStem: 650 59<31.3261 99.0916> 781 59<-99.0916 -31.3261>
VStem: -160 58<660 777.477> -29 58<712.523 777.477> 102 58<712.523 830>
CounterMasks: 1 38
LayerCount: 2
Back
SplineSet
99.3828 800 m 1
 148.915 800 l 1
 151.192 795 161.117 777.591 161.117 753.742 c 0
 161.117 701.996 119.121 660 67.377 660 c 0
 25.293 660 -10.3428 687.778 -22.1826 725.985 c 0
 -28.1328 745.409 -46.1074 759.601 -67.377 759.601 c 0
 -93.249 759.601 -114.247 738.604 -114.247 712.729 c 0
 -114.247 697.227 -103.117 675 -95.1172 664 c 1
 -147.458 664 l 1
 -154.06 677 -161.117 690.206 -161.117 712.729 c 0
 -161.117 764.475 -119.121 806.471 -67.377 806.471 c 0
 -24.3936 806.471 12.0195 777.908 23.0654 738.436 c 0
 29.4131 720.071 46.8623 706.871 67.377 706.871 c 0
 93.248 706.871 114.246 727.869 114.246 753.742 c 0
 114.246 768.766 107.883 787.679 99.3828 800 c 1
EndSplineSet
Fore
SplineSet
-102 660 m 25
 -160 660 l 25
 -160 691 -160 693 -160 745 c 0
 -160 797 -118 840 -66 840 c 0
 -14 840 29 797 29 745 c 0
 29 725 46 709 66 709 c 0
 86 709 102 725 102 745 c 0
 102 765 102 797 102 830 c 25
 160 830 l 25
 160 797 160 797 160 745 c 0
 160 693 118 650 66 650 c 0
 14 650 -29 693 -29 745 c 0
 -29 765 -46 781 -66 781 c 0
 -86 781 -102 765 -102 745 c 0
 -102 725 -102 693 -102 660 c 25
EndSplineSet
Validated: 1
EndChar

StartChar: uni0599
Encoding: 1433 1433 105
Width: 0
VWidth: 1000
Flags: W
HStem: 660 213
VStem: 6 76<660 777.375>
LayerCount: 2
Back
SplineSet
-63.6279 836.471 m 1
 -35.3926 871.766 l 1
 29.3027 821.751 63.6279 751.827 63.6279 670.054 c 0
 63.6279 666.52 63.5693 663.531 63.4297 660 c 1
 6.95996 660 l 1
 4.40723 728.072 -18.5312 785.417 -63.6279 836.471 c 1
EndSplineSet
Fore
SplineSet
-0 873 m 21
 55 819 82 743 82 660 c 9
 6 660 l 17
 6 743 -27 819 -82 873 c 9
 -0 873 l 21
EndSplineSet
Validated: 1
EndChar

StartChar: uni059A
Encoding: 1434 1434 106
Width: 0
VWidth: 1000
Flags: W
HStem: -282 244
VStem: -86 172
LayerCount: 2
Back
SplineSet
70.5879 -60 m 5
 127.059 -88.2354 l 5
 -14.1172 -158.823 l 5
 127.059 -229.412 l 5
 70.5879 -257.647 l 5
 -127.059 -158.823 l 5
 70.5879 -60 l 5
EndSplineSet
Fore
SplineSet
36 -38 m 1
 86 -88 l 1
 14 -160 l 1
 86 -232 l 1
 36 -282 l 1
 -86 -160 l 1
 36 -38 l 1
EndSplineSet
Validated: 1
EndChar

StartChar: uni059B
Encoding: 1435 1435 107
Width: 0
VWidth: 1000
Flags: W
HStem: -131 71<-109 -38>
VStem: -109 71<-131 -60> 33 76<-177.375 -60>
LayerCount: 2
Back
SplineSet
-58.834 -60 m 0
 -36.7559 -60 -18.833 -77.9199 -18.833 -100 c 0
 -18.833 -122.078 -36.7559 -140.001 -58.834 -140.001 c 0
 -80.9111 -140.001 -98.834 -122.078 -98.834 -100 c 0
 -98.834 -77.9199 -80.9111 -60 -58.834 -60 c 0
-28.4219 -236.471 m 1
 16.6748 -185.417 39.6133 -128.072 42.166 -60 c 1
 98.6357 -60 l 1
 98.7754 -63.5312 98.834 -66.5195 98.834 -70.0537 c 0
 98.834 -151.827 64.5088 -221.751 -0.186523 -271.766 c 1
 -28.4219 -236.471 l 1
EndSplineSet
Fore
SplineSet
-109 -60 m 1
 -38 -60 l 1
 -38 -131 l 1
 -109 -131 l 1
 -109 -60 l 1
26 -273 m 13
 -56 -273 l 17
 -1 -219 33 -143 33 -60 c 9
 109 -60 l 17
 109 -143 81 -219 26 -273 c 13
EndSplineSet
Validated: 1
EndChar

StartChar: uni059C
Encoding: 1436 1436 108
Width: 0
VWidth: 1000
Flags: W
HStem: 660 213
VStem: -82 76<660 777.375>
LayerCount: 2
Back
SplineSet
63.6279 836.471 m 5
 18.5312 785.417 -4.40723 728.072 -6.95996 660 c 5
 -63.4297 660 l 5
 -63.5693 663.531 -63.6279 666.52 -63.6279 670.054 c 4
 -63.6279 751.827 -29.3027 821.751 35.3926 871.766 c 5
 63.6279 836.471 l 5
EndSplineSet
Fore
SplineSet
0 873 m 13
 82 873 l 17
 27 819 -6 743 -6 660 c 9
 -82 660 l 17
 -82 743 -55 819 0 873 c 13
EndSplineSet
Validated: 1
EndChar

StartChar: uni059D
Encoding: 1437 1437 109
Width: 0
VWidth: 1000
Flags: W
HStem: 660 213
VStem: -82 76<660 777.375>
LayerCount: 2
Back
SplineSet
63.6279 836.471 m 5
 18.5312 785.417 -4.40723 728.072 -6.95996 660 c 5
 -63.4297 660 l 5
 -63.5693 663.531 -63.6279 666.52 -63.6279 670.054 c 4
 -63.6279 751.827 -29.3027 821.751 35.3926 871.766 c 5
 63.6279 836.471 l 5
EndSplineSet
Fore
SplineSet
0 873 m 13
 82 873 l 17
 27 819 -6 743 -6 660 c 9
 -82 660 l 17
 -82 743 -55 819 0 873 c 13
EndSplineSet
Validated: 1
EndChar

StartChar: uni059E
Encoding: 1438 1438 110
Width: 0
VWidth: 1000
Flags: W
HStem: 660 213
VStem: -152 76<660 777.375> -12 76<660 777.375>
LayerCount: 2
Back
SplineSet
125.294 836.471 m 5
 80.1973 785.417 57.2588 728.072 54.7061 660 c 5
 -1.76367 660 l 5
 -1.90332 663.531 -1.96191 666.52 -1.96191 670.054 c 4
 -1.96191 751.827 32.3633 821.751 97.0586 871.766 c 5
 125.294 836.471 l 5
1.96191 836.471 m 1
 -43.1348 785.417 -66.0732 728.072 -68.626 660 c 1
 -125.096 660 l 1
 -125.235 663.531 -125.294 666.52 -125.294 670.054 c 0
 -125.294 751.827 -90.9688 821.751 -26.2734 871.766 c 1
 1.96191 836.471 l 1
EndSplineSet
Fore
SplineSet
70 873 m 13
 152 873 l 17
 97 819 64 743 64 660 c 9
 -12 660 l 17
 -12 743 15 819 70 873 c 13
-70 873 m 13
 12 873 l 17
 -43 819 -76 743 -76 660 c 9
 -152 660 l 17
 -152 743 -125 819 -70 873 c 13
EndSplineSet
Validated: 1
EndChar

StartChar: uni059F
Encoding: 1439 1439 111
Width: 0
VWidth: 1000
Flags: W
HStem: 664 49<-203.983 -125.303 125.303 203.983> 804 50<-204.247 -125.369 125.369 204.247>
VStem: -260 50<719.369 798.247> -119 49<753 797.895> 70 49<753 797.895> 210 50<719.369 798.247>
LayerCount: 2
Back
SplineSet
134.382 815.294 m 0
 111.003 815.294 92.0293 796.32 92.0293 772.941 c 0
 92.0293 749.562 111.003 730.588 134.382 730.588 c 0
 157.761 730.588 176.735 749.562 176.735 772.941 c 0
 176.735 796.32 157.761 815.294 134.382 815.294 c 0
95.4385 705.763 m 1
 49.6758 660 l 1
 21.4404 688.235 l 1
 67.2021 733.997 l 1
 60.5479 745.447 56.7354 758.752 56.7354 772.941 c 0
 56.7354 815.803 91.5205 850.588 134.382 850.588 c 0
 177.242 850.588 212.03 815.803 212.03 772.941 c 0
 212.03 730.08 177.242 695.294 134.382 695.294 c 0
 120.192 695.294 106.89 699.106 95.4385 705.763 c 1
-134.383 815.294 m 0
 -157.762 815.294 -176.736 796.32 -176.736 772.941 c 0
 -176.736 749.562 -157.762 730.588 -134.383 730.588 c 0
 -111.005 730.588 -92.0303 749.562 -92.0303 772.941 c 0
 -92.0303 796.32 -111.005 815.294 -134.383 815.294 c 0
-95.4395 705.763 m 1
 -106.89 699.106 -120.193 695.294 -134.383 695.294 c 0
 -177.244 695.294 -212.03 730.08 -212.03 772.941 c 0
 -212.03 815.803 -177.244 850.588 -134.383 850.588 c 0
 -91.5215 850.588 -56.7363 815.803 -56.7363 772.941 c 0
 -56.7363 758.752 -60.5498 745.447 -67.2041 733.997 c 1
 -21.4414 688.235 l 1
 -49.6768 660 l 1
 -95.4395 705.763 l 1
EndSplineSet
Fore
SplineSet
165 804 m 0
 140 804 119 784 119 759 c 0
 119 734 140 713 165 713 c 0
 190 713 210 734 210 759 c 0
 210 784 190 804 165 804 c 0
100 689 m 1
 45 664 l 1
 15 728 l 1
 70 753 l 1
 70 755 70 757 70 759 c 0
 70 811 113 854 165 854 c 0
 217 854 260 811 260 759 c 0
 260 707 217 664 165 664 c 0
 140 664 117 673 100 689 c 1
-165 804 m 0
 -190 804 -210 784 -210 759 c 0
 -210 734 -190 713 -165 713 c 0
 -140 713 -119 734 -119 759 c 0
 -119 784 -140 804 -165 804 c 0
-100 689 m 1
 -117 673 -140 664 -165 664 c 0
 -217 664 -260 707 -260 759 c 0
 -260 811 -217 854 -165 854 c 0
 -113 854 -70 811 -70 759 c 0
 -70 757 -70 755 -70 753 c 1
 -15 728 l 1
 -45 664 l 1
 -100 689 l 1
EndSplineSet
Validated: 1
EndChar

StartChar: uni05A0
Encoding: 1440 1440 112
Width: 0
VWidth: 1000
Flags: W
HStem: 664 49<-12.0269 66.3564> 804 50<-12.2468 66.6309>
VStem: -68 50<753 797.895> 73 49<719.644 797.983>
LayerCount: 2
Back
SplineSet
17.6465 815.294 m 0
 -5.73242 815.294 -24.7061 796.32 -24.7061 772.941 c 0
 -24.7061 749.562 -5.73242 730.588 17.6465 730.588 c 0
 41.0254 730.588 60 749.562 60 772.941 c 0
 60 796.32 41.0254 815.294 17.6465 815.294 c 0
-21.2969 705.763 m 1
 -67.0596 660 l 1
 -95.2949 688.235 l 1
 -49.5322 733.997 l 1
 -56.1875 745.447 -60 758.752 -60 772.941 c 0
 -60 815.803 -25.2148 850.588 17.6465 850.588 c 0
 60.5078 850.588 95.2949 815.803 95.2949 772.941 c 0
 95.2949 730.08 60.5078 695.294 17.6465 695.294 c 0
 3.45703 695.294 -9.8457 699.106 -21.2969 705.763 c 1
EndSplineSet
Fore
SplineSet
27 804 m 0
 2 804 -18 784 -18 759 c 0
 -18 734 2 713 27 713 c 0
 52 713 73 734 73 759 c 0
 73 784 52 804 27 804 c 0
-37 689 m 1
 -92 664 l 1
 -122 728 l 1
 -67 753 l 1
 -67 755 -68 757 -68 759 c 0
 -68 811 -25 854 27 854 c 0
 79 854 122 811 122 759 c 0
 122 707 79 664 27 664 c 0
 2 664 -20 673 -37 689 c 1
EndSplineSet
Validated: 1
EndChar

StartChar: uni05A1
Encoding: 1441 1441 113
Width: 0
VWidth: 1000
Flags: W
HStem: 710 62<-42 37.6099>
VStem: -112 70<660 710 772 848> 50 62<782.984 848>
LayerCount: 2
Back
SplineSet
-31.7646 707.059 m 9
 -31.7627 660 l 1
 -88.2334 660 l 1
 -88.2354 826.765 l 1
 -31.7646 826.765 l 1
 -31.7354 764 l 17
 3.33301 764 31.7646 791.99 31.7646 827.059 c 1
 88.2354 827.059 l 1
 88.2354 760.818 34.4756 707.059 -31.7646 707.059 c 9
EndSplineSet
Fore
SplineSet
-42 710 m 1
 -42 660 l 1
 -112 660 l 1
 -112 848 l 1
 -42 848 l 1
 -42 772 l 1
 -6 772 l 2
 26 772 50 798 50 829 c 1
 50 848 l 1
 112 848 l 1
 112 829 l 1
 112 764 60 710 -6 710 c 2
 -42 710 l 1
EndSplineSet
Validated: 1
EndChar

StartChar: uni05A3
Encoding: 1443 1443 114
Width: 0
VWidth: 1000
Flags: W
HStem: -260 71<-125 55>
VStem: 55 70<-189 -60>
LayerCount: 2
Back
SplineSet
-117 -260 m 1
 -117 -199.999 l 1
 56.998 -199.999 l 5
 56.998 -60.0068 l 5
 117 -60.0068 l 5
 116.999 -260 l 5
 -117 -260 l 1
EndSplineSet
Fore
SplineSet
125 -60 m 1
 125 -260 l 1
 -125 -260 l 1
 -125 -189 l 1
 55 -189 l 1
 55 -60 l 1
 125 -60 l 1
EndSplineSet
Validated: 1
EndChar

StartChar: uni05A4
Encoding: 1444 1444 115
Width: 0
VWidth: 1000
Flags: W
HStem: -282 244
VStem: -86 172
LayerCount: 2
Back
SplineSet
70.5879 -60 m 5
 127.059 -88.2354 l 5
 -14.1172 -158.823 l 5
 127.059 -229.412 l 5
 70.5879 -257.647 l 5
 -127.059 -158.823 l 5
 70.5879 -60 l 5
EndSplineSet
Fore
SplineSet
36 -38 m 1
 86 -88 l 1
 14 -160 l 1
 86 -232 l 1
 36 -282 l 1
 -86 -160 l 1
 36 -38 l 1
EndSplineSet
Validated: 1
EndChar

StartChar: uni05A5
Encoding: 1445 1445 116
Width: 0
VWidth: 1000
Flags: W
HStem: -273 213
VStem: 6 76<-177.375 -60>
LayerCount: 2
Back
SplineSet
-63.6279 -236.471 m 1
 -18.5312 -185.417 4.40723 -128.072 6.95996 -60 c 1
 63.4297 -60 l 1
 63.5693 -63.5312 63.6279 -66.5195 63.6279 -70.0537 c 0
 63.6279 -151.827 29.3027 -221.751 -35.3926 -271.766 c 1
 -63.6279 -236.471 l 1
EndSplineSet
Fore
SplineSet
-0 -273 m 13
 -82 -273 l 17
 -27 -219 6 -143 6 -60 c 9
 82 -60 l 17
 82 -143 55 -219 -0 -273 c 13
EndSplineSet
Validated: 1
EndChar

StartChar: uni05A6
Encoding: 1446 1446 117
Width: 0
VWidth: 1000
Flags: W
HStem: -273 213
VStem: -64 76<-177.375 -60> 76 76<-177.375 -60>
LayerCount: 2
Back
SplineSet
-125.294 -236.471 m 5
 -80.1973 -185.417 -57.2588 -128.072 -54.7061 -60 c 5
 1.76367 -60 l 5
 1.90332 -63.5312 1.96191 -66.5195 1.96191 -70.0537 c 4
 1.96191 -151.827 -32.3633 -221.751 -97.0586 -271.766 c 5
 -125.294 -236.471 l 5
-1.96191 -236.471 m 5
 43.1348 -185.417 66.0732 -128.072 68.626 -60 c 5
 125.096 -60 l 5
 125.235 -63.5312 125.294 -66.5195 125.294 -70.0537 c 4
 125.294 -151.827 90.9688 -221.751 26.2734 -271.766 c 5
 -1.96191 -236.471 l 5
EndSplineSet
Fore
SplineSet
-70 -273 m 13
 -152 -273 l 17
 -97 -219 -64 -143 -64 -60 c 9
 12 -60 l 17
 12 -143 -15 -219 -70 -273 c 13
70 -273 m 13
 -12 -273 l 17
 43 -219 76 -143 76 -60 c 9
 152 -60 l 17
 152 -143 125 -219 70 -273 c 13
EndSplineSet
Validated: 1
EndChar

StartChar: uni05A7
Encoding: 1447 1447 118
Width: 0
VWidth: 1000
Flags: W
HStem: -258 57<-99 14> -116 56<-14 99>
VStem: -99 198<-258 -201 -116 -60>
LayerCount: 2
Back
SplineSet
77.6465 -60 m 5
 105.883 -116.471 l 5
 -7.05957 -116.471 l 5
 91.7637 -201.177 l 5
 63.5283 -257.647 l 5
 -77.6475 -257.647 l 5
 -105.883 -201.177 l 5
 7.05762 -201.177 l 5
 -91.7656 -116.471 l 5
 -63.5303 -60 l 5
 77.6465 -60 l 5
EndSplineSet
Fore
SplineSet
99 -60 m 1
 99 -116 l 1
 -14 -116 l 1
 99 -201 l 1
 99 -258 l 1
 -99 -258 l 1
 -99 -201 l 1
 14 -201 l 1
 -99 -116 l 1
 -99 -60 l 1
 99 -60 l 1
EndSplineSet
Validated: 1
EndChar

StartChar: uni05A8
Encoding: 1448 1448 119
Width: 0
VWidth: 1000
Flags: W
HStem: 660 213
VStem: 6 76<660 777.375>
LayerCount: 2
Back
SplineSet
-63.6279 836.471 m 1
 -35.3926 871.766 l 1
 29.3027 821.751 63.6279 751.827 63.6279 670.054 c 0
 63.6279 666.52 63.5693 663.531 63.4297 660 c 1
 6.95996 660 l 1
 4.40723 728.072 -18.5312 785.417 -63.6279 836.471 c 1
EndSplineSet
Fore
SplineSet
-0 873 m 21
 55 819 82 743 82 660 c 9
 6 660 l 17
 6 743 -27 819 -82 873 c 9
 -0 873 l 21
EndSplineSet
Validated: 1
EndChar

StartChar: uni05A9
Encoding: 1449 1449 120
Width: 0
VWidth: 1000
Flags: W
HStem: 664 49<-66.3564 12.0269> 804 50<-66.6309 12.2468>
VStem: -122 49<719.644 797.983> 18 50<753 797.895>
LayerCount: 2
Back
SplineSet
-17.6475 815.294 m 0
 -41.0264 815.294 -60.001 796.32 -60.001 772.941 c 0
 -60.001 749.562 -41.0264 730.588 -17.6475 730.588 c 0
 5.73145 730.588 24.7051 749.562 24.7051 772.941 c 0
 24.7051 796.32 5.73145 815.294 -17.6475 815.294 c 0
21.2969 705.763 m 1
 9.84668 699.106 -3.45801 695.294 -17.6475 695.294 c 0
 -60.5088 695.294 -95.2949 730.08 -95.2949 772.941 c 0
 -95.2949 815.803 -60.5088 850.588 -17.6475 850.588 c 0
 25.2148 850.588 59.999 815.803 59.999 772.941 c 0
 59.999 758.752 56.1865 745.447 49.5312 733.997 c 1
 95.2949 688.235 l 1
 67.0596 660 l 1
 21.2969 705.763 l 1
EndSplineSet
Fore
SplineSet
-27 804 m 0
 -52 804 -73 784 -73 759 c 0
 -73 734 -52 713 -27 713 c 0
 -2 713 18 734 18 759 c 0
 18 784 -2 804 -27 804 c 0
37 689 m 1
 20 673 -2 664 -27 664 c 0
 -79 664 -122 707 -122 759 c 0
 -122 811 -79 854 -27 854 c 0
 25 854 68 811 68 759 c 0
 68 757 67 755 67 753 c 1
 122 728 l 1
 92 664 l 1
 37 689 l 1
EndSplineSet
Validated: 1
EndChar

StartChar: uni05AA
Encoding: 1450 1450 121
Width: 0
VWidth: 1000
Flags: W
HStem: -179 62<-44.6419 44.6419>
VStem: -119 62<-103.749 -60> 57 62<-103.749 -60>
LayerCount: 2
Back
SplineSet
35 -173.626 m 5
 35 -258 l 5
 -35 -258 l 5
 -35 -173.626 l 5
 -83.293 -158.438 -119 -112.855 -119 -60 c 9
 -57 -60 l 17
 -57 -91 -31 -117 0 -117 c 0
 31 -117 57 -91 57 -60 c 9
 119 -60 l 17
 119 -112.855 83.293 -158.438 35 -173.626 c 5
EndSplineSet
Fore
SplineSet
-119 -60 m 9
 -57 -60 l 17
 -57 -91 -31 -117 0 -117 c 0
 31 -117 57 -91 57 -60 c 9
 119 -60 l 16
 119 -126 66 -179 0 -179 c 0
 -66 -179 -119 -126 -119 -60 c 9
EndSplineSet
Validated: 1
EndChar

StartChar: uni05AB
Encoding: 1451 1451 122
Width: 0
VWidth: 1000
Flags: W
HStem: 636 244
VStem: -86 172
LayerCount: 2
Back
SplineSet
70.5879 857.646 m 5
 127.059 829.412 l 5
 -14.1172 758.824 l 5
 127.059 688.235 l 5
 70.5879 660 l 5
 -127.059 758.824 l 5
 70.5879 857.646 l 5
EndSplineSet
Fore
SplineSet
36 880 m 5
 86 830 l 5
 14 758 l 5
 86 686 l 5
 36 636 l 5
 -86 758 l 5
 36 880 l 5
EndSplineSet
Validated: 1
EndChar

StartChar: uni05AC
Encoding: 1452 1452 123
Width: 0
VWidth: 1000
Flags: W
HStem: 660 71<-125 55>
VStem: 55 70<731 860>
LayerCount: 2
Back
SplineSet
-117 660 m 5
 -117 720.001 l 5
 56.998 720.001 l 5
 56.998 859.993 l 5
 117 859.993 l 5
 116.999 660 l 5
 -117 660 l 5
EndSplineSet
Fore
SplineSet
125 860 m 1
 125 660 l 1
 -125 660 l 1
 -125 731 l 1
 55 731 l 1
 55 860 l 1
 125 860 l 1
EndSplineSet
Validated: 1
EndChar

StartChar: uni05AD
Encoding: 1453 1453 124
Width: 0
VWidth: 1000
Flags: W
HStem: -273 213
VStem: -82 76<-177.375 -60>
LayerCount: 2
Back
SplineSet
63.6279 -236.471 m 1
 35.3926 -271.766 l 1
 -29.3027 -221.751 -63.6279 -151.827 -63.6279 -70.0537 c 0
 -63.6279 -66.5195 -63.5693 -63.5312 -63.4297 -60 c 1
 -6.95996 -60 l 1
 -4.40723 -128.072 18.5312 -185.417 63.6279 -236.471 c 1
EndSplineSet
Fore
SplineSet
0 -273 m 21
 -55 -219 -82 -143 -82 -60 c 9
 -6 -60 l 17
 -6 -143 27 -219 82 -273 c 9
 0 -273 l 21
EndSplineSet
Validated: 1
EndChar

StartChar: uni05AE
Encoding: 1454 1454 125
Width: 0
VWidth: 1000
Flags: W
HStem: 650 59<31.3261 99.0916> 781 59<-99.0916 -31.3261>
VStem: -160 58<660 777.477> -29 58<712.523 777.477> 102 58<712.523 830>
CounterMasks: 1 38
LayerCount: 2
Back
SplineSet
99.3828 800 m 1
 148.915 800 l 1
 151.192 795 161.117 777.591 161.117 753.742 c 0
 161.117 701.996 119.121 660 67.377 660 c 0
 25.293 660 -10.3428 687.778 -22.1826 725.985 c 0
 -28.1328 745.409 -46.1074 759.601 -67.377 759.601 c 0
 -93.249 759.601 -114.247 738.604 -114.247 712.729 c 0
 -114.247 697.227 -103.117 675 -95.1172 664 c 1
 -147.458 664 l 1
 -154.06 677 -161.117 690.206 -161.117 712.729 c 0
 -161.117 764.475 -119.121 806.471 -67.377 806.471 c 0
 -24.3936 806.471 12.0195 777.908 23.0654 738.436 c 0
 29.4131 720.071 46.8623 706.871 67.377 706.871 c 0
 93.248 706.871 114.246 727.869 114.246 753.742 c 0
 114.246 768.766 107.883 787.679 99.3828 800 c 1
EndSplineSet
Fore
SplineSet
-102 660 m 25
 -160 660 l 25
 -160 691 -160 693 -160 745 c 0
 -160 797 -118 840 -66 840 c 0
 -14 840 29 797 29 745 c 0
 29 725 46 709 66 709 c 0
 86 709 102 725 102 745 c 0
 102 765 102 797 102 830 c 25
 160 830 l 25
 160 797 160 797 160 745 c 0
 160 693 118 650 66 650 c 0
 14 650 -29 693 -29 745 c 0
 -29 765 -46 781 -66 781 c 0
 -86 781 -102 765 -102 745 c 0
 -102 725 -102 693 -102 660 c 25
EndSplineSet
Validated: 1
EndChar

StartChar: uni05AF
Encoding: 1455 1455 126
Width: 0
VWidth: 1000
Flags: W
HStem: 640 62<-45.7753 45.7753> 816 61<-45.7753 45.7753>
VStem: -119 62<713.225 804.697> 57 62<713.225 804.697>
LayerCount: 2
Back
SplineSet
0 808.235 m 0
 -27.2754 808.235 -49.4121 786.099 -49.4121 758.823 c 0
 -49.4121 731.548 -27.2754 709.412 0 709.412 c 0
 27.2754 709.412 49.4121 731.548 49.4121 758.823 c 0
 49.4121 786.099 27.2754 808.235 0 808.235 c 0
0 857.646 m 0
 54.5508 857.646 98.8232 813.374 98.8232 758.823 c 0
 98.8232 704.273 54.5508 660 0 660 c 0
 -54.5508 660 -98.8232 704.273 -98.8232 758.823 c 0
 -98.8232 813.374 -54.5508 857.646 0 857.646 c 0
EndSplineSet
Fore
SplineSet
0 816 m 0
 -31 816 -57 790 -57 759 c 0
 -57 728 -31 702 0 702 c 4
 31 702 57 728 57 759 c 4
 57 790 31 816 0 816 c 0
0 877 m 0
 65 877 119 824 119 759 c 4
 119 694 65 640 0 640 c 4
 -65 640 -119 694 -119 759 c 0
 -119 824 -65 877 0 877 c 0
EndSplineSet
Validated: 1
EndChar

StartChar: afii57674
Encoding: 1498 1498 127
Width: 516
VWidth: 1000
Flags: W
HStem: -200 21G<379 466> 524 76<30 298.353>
VStem: 379 87<-200 446.115>
AnchorPoint: "DiaToBaseD" 236 0 basechar 0
AnchorPoint: "DiaToBaseU" 248 0 basechar 0
AnchorPoint: "DiaToBase3" 248 0 basechar 0
AnchorPoint: "DiaToBase2" 248 0 basechar 0
AnchorPoint: "DiaToBase1" 248 0 basechar 0
LayerCount: 2
Back
SplineSet
392 372 m 134
 392 456 315 524 221 524 c 6
 43 524 l 1
 43 600 l 1
 228 600 l 6
 367 600 479 501 479 378 c 134
 479 -200 l 1
 392 -200 l 1
 392 372 l 134
EndSplineSet
Fore
SplineSet
379 324 m 2
 379 354 376 394 368 418 c 0
 360 442 347 464 327 481 c 0
 307 498 283 509 255 516 c 0
 234 521 211 524 181 524 c 2
 30 524 l 1
 30 600 l 1
 171 600 l 2
 211 600 241 598 273 592 c 0
 316 584 352 568 383 543 c 0
 415 517 438 485 451 448 c 0
 465 408 466 354 466 308 c 2
 466 -200 l 1
 379 -200 l 1
 379 324 l 2
EndSplineSet
Validated: 1
Comment: "%DiaToBase1+AD0A-248+AAoA%DiaToBase2+AD0A-248+AAoA%DiaToBase3+AD0A-248+AAoA%DiaToBaseO+AD0A-0+AAoA%DiaToBaseU+AD0A-248+AAoA" 
EndChar

StartChar: afii57675
Encoding: 1499 1499 128
Width: 520
VWidth: 1000
Flags: W
HStem: 0 76<60 311.46> 524 76<60 311.46>
VStem: 392 88<152.012 447.988>
AnchorPoint: "DiaToBaseD" 255 0 basechar 0
AnchorPoint: "DiaToBaseU" 270 0 basechar 0
AnchorPoint: "DiaToBase3" 270 0 basechar 0
AnchorPoint: "DiaToBase2" 260 0 basechar 0
AnchorPoint: "DiaToBase1" 260 0 basechar 0
LayerCount: 2
Back
SplineSet
434 229 m 134
 434 371 l 134
 434 455 341 524 226 524 c 6
 62 524 l 1
 62 600 l 1
 232 600 l 6
 392 600 521 501 521 378 c 134
 521 222 l 134
 521 99 392 0 232 0 c 134
 62 0 l 1
 62 76 l 1
 226 76 l 134
 341 76 434 145 434 229 c 134
EndSplineSet
Fore
SplineSet
184 0 m 2
 60 0 l 1
 60 76 l 1
 194 76 l 2
 222 76 247 79 268 84 c 0
 296 91 321 102 341 119 c 0
 361 136 374 157 382 181 c 0
 390 205 392 246 392 276 c 2
 392 324 l 2
 392 354 390 394 382 418 c 0
 374 442 361 464 341 481 c 0
 321 498 296 509 268 516 c 0
 247 521 222 524 194 524 c 2
 60 524 l 1
 60 600 l 1
 184 600 l 2
 223 600 254 598 286 592 c 0
 329 584 366 568 397 543 c 0
 429 517 451 485 464 448 c 0
 478 408 480 355 480 308 c 2
 480 291 l 2
 480 244 478 192 464 152 c 0
 451 115 429 83 397 57 c 0
 366 32 329 16 286 8 c 0
 254 2 222 0 184 0 c 2
EndSplineSet
Validated: 1
Substitution2: "WideLetters" uniFB24
Comment: "%DiaToBase1+AD0A-260+AAoA%DiaToBase2+AD0A-260+AAoA%DiaToBase3+AD0A-270+AAoA%DiaToBaseO+AD0A-0+AAoA%DiaToBaseU+AD0A-270+AAoA" 
EndChar

StartChar: afii57676
Encoding: 1500 1500 129
Width: 573
VWidth: 1000
Flags: W
HStem: 0 76<226 347.375> 524 76<129 430> 730 20G<42 129>
VStem: 42 87<600 750>
AnchorPoint: "DiaToBaseD" 286 3 basechar 0
AnchorPoint: "DiaToBaseO" -60 0 basechar 0
AnchorPoint: "DiaToBaseU" 282 0 basechar 0
AnchorPoint: "DiaToBase3" 282 0 basechar 0
AnchorPoint: "DiaToBase2" 290 0 basechar 0
AnchorPoint: "DiaToBase1" 282 0 basechar 0
LayerCount: 2
Back
SplineSet
430 524 m 1
 42 524 l 1
 42 750 l 1
 129 750 l 1
 129 600 l 1
 523 600 l 1
 500 263 l 2
 497 215 487 161 470 121 c 0
 454 84 432 54 400 32 c 0
 371 12 339 3 301 0 c 1
 226 0 l 25
 226 76 l 29
 280 76 l 17
 309 81 337 94 354 111 c 0
 372 128 385 151 394 177 c 0
 403 204 412 248 414 282 c 2
 430 524 l 1
EndSplineSet
Fore
SplineSet
430 524 m 1
 42 524 l 1
 42 750 l 1
 129 750 l 1
 129 600 l 1
 523 600 l 1
 502 300 l 6
 497 225 487 161 470 121 c 4
 454 84 432 54 400 32 c 4
 371 12 330 0 276 0 c 6
 226 0 l 25
 226 76 l 25
 268 76 l 22
 311 76 339 89 356 106 c 4
 374 123 387 150 396 176 c 4
 407 208 412 246 414 282 c 6
 430 524 l 1
EndSplineSet
Validated: 1
Substitution2: "WideLetters" uniFB25
Comment: "%DiaToBase1+AD0A-282+AAoA%DiaToBase2+AD0A-290+AAoA%DiaToBase3+AD0A-282+AAoA%DiaToBaseO+AD0A--60+AAoA%DiaToBaseU+AD0A-282+AAoA" 
EndChar

StartChar: afii57677
Encoding: 1501 1501 130
Width: 653
VWidth: 1000
Flags: W
HStem: 0 76<162 496> 524 76<162 444.412>
VStem: 75 87<76 524> 496 87<76 474.79>
AnchorPoint: "DiaToBaseD" 0 0 basechar 0
AnchorPoint: "DiaToBaseU" 329 0 basechar 0
AnchorPoint: "DiaToBase3" 329 0 basechar 0
AnchorPoint: "DiaToBase2" 329 0 basechar 0
AnchorPoint: "DiaToBase1" 329 0 basechar 0
LayerCount: 2
Back
SplineSet
320.123 524 m 6
 155 524 l 1
 155 76 l 1
 469 76 l 1
 469 373.625 l 6
 469 396.125 466.75 426.5 460.75 444.875 c 4
 454.858 462.919 445.104 478.646 430.375 491.448 c 4
 415.339 504.518 396.803 513.047 376 518 c 4
 360.25 521.75 342.25 524 320.123 524 c 6
67.999 349.507 m 2
 68 377 68.5 404 71.9473 430 c 0
 76.2529 462.477 85.5 493.5 102.5 524 c 1
 58 524 l 1
 58 600 l 1
 319.6 600 l 6
 351.2 600 376 598.4 401.6 593.6 c 4
 435.69 587.208 465.061 574.187 490 554.24 c 4
 515.529 533.821 533.154 507.846 543.6 478 c 4
 554.8 446 556 404 556 366.8 c 6
 556 0 l 1
 68 0 l 1
 67.999 349.507 l 2
EndSplineSet
Fore
SplineSet
347 524 m 6
 162 524 l 1
 162 76 l 1
 496 76 l 1
 496 374 l 6
 496 396 494 427 488 445 c 4
 482 463 472 478 457 491 c 4
 442 504 424 513 403 518 c 4
 387 522 369 524 347 524 c 6
347 600 m 6
 379 600 403 599 429 594 c 4
 463 588 492 574 517 554 c 4
 543 534 561 508 571 478 c 4
 582 446 583 404 583 367 c 6
 583 0 l 1
 75 0 l 1
 75 600 l 1
 347 600 l 6
EndSplineSet
Validated: 1
Substitution2: "WideLetters" uniFB26
Comment: "%DiaToBase1+AD0A-329+AAoA%DiaToBase2+AD0A-329+AAoA%DiaToBase3+AD0A-329+AAoA%DiaToBaseO+AD0A-0+AAoA%DiaToBaseU+AD0A-329+AAoA" 
EndChar

StartChar: afii57678
Encoding: 1502 1502 131
Width: 653
VWidth: 1000
Flags: HMW
HStem: 0 76<282.381 509.149> 524 76<84.1494 179.299 235.626 420.905>
VStem: 84 20 496.149 89<184.226 449.623> 509.149 87<76 224.045>
AnchorPoint: "DiaToBaseD" 349 0 basechar 0
AnchorPoint: "DiaToBaseU" 350 0 basechar 0
AnchorPoint: "DiaToBase3" 350 0 basechar 0
AnchorPoint: "DiaToBase2" 350 0 basechar 0
AnchorPoint: "DiaToBase1" 350 0 basechar 0
LayerCount: 2
Back
SplineSet
186.149 524 m 1xe0
 96 524 l 1
 96 600 l 1
 307 600 l 2
 345 600 374 598 404 592 c 0
 444 584 479 570 509 546 c 0
 539 522 561 490 573 455 c 0
 586 417 590 374 592 323 c 2xe0
 603 0 l 1
 281.673 0 l 1
 289.231 76 l 1
 516 76 l 1xd0
 503 338 l 2
 501 373 497 403 490 426 c 0
 483 448 470 468 452 484 c 0
 433 500 411 511 385 517 c 0
 365 522 344 524 316 524 c 2
 246.649 524 l 1
 226.84 486.5 214.853 452.475 206.825 414.5 c 0
 197.841 372 192.69 334.166 188.583 293 c 2
 159.351 0 l 1
 71.8506 0 l 1
 95.417 231 l 2
 99.8926 275.439 105.7 325 115.222 376 c 0
 125.964 433.542 154.016 482 186.149 524 c 1xe0
EndSplineSet
Fore
SplineSet
179.299 524 m 1xd0
 84 524 l 5
 84 600 l 1
 300.149 600 l 2
 338.149 600 367.149 598 397.149 592 c 0
 437.149 584 472.149 570 502.149 546 c 0
 532.149 522 554.149 490 566.149 455 c 0
 579.149 417 583.149 374 585.149 323 c 2xd0
 596.149 0 l 1
 274.822 0 l 1
 282.381 76 l 1
 509.149 76 l 1xc8
 496.149 338 l 2
 494.149 373 490.149 403 483.149 426 c 0
 476.149 448 463.149 468 445.149 484 c 0
 426.149 500 404.149 511 378.149 517 c 0
 358.149 522 337.147 524 309.149 524 c 2
 247.075 524 l 1
 223.304 479 208.919 438.17 199.286 392.601 c 0
 188.505 341.601 182.323 296.199 177.396 246.801 c 2
 152.5 0 l 1
 65 0 l 1
 88.5664 231 l 2
 93.042 275.439 98.8496 325 108.371 376 c 0
 119.113 433.542 143.075 484 179.299 524 c 1xd0
EndSplineSet
Validated: 1
Comment: "%DiaToBase1+AD0A-350+AAoA%DiaToBase2+AD0A-350+AAoA%DiaToBase3+AD0A-350+AAoA%DiaToBaseO+AD0A-0+AAoA%DiaToBaseU+AD0A-350+AAoA" 
EndChar

StartChar: afii57679
Encoding: 1503 1503 132
Width: 262
VWidth: 1000
Flags: W
HStem: -200 21G<85 172> 580 20G<85 172>
VStem: 85 87<-200 600>
AnchorPoint: "DiaToBaseD" 65 0 basechar 0
AnchorPoint: "DiaToBaseU" 128 0 basechar 0
AnchorPoint: "DiaToBase3" 128 0 basechar 0
AnchorPoint: "DiaToBase2" 128 0 basechar 0
AnchorPoint: "DiaToBase1" 128 0 basechar 0
LayerCount: 2
Fore
SplineSet
85 -200 m 1
 85 600 l 1
 172 600 l 1
 172 -200 l 5
 85 -200 l 1
EndSplineSet
Validated: 1
Comment: "%DiaToBase1+AD0A-128+AAoA%DiaToBase2+AD0A-128+AAoA%DiaToBase3+AD0A-128+AAoA%DiaToBaseO+AD0A-0+AAoA%DiaToBaseU+AD0A-128+AAoA" 
EndChar

StartChar: afii57680
Encoding: 1504 1504 133
Width: 405
VWidth: 1000
Flags: W
HStem: 0 76<60 248> 524 76<74 196.412>
VStem: 248 87<76 474.79>
AnchorPoint: "DiaToBaseD" 147 0 basechar 0
AnchorPoint: "DiaToBaseU" 197 0 basechar 0
AnchorPoint: "DiaToBase3" 197 0 basechar 0
AnchorPoint: "DiaToBase2" 197 0 basechar 0
AnchorPoint: "DiaToBase1" 197 0 basechar 0
LayerCount: 2
Back
SplineSet
84 524 m 2
 70 524 l 9
 70 600 l 17
 92 600 l 2
 216 600 331 501 331 378 c 130
 331 0 l 1
 56 0 l 1
 56 76 l 1
 244 76 l 1
 244 372 l 130
 244 456 167 524 84 524 c 2
EndSplineSet
Fore
SplineSet
99 524 m 2
 74 524 l 9
 74 600 l 17
 99 600 l 2
 131 600 155 599 181 594 c 0
 215 588 244 574 269 554 c 0
 295 534 313 508 323 478 c 0
 334 446 335 404 335 367 c 2
 335 0 l 1
 60 0 l 1
 60 76 l 1
 248 76 l 1
 248 374 l 2
 248 396 246 427 240 445 c 0
 234 463 224 478 209 491 c 0
 194 504 176 513 155 518 c 0
 139 522 121 524 99 524 c 2
EndSplineSet
Validated: 1
Comment: "%DiaToBase1+AD0A-197+AAoA%DiaToBase2+AD0A-197+AAoA%DiaToBase3+AD0A-197+AAoA%DiaToBaseO+AD0A-0+AAoA%DiaToBaseU+AD0A-197+AAoA" 
EndChar

StartChar: afii57681
Encoding: 1505 1505 134
Width: 613
VWidth: 1000
Flags: W
HStem: -8 76<224.85 403.15> 524 76<147 419.635>
VStem: 60 87<144.513 524> 481 87<144.513 466.335>
AnchorPoint: "DiaToBaseD" 313 -0 basechar 0
AnchorPoint: "DiaToBaseU" 300 0 basechar 0
AnchorPoint: "DiaToBase3" 314 0 basechar 0
AnchorPoint: "DiaToBase2" 314 0 basechar 0
AnchorPoint: "DiaToBase1" 314 0 basechar 0
LayerCount: 2
Back
SplineSet
288.508 524 m 2
 153 524 l 1
 153 283.5 l 2
 153 236.5 152.144 195.206 170 156 c 0
 193 105.5 253.136 68 320 68 c 0
 386.863 68 447 105.5 470 156 c 0
 487.856 195.206 486.999 236.499 487 283.5 c 2
 487.001 323.503 l 2
 486.999 354.5 484.003 394 476.003 418.5 c 4
 468.146 442.56 455.141 463.528 435.503 480.599 c 4
 415.455 498.023 390.74 509.396 363.003 516 c 4
 342.003 521 318.003 524 288.508 524 c 2
65.998 349.5 m 2
 66 378 66.5 404 69.9473 430 c 0
 74.2529 462.477 83.5 493.5 100.5 524 c 1
 56 524 l 1
 56 600 l 1
 278.506 600 l 2
 317.506 600 349.003 598 381.003 592 c 4
 423.615 584.011 460.328 567.733 491.503 542.8 c 4
 523.414 517.277 545.445 484.808 558.503 447.5 c 4
 572.503 407.5 573.991 354.5 574 308.5 c 2
 574 294.5 l 2
 574 233 574 171.5 546.5 117.5 c 0
 509.158 44.1729 419.536 -8 320 -8 c 0
 220.464 -8 130.842 44.1733 93.5 117.5 c 0
 66 171.5 66.002 232.498 66 294.5 c 2
 65.998 349.5 l 2
EndSplineSet
Fore
SplineSet
481 359 m 2
 481 384 478 417 471 437 c 0
 465 457 454 474 438 488 c 0
 421 502 401 512 378 517 c 0
 361 521 341 524 317 524 c 2
 147 524 l 1
 147 284 l 2
 147 237 146 195 164 156 c 0
 187 106 247 68 314 68 c 0
 381 68 441 106 464 156 c 0
 482 195 481 237 481 284 c 2
 481 359 l 2
60 600 m 1
 313 600 l 2
 347 600 373 598 401 593 c 0
 438 586 470 573 497 551 c 0
 525 529 544 500 555 468 c 0
 567 433 568 389 568 348 c 2
 568 294 l 2
 568 233 568 172 540 118 c 0
 503 45 414 -8 314 -8 c 0
 214 -8 125 45 88 118 c 0
 60 172 60 232 60 294 c 2
 60 600 l 1
EndSplineSet
Validated: 33
Comment: "%DiaToBase1+AD0A-314+AAoA%DiaToBase2+AD0A-314+AAoA%DiaToBase3+AD0A-314+AAoA%DiaToBaseO+AD0A-0+AAoA%DiaToBaseU+AD0A-300+AAoA" 
EndChar

StartChar: afii57682
Encoding: 1506 1506 135
Width: 609
VWidth: 1000
Flags: W
HStem: 580 20G<55 148.483 475.567 564>
AnchorPoint: "DiaToBaseD" 0 0 basechar 0
LayerCount: 2
Back
SplineSet
210 67 m 5
 90 600 l 5
 179 600 l 5
 294 88 l 5
 309 92 l 2
 400 115 449 175 449 268 c 10
 449 600 l 1
 536 600 l 1
 536 267 l 18
 536 130 447 49 333 20 c 2
 41 -55 l 1
 42 24 l 1
 210 67 l 5
EndSplineSet
Fore
SplineSet
313 92 m 6
 398 115 446 168 452 251 c 6
 477 600 l 5
 564 600 l 5
 539 246 l 6
 530 122 445 47 337 20 c 6
 45 -55 l 5
 46 24 l 5
 177 57 l 5
 55 600 l 5
 144 600 l 5
 261 78 l 5
 313 92 l 6
EndSplineSet
Validated: 1
Substitution2: "Single Substitution lookup 11 subtable" uniFB20
Substitution2: "MiscSAlt" uniFB20
Comment: "%DiaToBaseO+AD0A-0+AAoA" 
EndChar

StartChar: afii57683
Encoding: 1507 1507 136
Width: 590
VWidth: 1000
Flags: W
HStem: -200 21G<453 540> 203 76<170.506 289> 524 76<147 398.441>
VStem: 60 87<303.388 524> 453 87<-200 473.404>
AnchorPoint: "DiaToBaseD" 348 69 basechar 0
AnchorPoint: "DiaToBaseU" 300 0 basechar 0
AnchorPoint: "DiaToBase3" 300 0 basechar 0
AnchorPoint: "DiaToBase2" 300 0 basechar 0
AnchorPoint: "DiaToBase1" 300 0 basechar 0
LayerCount: 2
Back
SplineSet
68 430 m 10
 68 600 l 1
 262.05 600 l 2
 296.7 600 325.5 598.4 354.3 593.6 c 0
 392.652 587.208 425.692 574.187 453.75 554.24 c 0
 482.47 533.82 502.298 507.846 514.05 478 c 0
 526.65 446 528 404.1 528 366.8 c 2
 528 -200 l 1
 441 -200 l 1
 441 373.625 l 2
 441 396.501 438.6 426.5 432.2 444.875 c 0
 425.916 462.919 415.51 478.646 399.8 491.448 c 0
 383.762 504.518 363.99 513.047 341.8 518 c 0
 325 521.75 305 524 282.2 524 c 2
 155 524 l 1
 155.016 397.195 l 2
 155.018 385.3 156.648 369.7 161 360.146 c 0
 165.273 350.763 172.35 342.584 183.032 335.927 c 0
 193.938 329.131 207.383 324.696 222.472 322.12 c 0
 233.896 320.17 247.496 319 263 319 c 2
 297 319 l 1
 297 243 l 1
 257.002 242.998 l 2
 232.746 242.997 212.587 244.118 192.427 247.479 c 0
 165.58 251.952 142.452 261.067 122.812 275.03 c 0
 102.708 289.324 88.8281 307.506 80.6016 328.398 c 0
 68.5281 359.059 68 392.22 68 430 c 10
EndSplineSet
Fore
SplineSet
60 408 m 10
 60 600 l 1
 274 600 l 2
 309 600 337 599 366 594 c 0
 404 588 438 574 466 554 c 0
 495 534 514 508 526 478 c 0
 539 446 540 404 540 367 c 2
 540 -200 l 1
 453 -200 l 1
 453 374 l 2
 453 397 450 427 444 445 c 0
 438 463 428 478 412 491 c 0
 396 504 376 513 354 518 c 0
 337 522 317 524 294 524 c 2
 147 524 l 1
 147 372 l 2
 147 358 149 339 153 328 c 0
 157 317 164 307 175 299 c 0
 186 291 199 285 214 282 c 0
 225 280 239 279 255 279 c 12
 268 279 289 281 289 281 c 5
 289 205 l 5
 289 205 265 203 249 203 c 20
 225 203 204 204 184 208 c 0
 157 213 135 223 115 238 c 0
 95 254 81 274 73 297 c 0
 61 331 60 366 60 408 c 10
EndSplineSet
Validated: 1
Comment: "%DiaToBase1+AD0A-300+AAoA%DiaToBase2+AD0A-300+AAoA%DiaToBase3+AD0A-300+AAoA%DiaToBaseO+AD0A-0+AAoA%DiaToBaseU+AD0A-300+AAoA" 
EndChar

StartChar: afii57684
Encoding: 1508 1508 137
Width: 585
VWidth: 1000
Flags: W
HStem: 0 76<85 374.462> 261.5 73.5<177.561 304> 524 76<162 374.462>
VStem: 75 87<351.409 524> 456 88<153.884 446.116>
AnchorPoint: "DiaToBaseD" 373 70 basechar 0
AnchorPoint: "DiaToBaseU" 309 0 basechar 0
AnchorPoint: "DiaToBase3" 309 0 basechar 0
AnchorPoint: "DiaToBase2" 300 0 basechar 0
AnchorPoint: "DiaToBase1" 300 0 basechar 0
LayerCount: 2
Back
SplineSet
257 255 m 16
 233 255 212 257 192 260 c 0
 165 264 143 274 123 288 c 0
 103 302 89 320 81 341 c 0
 69 372 68 410 68 444 c 2
 68 600 l 1
 241 600 l 2
 280 600 312 598 344 592 c 0
 387 584 423 568 454 543 c 0
 486 517 509 485 522 448 c 0
 536 408 537 355 537 308 c 2
 537 291 l 2
 537 244 536 192 522 152 c 0
 509 115 486 83 454 57 c 0
 423 32 387 16 344 8 c 0
 312 2 280 0 242 -0 c 2
 78 0 l 1
 78 76 l 1
 251 76 l 2
 279 76 304 79 325 84 c 0
 353 91 377 102 397 119 c 0
 417 136 430 157 438 181 c 0
 446 205 449 246 449 276 c 2
 449 324 l 2
 449 354 446 394 438 418 c 0
 430 442 417 464 397 481 c 0
 377 498 353 509 325 516 c 0
 304 521 279 524 251 524 c 2
 155 524 l 1
 155 410 l 2
 155 398 157 383 161 373 c 0
 165 364 172 355 183 348 c 0
 194 341 207 338 222 335 c 0
 233 333 248 331 263 331 c 0
 276 331 297 334 297 334 c 1
 297 258 l 1
 297 258 273 255 257 255 c 16
EndSplineSet
Fore
SplineSet
229 335 m 0
 243.013 332.509 257.5 331.833 270 332.75 c 0
 283.015 333.704 304 337.25 304 337.25 c 1
 304.333 264.333 l 1
 304.333 264.333 281 260.333 263.666 259.332 c 0
 244.2 258.208 221.125 258.25 199.125 261.5 c 0
 172.403 265.447 150 274 130 288 c 0
 110 302 96 320 88 341 c 0
 76 372 75 410 75 444 c 2
 75 600 l 1
 248 600 l 2
 287 600 319 598 351 592 c 0
 394 584 430 568 461 543 c 0
 493 517 516 485 529 448 c 0
 543 408 544 355 544 308 c 2
 544 291 l 2
 544 244 543 192 529 152 c 0
 516 115 493 83 461 57 c 0
 430 32 394 16 351 8 c 0
 319 2 287 0 249 0 c 2
 85 0 l 1
 85 76 l 1
 258 76 l 2
 286 76 311 79 332 84 c 0
 360 91 384 102 404 119 c 0
 424 136 437 157 445 181 c 0
 453 205 456 246 456 276 c 2
 456 324 l 2
 456 354 453 394 445 418 c 0
 437 442 424 464 404 481 c 0
 384 498 360 509 332 516 c 0
 311 521 286 524 258 524 c 2
 162 524 l 1
 162 410 l 2
 162 398 164 383 168 373 c 0
 172 364 179 355 190 348 c 0
 201 341 214 337.667 229 335 c 0
EndSplineSet
Validated: 33
Comment: "%DiaToBase1+AD0A-300+AAoA%DiaToBase2+AD0A-300+AAoA%DiaToBase3+AD0A-309+AAoA%DiaToBaseO+AD0A-0+AAoA%DiaToBaseU+AD0A-309+AAoA" 
EndChar

StartChar: afii57685
Encoding: 1509 1509 138
Width: 568
VWidth: 1000
Flags: W
HStem: -200 21G<229 316> 580 20G<10 122.384 437.679 528>
VStem: 229 87<-200 221>
AnchorPoint: "DiaToBaseD" 0 0 basechar 0
AnchorPoint: "DiaToBaseU" 269 0 basechar 0
AnchorPoint: "DiaToBase3" 269 0 basechar 0
AnchorPoint: "DiaToBase2" 269 0 basechar 0
AnchorPoint: "DiaToBase1" 269 0 basechar 0
LayerCount: 2
Back
SplineSet
117 600 m 13
 298.5 282.006 l 21
 327.83 287.435 354.629 300.23 372.022 317.163 c 4
 389.799 334.471 402.801 356.736 412.101 382.919 c 4
 421.57 409.583 428.989 454.03 432.907 488.118 c 6
 446 600 l 5
 533.5 600 l 5
 520 484 l 6
 514.509 435.954 507.037 381.85 489.822 341.938 c 4
 473.767 304.712 452.787 275.13 420.593 252.927 c 4
 391.593 232.927 359.522 223.927 321.245 220.927 c 5
 322.223 -200 l 5
 235.223 -200 l 5
 235.223 221 l 5
 31.9631 573 l 5
 32 600 l 5
 117 600 l 13
EndSplineSet
Fore
SplineSet
111 600 m 9
 292 282 l 17
 321 287 349 300 366 317 c 0
 384 334 397 357 406 383 c 0
 415 410 423 454 427 488 c 2
 440 600 l 1
 528 600 l 1
 514 484 l 2
 509 436 501 382 484 342 c 0
 468 305 447 275 415 253 c 0
 386 233 353 224 315 221 c 1
 316 -200 l 1
 229 -200 l 1
 229 221 l 1
 10 600 l 1
 111 600 l 9
EndSplineSet
Validated: 1
Comment: "%DiaToBase1+AD0A-269+AAoA%DiaToBase2+AD0A-269+AAoA%DiaToBase3+AD0A-269+AAoA%DiaToBaseO+AD0A-0+AAoA%DiaToBaseU+AD0A-269+AAoA" 
EndChar

StartChar: afii57686
Encoding: 1510 1510 139
Width: 601
VWidth: 1000
Flags: W
HStem: 0 76<79 412> 580 20G<45 166.826 464 551>
VStem: 464 87<365.217 600>
AnchorPoint: "DiaToBaseD" 186 -100 basechar 0
AnchorPoint: "DiaToBaseU" 320 0 basechar 0
AnchorPoint: "DiaToBase3" 320 0 basechar 0
AnchorPoint: "DiaToBase2" 320 0 basechar 0
AnchorPoint: "DiaToBase1" 320 0 basechar 0
LayerCount: 2
Back
SplineSet
400.6 236.35 m 1
 435.8 246.8 459.441 260.361 482 282 c 0
 508.95 307.85 526.366 337.659 538.1 371.1 c 0
 549.1 402.449 553.5 438.75 553.5 484.949 c 2
 553.5 600 l 1
 462 600 l 1
 462 493 l 2
 462 450.1 459.8 411.6 446.601 380.25 c 0
 430.825 342.785 403.209 312.517 365.2 285.1 c 1
 400.6 236.35 l 1
156 600 m 17
 48 600 l 1
 415 76 l 1
 82 76 l 1
 82 0 l 1
 571 0 l 9
 156 600 l 17
EndSplineSet
Fore
SplineSet
153 600 m 1
 368 289 l 1
 405 315 432 344 448 380 c 0
 462 411 464 450 464 493 c 2
 464 600 l 1
 551 600 l 1
 551 485 l 2
 551 439 546 402 535 371 c 0
 523 338 506 308 479 282 c 0
 458 262 435 248 403 238 c 1
 533 51 l 1
 533 0 l 1
 79 0 l 1
 79 76 l 1
 412 76 l 1
 45 600 l 1
 153 600 l 1
EndSplineSet
Validated: 1
Comment: "%DiaToBase1+AD0A-320+AAoA%DiaToBase2+AD0A-320+AAoA%DiaToBase3+AD0A-320+AAoA%DiaToBaseO+AD0A-0+AAoA%DiaToBaseU+AD0A-320+AAoA" 
EndChar

StartChar: afii57687
Encoding: 1511 1511 140
Width: 643
VWidth: 1000
Flags: W
HStem: -200 21G<85 172> -7 76<271 415.811> 524 76<85 496>
VStem: 85 87<-200 406> 496 87<143.883 524>
AnchorPoint: "DiaToBaseD" 331 -0 basechar 0
AnchorPoint: "DiaToBaseU" 395 0 basechar 0
AnchorPoint: "DiaToBase3" 395 0 basechar 0
AnchorPoint: "DiaToBase2" 380 0 basechar 0
AnchorPoint: "DiaToBase1" 320 0 basechar 0
LayerCount: 2
Back
SplineSet
468 261 m 130
 468 524 l 1
 67 524 l 1
 67 600 l 1
 555 600 l 1
 555 255 l 130
 555 132 443 33 304 33 c 130
 253 33 l 5
 253 109 l 5
 297 109 l 130
 391 109 468 177 468 261 c 130
154 406 m 1
 154 -200 l 1
 67 -200 l 1
 67 406 l 1
 154 406 l 1
EndSplineSet
Fore
SplineSet
583 264 m 2
 583 221 582 172 567 135 c 0
 553 100 530 70 497 46 c 0
 464 23 426 7 382 0 c 0
 351 -5 320 -7 284 -7 c 1
 271 -7 l 1
 271 69 l 1
 295 69 l 2
 326 69 350 72 371 77 c 0
 399 83 424 94 444 110 c 0
 464 126 476 146 484 169 c 0
 492 192 496 230 496 258 c 2
 496 524 l 1
 85 524 l 1
 85 600 l 1
 583 600 l 1
 583 264 l 2
172 406 m 1
 172 -200 l 1
 85 -200 l 1
 85 406 l 1
 172 406 l 1
EndSplineSet
Validated: 1
Comment: "%DiaToBase1+AD0A-320+AAoA%DiaToBase2+AD0A-380+AAoA%DiaToBase3+AD0A-395+AAoA%DiaToBaseO+AD0A-0+AAoA%DiaToBaseU+AD0A-395+AAoA" 
EndChar

StartChar: afii57688
Encoding: 1512 1512 141
Width: 543
VWidth: 1000
Flags: W
HStem: 0 21G<401 488> 524 76<30 346.441>
VStem: 401 87<0 473.404>
AnchorPoint: "DiaToBaseD" 257 0 basechar 0
AnchorPoint: "DiaToBaseU" 310 0 basechar 0
AnchorPoint: "DiaToBase3" 306 0 basechar 0
AnchorPoint: "DiaToBase2" 373 0 basechar 0
AnchorPoint: "DiaToBase1" 445 0 basechar 0
LayerCount: 2
Back
SplineSet
242 524 m 6
 42 524 l 1
 42 600 l 1
 249 600 l 6
 388 600 500 501 500 378 c 134
 500 0 l 1
 413 0 l 1
 413 372 l 134
 413 456 336 524 242 524 c 6
EndSplineSet
Fore
SplineSet
401 374 m 6
 401 397 398 427 392 445 c 4
 386 463 376 478 360 491 c 4
 344 504 324 513 302 518 c 4
 285 522 266 524 242 524 c 6
 30 524 l 1
 30 600 l 1
 222 600 l 6
 258 600 285 599 314 594 c 4
 352 588 386 574 414 554 c 4
 443 534 462 508 474 478 c 4
 487 446 488 404 488 367 c 6
 488 0 l 5
 401 0 l 5
 401 374 l 6
EndSplineSet
Validated: 1
Substitution2: "WideLetters" uniFB27
Comment: "%DiaToBase1+AD0A-445+AAoA%DiaToBase2+AD0A-373+AAoA%DiaToBase3+AD0A-306+AAoA%DiaToBaseO+AD0A-0+AAoA%DiaToBaseU+AD0A-310+AAoA" 
EndChar

StartChar: afii57689
Encoding: 1513 1513 142
Width: 795
VWidth: 1000
Flags: W
HStem: -5 76<255.904 518.557> 224 76<159.315 322.372> 580 20G<65 152 351 438 638 725>
VStem: 65 87<300 600> 351 87<328.972 600> 638 87<188.989 600>
AnchorPoint: "DiaToBaseD" 491 -98 basechar 0
AnchorPoint: "DiaToBaseU" 395 0 basechar 0
AnchorPoint: "DiaToBase3" 395 0 basechar 0
AnchorPoint: "DiaToBase2" 395 0 basechar 0
AnchorPoint: "DiaToBase1" 395 0 basechar 0
LayerCount: 2
Back
SplineSet
351.001 411.161 m 2
 351 600 l 1
 438 600 l 1
 438 423 l 2
 438 394.5 435.188 369.5 430.5 348.5 c 0
 424.31 320.763 413.648 296.047 397.311 276 c 0
 381.309 256.362 361.648 243.354 339.094 235.5 c 0
 316.125 227.5 280.605 223.995 252.012 223.997 c 0
 218.182 224 185.5 230 158 242 c 1
 163.5 204 181.404 163.77 199.032 140.375 c 0
 217.528 115.828 240.252 99.5693 266.321 89.75 c 0
 292.87 79.75 336.215 76 369.265 76 c 2
 420.736 76 l 6
 453.786 76 497.131 79.75 523.679 89.75 c 4
 549.749 99.5693 572.473 115.828 590.969 140.375 c 4
 609.852 165.435 622.176 196.328 629.331 231 c 4
 634.749 257.25 638 288.5 638 324.125 c 6
 638 600 l 1
 725 600 l 1
 725 355.2 l 2
 725 308.4 722.8 270 716.2 231.6 c 0
 707.411 180.464 689.507 136.41 662.08 99 c 0
 634.004 60.707 598.287 34.2695 557.25 18.5996 c 0
 513.25 1.7998 455.638 0 404.35 0 c 2
 385.65 0 l 2
 334.362 0 276.75 1.7998 232.75 18.5996 c 0
 191.713 34.2695 155.996 60.707 127.92 99 c 0
 100.493 136.41 82.5889 180.464 73.7998 231.6 c 0
 67.2002 270 65 308.4 65 354.6 c 2
 65 600 l 1
 152 600 l 1
 152 300 l 1
 245.739 300 l 2
 261.751 300 282.751 301.68 295.614 306.16 c 0
 308.245 310.559 319.254 317.843 328.215 328.84 c 0
 337.364 340.066 343.335 353.907 346.802 369.439 c 0
 349.427 381.2 351.001 395.2 351.001 411.161 c 2
EndSplineSet
Fore
SplineSet
351 411 m 6
 351 600 l 5
 438 600 l 5
 438 423 l 6
 438 395 435 369 430 348 c 4
 424 320 413 296 397 276 c 4
 381 256 362 244 339 236 c 4
 316 228 281 224 252 224 c 4
 218 224 186 230 158 242 c 5
 164 204 181 163 199 140 c 4
 217 115 240 100 266 90 c 4
 293 80 336 71 369 71 c 6
 388 71 l 6
 426 71 467 76 507 90 c 4
 537 100 563 115 584 140 c 4
 606 165 620 196 628 231 c 4
 634 257 638 288 638 324 c 6
 638 600 l 5
 725 600 l 5
 725 355 l 6
 725 308 722 270 715 232 c 4
 705 181 686 136 656 99 c 4
 625 61 585 35 540 19 c 4
 496 4 440 -5 388 -5 c 4
 332 -5 275 3 233 19 c 4
 192 34 156 61 128 99 c 4
 101 136 83 181 74 232 c 4
 67 270 65 309 65 355 c 6
 65 600 l 5
 152 600 l 5
 152 300 l 5
 246 300 l 6
 262 300 283 302 296 306 c 4
 309 310 319 318 328 329 c 4
 337 340 344 353 347 369 c 4
 350 381 351 395 351 411 c 6
EndSplineSet
Validated: 1
Comment: "%DiaToBase1+AD0A-395+AAoA%DiaToBase2+AD0A-395+AAoA%DiaToBase3+AD0A-395+AAoA%DiaToBaseO+AD0A-0+AAoA%DiaToBaseU+AD0A-395+AAoA" 
EndChar

StartChar: afii57690
Encoding: 1514 1514 143
Width: 690
VWidth: 1000
Flags: W
HStem: -5 76<35 133.062> 524 76<87 147 234 474.492>
VStem: 147 87<85.2812 524> 548 87<0 454.726>
AnchorPoint: "DiaToBaseD" 396 0 basechar 0
AnchorPoint: "DiaToBaseU" 370 0 basechar 0
AnchorPoint: "DiaToBase3" 350 0 basechar 0
AnchorPoint: "DiaToBase2" 360 0 basechar 0
AnchorPoint: "DiaToBase1" 360 0 basechar 0
LayerCount: 2
Back
SplineSet
40 0 m 1
 40 77 l 1
 53 73 67 71 82 71 c 128
 142 71 152 106 152 149 c 130
 152 524 l 1
 82 524 l 1
 82 600 l 1
 389 600 l 2
 528 600 640 501 640 378 c 130
 640 0 l 1
 553 0 l 1
 553 372 l 130
 553 456 476 524 382 524 c 2
 239 524 l 1
 239 142 l 130
 239 61 192 -5 88 -5 c 128
 71 -5 55 -3 40 0 c 1
EndSplineSet
Fore
SplineSet
147 524 m 1
 87 524 l 1
 87 600 l 1
 329 600 l 2
 369 600 402 599 435 593 c 0
 479 586 517 570 549 547 c 0
 582 524 605 494 619 460 c 0
 633 423 635 375 635 332 c 2
 635 0 l 1
 548 0 l 1
 548 344 l 2
 548 371 545 407 537 429 c 0
 529 451 517 470 498 485 c 0
 479 501 456 511 429 517 c 0
 409 521 384 524 357 524 c 2
 234 524 l 1
 234 142 l 2
 234 62 187 -5 83 -5 c 0
 66 -5 50 -3 35 0 c 1
 35 77 l 1
 48 73 62 71 77 71 c 0
 137 71 147 106 147 149 c 2
 147 524 l 1
EndSplineSet
Validated: 1
Substitution2: "WideLetters" uniFB28
Comment: "%DiaToBase1+AD0A-360+AAoA%DiaToBase2+AD0A-360+AAoA%DiaToBase3+AD0A-350+AAoA%DiaToBaseO+AD0A-0+AAoA%DiaToBaseU+AD0A-370+AAoA" 
EndChar

StartChar: uni05F3
Encoding: 1523 1523 147
Width: 184
VWidth: 1000
Flags: W
HStem: 464 245<39 95>
VStem: 39 93<578.305 709> 39 56<464 493.695>
LayerCount: 2
Fore
SplineSet
39 709 m 1xc0
 132 709 l 1
 132 608 l 1xc0
 95 464 l 1
 39 464 l 1xa0
 39 709 l 1xc0
EndSplineSet
Validated: 1
EndChar

StartChar: uni05F4
Encoding: 1524 1524 148
Width: 344
VWidth: 1000
Flags: W
HStem: 464 245<39 95 199 255>
VStem: 39 93<578.305 709> 39 56<464 493.695> 199 93<578.305 709> 199 56<464 493.695>
LayerCount: 2
Fore
SplineSet
39 709 m 5xc0
 132 709 l 5
 132 608 l 5xc0
 95 464 l 5
 39 464 l 5xa0
 39 709 l 5xc0
199 709 m 1x90
 292 709 l 257
 292 608 l 1x90
 255 464 l 1
 199 464 l 1x88
 199 709 l 1x90
EndSplineSet
Validated: 1
EndChar

StartChar: uni05F5
Encoding: 1525 1525 149
Width: 262
VWidth: 1000
Flags: W
HStem: 0 21G<85 172> 580 20G<85 172>
VStem: 85 87<0 255 345 600>
LayerCount: 2
Fore
SplineSet
85 331 m 1
 85 600 l 1
 172 600 l 1
 172 345 l 1
 85 331 l 1
85 0 m 1
 85 255 l 5
 172 269 l 5
 172 0 l 1
 85 0 l 1
EndSplineSet
Validated: 1
EndChar

StartChar: uni05F7
Encoding: 1527 1527 150
Width: 643
VWidth: 1000
Flags: HMW
HStem: -200 21G<85 172> -7 76<271 415.811> 524 76<85 496>
VStem: 85 87<-200 406> 496 87<143.883 524>
AnchorPoint: "DiaToBaseD" 331 -0 basechar 0
AnchorPoint: "DiaToBaseU" 395 0 basechar 0
AnchorPoint: "DiaToBase3" 395 0 basechar 0
AnchorPoint: "DiaToBase2" 380 0 basechar 0
AnchorPoint: "DiaToBase1" 320 0 basechar 0
LayerCount: 2
Fore
SplineSet
172 524 m 1
 172 -200 l 1
 85 -200 l 9
 85 600 l 17
 583 600 l 1
 583 264 l 2
 583 221 582 172 567 135 c 0
 553 100 530 70 497 46 c 0
 464 23 426 7 382 0 c 0
 351 -5 320 -7 284 -7 c 1
 271 -7 l 1
 271 69 l 1
 295 69 l 2
 326 69 350 72 371 77 c 0
 399 83 424 94 444 110 c 0
 464 126 476 146 484 169 c 0
 492 192 496 230 496 258 c 2
 496 524 l 1
 172 524 l 1
EndSplineSet
Validated: 1
EndChar

StartChar: endash
Encoding: 8211 8211 155
Width: 585
VWidth: 1000
Flags: W
HStem: 274 76<85 500>
LayerCount: 2
Fore
SplineSet
500 274 m 1
 85 274 l 1
 85 350 l 1
 500 350 l 1
 500 274 l 1
EndSplineSet
Validated: 1
EndChar

StartChar: emdash
Encoding: 8212 8212 156
Width: 885
VWidth: 1000
Flags: W
HStem: 274 76<85 800>
LayerCount: 2
Fore
SplineSet
800 274 m 5
 85 274 l 1
 85 350 l 1
 800 350 l 5
 800 274 l 5
EndSplineSet
Validated: 1
EndChar

StartChar: afii00208
Encoding: 8213 8213 157
Width: 1085
VWidth: 1000
Flags: W
HStem: 274 76<85 1000>
LayerCount: 2
Fore
SplineSet
1000 274 m 5
 85 274 l 1
 85 350 l 1
 1000 350 l 5
 1000 274 l 5
EndSplineSet
Validated: 1
EndChar

StartChar: quoteright
Encoding: 8217 8217 158
Width: 195
VWidth: 1000
Flags: W
HStem: 464 245<79 118>
VStem: 52 93<560.133 709> 79 39<464 501.867>
LayerCount: 2
Fore
SplineSet
52 709 m 1xc0
 145 709 l 1
 145 598 l 1xc0
 118 464 l 1
 79 464 l 1xa0
 52 598 l 1
 52 709 l 1xc0
EndSplineSet
Validated: 1
EndChar

StartChar: quotesinglbase
Encoding: 8218 8218 159
Width: 195
VWidth: 1000
Flags: W
HStem: -140 245<79 118>
VStem: 52 93<-43.8674 105> 79 39<-140 -102.133>
LayerCount: 2
Fore
SplineSet
52 105 m 1xc0
 145 105 l 1
 145 -6 l 1xc0
 118 -140 l 1
 79 -140 l 1xa0
 52 -6 l 1
 52 105 l 1xc0
EndSplineSet
Validated: 1
EndChar

StartChar: quotedblright
Encoding: 8221 8221 160
Width: 355
VWidth: 1000
Flags: W
HStem: 464 245<79 118 239 278>
VStem: 52 93<560.133 709> 79 39<464 501.867> 212 93<560.133 709> 239 39<464 501.867>
LayerCount: 2
Fore
SplineSet
52 709 m 1xc0
 145 709 l 1
 145 598 l 1xc0
 118 464 l 1
 79 464 l 1xa0
 52 598 l 1
 52 709 l 1xc0
212 709 m 1x90
 305 709 l 1
 305 598 l 1x90
 278 464 l 1
 239 464 l 1x88
 212 598 l 1
 212 709 l 1x90
EndSplineSet
Validated: 1
EndChar

StartChar: quotedblbase
Encoding: 8222 8222 161
Width: 355
VWidth: 1000
Flags: W
HStem: -140 245<79 118 239 278>
VStem: 52 93<-43.8674 105> 79 39<-140 -102.133> 212 93<-43.8674 105> 239 39<-140 -102.133>
LayerCount: 2
Fore
SplineSet
52 105 m 5xc0
 145 105 l 5
 145 -6 l 5xc0
 118 -140 l 5
 79 -140 l 5xa0
 52 -6 l 5
 52 105 l 5xc0
212 105 m 5x90
 305 105 l 5
 305 -6 l 5x90
 278 -140 l 5
 239 -140 l 5x88
 212 -6 l 5
 212 105 l 5x90
EndSplineSet
Validated: 1
EndChar

StartChar: uniFB27
Encoding: 64295 64295 162
Width: 1093
VWidth: 1000
Flags: W
HStem: 0 21G<951 1038> 524 76<30 896.441>
VStem: 951 87<0 473.404>
LayerCount: 2
Back
SplineSet
792 524 m 6
 42 524 l 1
 42 600 l 1
 799 600 l 6
 937.552 600 1050 500.544 1050 378 c 134
 1050 0 l 5
 963 0 l 5
 963 372 l 134
 963 455.904 886.392 524 792 524 c 6
EndSplineSet
Fore
SplineSet
951 374 m 6
 951 397 948 427 942 445 c 4
 936 463 926 478 910 491 c 4
 894 504 874 513 852 518 c 4
 835 522 816 524 792 524 c 6
 30 524 l 1
 30 600 l 1
 772 600 l 6
 808 600 835 599 864 594 c 4
 902 588 936 574 964 554 c 4
 993 534 1012 508 1024 478 c 4
 1037 446 1038 404 1038 367 c 6
 1038 0 l 5
 951 0 l 5
 951 374 l 6
EndSplineSet
Validated: 1
Comment: "%DiaToBase1+AD0A-546+AAoA%DiaToBase2+AD0A-546+AAoA%DiaToBase3+AD0A-546+AAoA%DiaToBaseO+AD0A-0+AAoA%DiaToBaseU+AD0A-546+AAoA" 
EndChar

StartChar: uniFB28
Encoding: 64296 64296 163
Width: 1240
VWidth: 1000
Flags: W
HStem: -5 76<35 133.062> 524 76<87 147 234 1024.49>
VStem: 147 87<85.2812 524> 1098 87<0 454.726>
LayerCount: 2
Back
SplineSet
40 0 m 1
 40 77 l 1
 53 73 67 71 82 71 c 128
 142 71 152 106 152 149 c 130
 152 524 l 1
 92 524 l 1
 92 600 l 1
 939 600 l 2
 1078 600 1190 501 1190 378 c 130
 1190 0 l 1
 1103 0 l 1
 1103 372 l 130
 1103 456 1026 524 932 524 c 2
 239 524 l 1
 239 142 l 130
 239 61 192 -5 88 -5 c 128
 71 -5 55 -3 40 0 c 1
EndSplineSet
Fore
SplineSet
147 524 m 1
 87 524 l 1
 87 600 l 1
 879 600 l 6
 919 600 952 599 985 593 c 4
 1029 586 1067 570 1099 547 c 4
 1132 524 1155 494 1169 460 c 4
 1183 423 1185 375 1185 332 c 6
 1185 0 l 5
 1098 0 l 5
 1098 344 l 6
 1098 371 1095 407 1087 429 c 4
 1079 451 1067 470 1048 485 c 4
 1029 501 1006 511 979 517 c 4
 959 521 934 524 907 524 c 6
 234 524 l 1
 234 142 l 2
 234 62 187 -5 83 -5 c 0
 66 -5 50 -3 35 0 c 1
 35 77 l 1
 48 73 62 71 77 71 c 0
 137 71 147 106 147 149 c 2
 147 524 l 1
EndSplineSet
Validated: 1
Comment: "%DiaToBase1+AD0A-615+AAoA%DiaToBase2+AD0A-615+AAoA%DiaToBase3+AD0A-615+AAoA%DiaToBaseO+AD0A-0+AAoA%DiaToBaseU+AD0A-615+AAoA" 
EndChar

StartChar: uniFB29
Encoding: 64297 64297 164
Width: 664
VWidth: 1100
Flags: W
HStem: 262 70<90 297 367 574>
VStem: 297 70<332 574>
LayerCount: 2
Fore
SplineSet
574 332 m 5
 574 262 l 5
 90 262 l 5
 90 332 l 5
 297 332 l 5
 297 574 l 1
 367 574 l 1
 367 332 l 5
 574 332 l 5
EndSplineSet
Validated: 1
EndChar

StartChar: uniFB4F
Encoding: 64335 64335 197
Width: 616
VWidth: 1000
Flags: W
HStem: -0.000976562 21G<450 541.806> 580 20G<446 533> 729 20G<42 129>
VStem: 42.042 86.75<516.098 749> 446 87<343.111 600>
LayerCount: 2
Back
SplineSet
164 600 m 1
 393 276 l 5
 428 301 453 328 467 362 c 4
 479 390 481 426 481 465 c 6
 481 600 l 5
 568 600 l 5
 568 451 l 6
 568 409 564 376 554 348 c 4
 543 318 527 290 503 266 c 4
 482 246 461 235 429 225 c 5
 587 0 l 1
 485 0 l 1
 77 580 l 1
 77 749 l 1
 164 749 l 1
 164 600 l 1
EndSplineSet
Fore
SplineSet
338.334 265 m 5
 381.667 287.333 415.333 320.333 432 362 c 4
 443.314 390.284 446 426 446 465 c 6
 446 600 l 5
 533 600 l 5
 533 451 l 6
 533 409 529 376 519 348 c 4
 508 318 492 290 468 266 c 4
 447 246 414.667 226.333 380 215.335 c 5
 558.373 -0.000976562 l 5
 450 0 l 5
 42.042 490.598 l 5
 42 749 l 5
 129 749 l 5
 128.792 516.098 l 5
 338.334 265 l 5
EndSplineSet
Validated: 1
Ligature2: "AlephLamed" afii57664 afii57676
Ligature2: "AlephLamed2" afii57664 afii57676
EndChar

StartChar: afii57799
Encoding: 1456 1456 198
Width: 0
VWidth: 990
Flags: W
HStem: -264 70<-35 36> -141 71<-35 36>
VStem: -35 71<-264 -194 -141 -70>
AnchorPoint: "DiaToBase1" 0 0 mark 0
LayerCount: 2
Fore
SplineSet
-35 -194 m 1
 36 -194 l 1
 36 -264 l 1
 -35 -264 l 1
 -35 -194 l 1
-35 -70 m 1
 36 -70 l 1
 36 -141 l 1
 -35 -141 l 1
 -35 -70 l 1
EndSplineSet
Validated: 1
EndChar

StartChar: afii57801
Encoding: 1457 1457 199
Width: 0
VWidth: 990
Flags: W
HStem: -264 71<-103 -32 97 168> -141 71<-168 -97 -38 32 97 168>
VStem: -168 71<-141 -70> -103 71<-264 -193> -38 70<-141 -70> 97 71<-264 -193 -141 -70>
AnchorPoint: "DiaToBase3" 0 0 mark 0
LayerCount: 2
Fore
SplineSet
-168 -70 m 5xe4
 -97 -70 l 5
 -97 -141 l 5
 -168 -141 l 5
 -168 -70 l 5xe4
-38 -70 m 5xcc
 32 -70 l 5
 32 -141 l 5
 -38 -141 l 5
 -38 -70 l 5xcc
-103 -193 m 5xd4
 -32 -193 l 5
 -32 -264 l 5
 -103 -264 l 5
 -103 -193 l 5xd4
97 -193 m 5
 168 -193 l 5
 168 -264 l 5
 97 -264 l 5
 97 -193 l 5
97 -70 m 5
 168 -70 l 5
 168 -141 l 5
 97 -141 l 5
 97 -70 l 5
EndSplineSet
Validated: 1
EndChar

StartChar: afii57800
Encoding: 1458 1458 200
Width: 0
VWidth: 990
Flags: W
HStem: -264 70<94 165> -141 71<-165 24 94 165>
VStem: 94 71<-264 -194 -141 -70>
AnchorPoint: "DiaToBase3" 0 0 mark 0
LayerCount: 2
Fore
SplineSet
-165 -70 m 5
 24 -70 l 5
 24 -141 l 5
 -165 -141 l 5
 -165 -70 l 5
94 -194 m 5
 165 -194 l 5
 165 -264 l 5
 94 -264 l 5
 94 -194 l 5
94 -70 m 5
 165 -70 l 5
 165 -141 l 5
 94 -141 l 5
 94 -70 l 5
EndSplineSet
Validated: 1
EndChar

StartChar: afii57802
Encoding: 1459 1459 201
Width: 0
VWidth: 990
Flags: W
HStem: -264 70<94 165> -141 71<-165 -106 -35 24 94 165>
VStem: -106 71<-258 -141> 94 71<-264 -194 -141 -70>
AnchorPoint: "DiaToBase3" 0 0 mark 0
LayerCount: 2
Fore
SplineSet
94 -194 m 5
 165 -194 l 5
 165 -264 l 5
 94 -264 l 5
 94 -194 l 5
94 -70 m 5
 165 -70 l 5
 165 -141 l 5
 94 -141 l 5
 94 -70 l 5
-35 -141 m 1
 -35 -258 l 5
 -106 -258 l 5
 -106 -141 l 1
 -165 -141 l 5
 -165 -70 l 5
 24 -70 l 5
 24 -141 l 5
 -35 -141 l 1
EndSplineSet
Validated: 1
EndChar

StartChar: afii57793
Encoding: 1460 1460 202
Width: 0
VWidth: 990
Flags: W
HStem: -141 71<-35 35>
VStem: -35 70<-141 -70>
AnchorPoint: "DiaToBase1" 0 0 mark 0
LayerCount: 2
Fore
SplineSet
-35 -70 m 1
 35 -70 l 5
 35 -141 l 1
 -35 -141 l 1
 -35 -70 l 1
EndSplineSet
Validated: 1
EndChar

StartChar: afii57794
Encoding: 1461 1461 203
Width: 0
VWidth: 990
Flags: W
HStem: -141 71<-100 -29 29 100>
VStem: -100 71<-141 -70> 29 71<-141 -70>
AnchorPoint: "DiaToBase2" 0 0 mark 0
LayerCount: 2
Fore
SplineSet
-100 -70 m 1
 -29 -70 l 1
 -29 -141 l 1
 -100 -141 l 1
 -100 -70 l 1
29 -70 m 1
 100 -70 l 1
 100 -141 l 1
 29 -141 l 1
 29 -70 l 1
EndSplineSet
Validated: 1
EndChar

StartChar: afii57795
Encoding: 1462 1462 204
Width: 0
VWidth: 990
Flags: W
HStem: -264 70<-35 36> -141 71<-100 -29 29 100>
VStem: -100 71<-141 -70> -35 71<-264 -194> 29 71<-141 -70>
AnchorPoint: "DiaToBase2" 0 0 mark 0
LayerCount: 2
Fore
SplineSet
-100 -70 m 1xe0
 -29 -70 l 1
 -29 -141 l 1
 -100 -141 l 1
 -100 -70 l 1xe0
29 -70 m 1xc8
 100 -70 l 1
 100 -141 l 1
 29 -141 l 1
 29 -70 l 1xc8
-35 -194 m 1xd0
 36 -194 l 1
 36 -264 l 1
 -35 -264 l 1
 -35 -194 l 1xd0
EndSplineSet
Validated: 1
EndChar

StartChar: afii57798
Encoding: 1463 1463 205
Width: 0
VWidth: 990
Flags: W
HStem: -141 71<-125 125>
VStem: -125 250<-141 -70>
AnchorPoint: "DiaToBase2" 0 0 mark 0
LayerCount: 2
Fore
SplineSet
-125 -70 m 1
 125 -70 l 1
 125 -141 l 5
 -125 -141 l 1
 -125 -70 l 1
EndSplineSet
Validated: 1
EndChar

StartChar: afii57797
Encoding: 1464 1464 206
Width: 0
VWidth: 990
Flags: W
HStem: -141 71<-125 -35 36 125>
VStem: -35 71<-258 -141>
AnchorPoint: "DiaToBase2" 0 0 mark 0
LayerCount: 2
Fore
SplineSet
36 -141 m 1
 36 -258 l 1
 -35 -258 l 1
 -35 -141 l 1
 -125 -141 l 1
 -125 -70 l 1
 125 -70 l 1
 125 -141 l 1
 36 -141 l 1
EndSplineSet
Validated: 1
EndChar

StartChar: afii57806
Encoding: 1465 1465 207
Width: 0
VWidth: 1000
Flags: W
HStem: 660 71<-35 35>
VStem: -35 70<660 731>
AnchorPoint: "DiaToBaseO" 0 0 mark 0
LayerCount: 2
Fore
SplineSet
-35 731 m 5
 35 731 l 5
 35 660 l 5
 -35 660 l 5
 -35 731 l 5
EndSplineSet
Validated: 1
EndChar

StartChar: afii57796
Encoding: 1467 1467 208
Width: 0
VWidth: 1000
Flags: W
HStem: -254 70<94 165> -189 70<-35 36> -131 71<-165 -94>
VStem: -165 71<-131 -60> -35 71<-189 -119> 94 71<-254 -184>
AnchorPoint: "DiaToBaseU" 0 0 mark 0
LayerCount: 2
Fore
SplineSet
94 -184 m 5x9c
 165 -184 l 5
 165 -254 l 5
 94 -254 l 5
 94 -184 l 5x9c
-35 -119 m 5x5c
 36 -119 l 5
 36 -189 l 5
 -35 -189 l 5
 -35 -119 l 5x5c
-165 -60 m 5x3c
 -94 -60 l 5
 -94 -131 l 5
 -165 -131 l 5
 -165 -60 l 5x3c
EndSplineSet
Validated: 1
EndChar

StartChar: afii57807
Encoding: 1468 1468 209
Width: 0
VWidth: 1000
Flags: W
HStem: 270 71<-35 35>
VStem: -35 70<270 341>
AnchorPoint: "DiaToBaseD" 0 0 mark 0
LayerCount: 2
Fore
SplineSet
-35 341 m 5
 35 341 l 5
 35 270 l 5
 -35 270 l 5
 -35 341 l 5
EndSplineSet
Validated: 1
EndChar

StartChar: afii57839
Encoding: 1469 1469 210
Width: 0
VWidth: 990
Flags: W
HStem: -258 188<-35 36>
VStem: -35 71<-258 -70>
LayerCount: 2
Fore
SplineSet
36 -70 m 1
 36 -258 l 1
 -35 -258 l 1
 -35 -70 l 1
 36 -70 l 1
EndSplineSet
Validated: 1
EndChar

StartChar: afii57645
Encoding: 1470 1470 211
Width: 486
VWidth: 1000
Flags: W
HStem: 524 76<85 401>
VStem: 85 316<524 600>
LayerCount: 2
Fore
SplineSet
401 524 m 5
 85 524 l 1
 85 600 l 1
 401 600 l 5
 401 524 l 5
EndSplineSet
Validated: 1
EndChar

StartChar: afii57841
Encoding: 1471 1471 212
Width: 0
VWidth: 1000
Flags: W
HStem: 660 71<-100 100>
VStem: -100 200<660 731>
LayerCount: 2
Fore
SplineSet
-100 731 m 1
 100 731 l 1
 100 660 l 1
 -100 660 l 1
 -100 731 l 1
EndSplineSet
Validated: 1
EndChar

StartChar: afii57842
Encoding: 1472 1472 213
Width: 222
VWidth: 1000
Flags: W
VStem: 67 87<-100 700>
LayerCount: 2
Fore
SplineSet
67 -100 m 5
 67 700 l 1
 154 700 l 257
 154 -100 l 5
 67 -100 l 5
EndSplineSet
Validated: 1
EndChar

StartChar: afii57804
Encoding: 1473 1473 214
Width: 0
VWidth: 1000
Flags: W
HStem: 640 71<639 710>
VStem: 639 71<640 711>
LayerCount: 2
Fore
SplineSet
639 711 m 5
 710 711 l 5
 710 640 l 5
 639 640 l 5
 639 711 l 5
EndSplineSet
Validated: 1
EndChar

StartChar: afii57803
Encoding: 1474 1474 215
Width: 0
VWidth: 1000
Flags: W
HStem: 640 71<70 141>
VStem: 70 71<640 711>
LayerCount: 2
Fore
SplineSet
70 711 m 5
 141 711 l 5
 141 640 l 5
 70 640 l 5
 70 711 l 5
EndSplineSet
Validated: 1
EndChar

StartChar: uni05C4
Encoding: 1476 1476 217
Width: 0
VWidth: 1000
Flags: W
HStem: 625 106<-53 53>
VStem: -53 106<625 731>
LayerCount: 2
Back
SplineSet
-35.2949 730.588 m 5
 35.2949 730.588 l 5
 35.2949 660 l 5
 -35.2949 660 l 5
 -35.2949 730.588 l 5
EndSplineSet
Fore
SplineSet
-53 731 m 5
 53 731 l 5
 53 625 l 5
 -53 625 l 5
 -53 731 l 5
EndSplineSet
Validated: 1
EndChar

StartChar: afii57664
Encoding: 1488 1488 218
Width: 645
VWidth: 1000
Flags: W
HStem: 0 21G<71 158 470.969 587> 580 20G<63 179.074 481 568>
VStem: 71 87<0 238.044> 481 87<342.399 600>
AnchorPoint: "DiaToBaseD" 267 -146 basechar 0
AnchorPoint: "DiaToBaseU" 325 0 basechar 0
AnchorPoint: "DiaToBase3" 325 0 basechar 0
AnchorPoint: "DiaToBase2" 325 0 basechar 0
AnchorPoint: "DiaToBase1" 325 0 basechar 0
LayerCount: 2
Back
SplineSet
222.208 374.129 m 5
 81.6762 573.5 l 1
 81.5 600 l 1
 165 600 l 1
 393 276 l 5
 427.554 300.924 452.659 328.441 467 362.5 c 4
 479 391 481 426 481 465 c 6
 481 600 l 5
 568 600 l 5
 568 451 l 6
 568 409 564 376 554 347.5 c 4
 543.333 317.1 527.5 290 503 266.5 c 4
 482.492 246.829 461 234.5 429 225 c 5
 568.375 26.5 l 1
 568.5 0 l 1
 485 0 l 1
 257 325 l 5
 218.991 295.092 188.925 260.404 173.15 219.534 c 4
 159.95 185.334 157.75 143.334 157.75 96.5342 c 6
 157.75 0 l 5
 70.75 0 l 5
 70.749 103.466 l 6
 70.749 153.866 75.1494 193.466 86.1494 227.666 c 4
 97.8828 264.146 115.299 296.666 142.249 324.866 c 4
 164.808 348.471 187.008 362.729 222.208 374.129 c 5
EndSplineSet
Fore
SplineSet
257 325 m 1
 219 295 189 261 173 220 c 0
 160 186 158 144 158 97 c 2
 158 0 l 1
 71 0 l 1
 71 103 l 2
 71 153 75 194 86 228 c 0
 98 264 115 297 142 325 c 0
 165 349 187 363 222 374 c 1
 63 600 l 1
 165 600 l 1
 393 276 l 5
 428 301 453 328 467 362 c 4
 479 390 481 426 481 465 c 6
 481 600 l 5
 568 600 l 5
 568 451 l 6
 568 409 564 376 554 348 c 4
 543 318 527 290 503 266 c 4
 482 246 461 235 429 225 c 5
 587 0 l 1
 485 0 l 1
 257 325 l 1
EndSplineSet
Validated: 1
Substitution2: "WideLetters" uniFB21
Comment: "%DiaToBase1+AD0A-325+AAoA%DiaToBase2+AD0A-325+AAoA%DiaToBase3+AD0A-325+AAoA%DiaToBaseO+AD0A-0+AAoA%DiaToBaseU+AD0A-325+AAoA" 
EndChar

StartChar: afii57665
Encoding: 1489 1489 219
Width: 563
VWidth: 1000
Flags: W
HStem: 0 76<50 397 484 558> 524 76<60 342.441>
VStem: 397 87<76 473.404>
AnchorPoint: "DiaToBaseD" 256 0 basechar 0
AnchorPoint: "DiaToBaseU" 304 0 basechar 0
AnchorPoint: "DiaToBase3" 304 0 basechar 0
AnchorPoint: "DiaToBase2" 304 0 basechar 0
AnchorPoint: "DiaToBase1" 304 0 basechar 0
LayerCount: 2
Back
SplineSet
488.25 235 m 2
 488.25 180.638 483.124 125.371 469.75 76 c 1
 535.5 76 l 1
 535.5 0 l 1
 55 0 l 1
 55 76 l 1
 401.25 76 l 9
 401.25 373.625 l 22
 401.25 396.5 398.85 426.5 392.45 444.875 c 4
 386.166 462.919 375.76 478.646 360.05 491.448 c 4
 344.012 504.518 324.24 513.047 302.05 518 c 4
 285.25 521.75 267.05 524 242.45 524 c 6
 65 524 l 1
 65 600 l 1
 222.3 600 l 6
 258.975 600 285.75 598.4 314.55 593.6 c 4
 352.902 587.208 385.942 574.187 414 554.24 c 4
 442.72 533.82 462.548 507.846 474.3 478 c 4
 486.9 446 488.25 404 488.25 366.8 c 6
 488.25 235 l 2
EndSplineSet
Fore
SplineSet
238 524 m 2
 60 524 l 5
 60 600 l 5
 218 600 l 2
 255 600 281 599 310 594 c 0
 348 588 382 574 410 554 c 0
 439 534 458 508 470 478 c 0
 483 446 484 404 484 367 c 2
 484 76 l 1
 558 76 l 1
 558 0 l 1
 50 0 l 1
 50 76 l 1
 397 76 l 1
 397 374 l 2
 397 397 394 427 388 445 c 0
 382 463 372 478 356 491 c 0
 340 504 320 513 298 518 c 0
 281 522 263 524 238 524 c 2
EndSplineSet
Validated: 1
Comment: "%DiaToBase1+AD0A-304+AAoA%DiaToBase2+AD0A-304+AAoA%DiaToBase3+AD0A-304+AAoA%DiaToBaseO+AD0A-0+AAoA%DiaToBaseU+AD0A-304+AAoA" 
EndChar

StartChar: afii57666
Encoding: 1490 1490 220
Width: 443
VWidth: 1000
Flags: W
HStem: 0 21G<0 151.818 312.372 403> 524 76<90 223.362>
AnchorPoint: "DiaToBaseD" 175 0 basechar 0
AnchorPoint: "DiaToBaseU" 230 0 basechar 0
AnchorPoint: "DiaToBase3" 220 0 basechar 0
AnchorPoint: "DiaToBase2" 210 0 basechar 0
AnchorPoint: "DiaToBase1" 210 0 basechar 0
LayerCount: 2
Back
SplineSet
135 524 m 6
 98.5 524 l 29
 98.5 600 l 21
 136 600 l 6
 175 600 205.333 599.333 235.5 591.411 c 4
 280.959 579.473 314 549.5 330.5 511.5 c 4
 343.976 480.465 350.16 445.321 355 409 c 6
 399.5 76 l 5
 399.5 0 l 5
 321.5 0 l 5
 298.5 172 l 5
 123.5 0 l 5
 40 0 l 5
 40 32.8525 l 5
 164 154.5 l 6
 197.61 187.46 241.32 207.538 293.5 209.293 c 13
 268.5 406 l 22
 264.213 431.934 262.199 450.395 255.269 467 c 4
 244 494 223.692 511.147 196.5 518.373 c 4
 177.833 523.333 157 524 135 524 c 6
EndSplineSet
Fore
SplineSet
128 524 m 2
 90 524 l 25
 90 600 l 17
 129 600 l 2
 168 600 199 599 229 591 c 0
 274 579 307 550 323 512 c 0
 336 481 343 445 348 409 c 10
 403 0 l 1
 315 0 l 1
 297 137 l 1
 127 0 l 1
 0 0 l 1
 205 168 l 1
 293 168 l 1
 261 406 l 18
 258 432 255 450 248 467 c 0
 237 494 216 511 189 518 c 0
 170 523 150 524 128 524 c 2
EndSplineSet
Validated: 1
Comment: "%DiaToBase1+AD0A-210+AAoA%DiaToBase2+AD0A-210+AAoA%DiaToBase3+AD0A-220+AAoA%DiaToBaseO+AD0A-0+AAoA%DiaToBaseU+AD0A-230+AAoA" 
EndChar

StartChar: afii57667
Encoding: 1491 1491 221
Width: 570
VWidth: 1000
Flags: W
HStem: 0 21G<350 437> 524 76<15 350 437 520>
VStem: 350 87<0 524>
AnchorPoint: "DiaToBaseD" 241 0 basechar 0
AnchorPoint: "DiaToBaseU" 300 0 basechar 0
AnchorPoint: "DiaToBase3" 290 0 basechar 0
AnchorPoint: "DiaToBase2" 330 0 basechar 0
AnchorPoint: "DiaToBase1" 390 0 basechar 0
LayerCount: 2
Fore
SplineSet
437 524 m 1
 437 0 l 1
 350 0 l 1
 350 524 l 1
 15 524 l 1
 15 600 l 1
 520 600 l 1
 520 524 l 1
 437 524 l 1
EndSplineSet
Validated: 1
Substitution2: "WideLetters" uniFB22
Comment: "%DiaToBase1+AD0A-390+AAoA%DiaToBase2+AD0A-330+AAoA%DiaToBase3+AD0A-290+AAoA%DiaToBaseO+AD0A-0+AAoA%DiaToBaseU+AD0A-300+AAoA" 
EndChar

StartChar: afii57668
Encoding: 1492 1492 222
Width: 627
VWidth: 1000
Flags: W
HStem: 0 21G<70 157 490 577> 524 76<70 435.441>
VStem: 70 87<0 305> 490 87<0 473.404>
AnchorPoint: "DiaToBaseD" 318 0 basechar 0
AnchorPoint: "DiaToBaseU" 323 0 basechar 0
AnchorPoint: "DiaToBase3" 323 0 basechar 0
AnchorPoint: "DiaToBase2" 323 0 basechar 0
AnchorPoint: "DiaToBase1" 323 0 basechar 0
LayerCount: 2
Back
SplineSet
468 373.625 m 6
 468 396.5 465.6 426.5 459.2 444.875 c 4
 452.915 462.919 442.51 478.646 426.8 491.448 c 4
 410.762 504.518 390.99 513.047 368.8 518 c 4
 352 521.75 332.8 524 309.2 524 c 6
 68 524 l 1
 68 600 l 1
 289.05 600 l 6
 324.6 600 352.5 598.4 381.3 593.6 c 4
 419.652 587.208 452.693 574.188 480.75 554.24 c 4
 509.47 533.821 529.299 507.846 541.05 478 c 4
 553.65 446 555 404 555 366.8 c 6
 555 0 l 1
 468 0 l 1
 468 373.625 l 6
73 0 m 1
 73 305 l 1
 160 305 l 1
 160 0 l 1
 73 0 l 1
EndSplineSet
Fore
SplineSet
490 374 m 2
 490 397 487 427 481 445 c 0
 475 463 465 478 449 491 c 0
 433 504 413 513 391 518 c 0
 374 522 355 524 331 524 c 2
 70 524 l 1
 70 600 l 1
 311 600 l 2
 347 600 374 599 403 594 c 0
 441 588 475 574 503 554 c 0
 532 534 551 508 563 478 c 0
 576 446 577 404 577 367 c 2
 577 0 l 1
 490 0 l 1
 490 374 l 2
70 0 m 1
 70 305 l 5
 157 305 l 5
 157 0 l 1
 70 0 l 1
EndSplineSet
Validated: 1
Substitution2: "WideLetters" uniFB23
Comment: "%DiaToBase1+AD0A-323+AAoA%DiaToBase2+AD0A-323+AAoA%DiaToBase3+AD0A-323+AAoA%DiaToBaseO+AD0A-0+AAoA%DiaToBaseU+AD0A-323+AAoA" 
EndChar

StartChar: afii57669
Encoding: 1493 1493 223
Width: 262
VWidth: 1000
Flags: W
HStem: 0 21G<85 172> 580 20G<85 172>
VStem: 85 87<0 600>
AnchorPoint: "DiaToBaseD" 60 0 basechar 0
AnchorPoint: "DiaToBaseU" 128 0 basechar 0
AnchorPoint: "DiaToBase3" 128 0 basechar 0
AnchorPoint: "DiaToBase2" 128 0 basechar 0
AnchorPoint: "DiaToBase1" 128 0 basechar 0
LayerCount: 2
Fore
SplineSet
85 0 m 1
 85 600 l 1
 172 600 l 1
 172 0 l 1
 85 0 l 1
EndSplineSet
Validated: 1
Comment: "%DiaToBase1+AD0A-128+AAoA%DiaToBase2+AD0A-128+AAoA%DiaToBase3+AD0A-128+AAoA%DiaToBaseO+AD0A-0+AAoA%DiaToBaseU+AD0A-128+AAoA" 
EndChar

StartChar: afii57670
Encoding: 1494 1494 224
Width: 381
VWidth: 1000
Flags: W
HStem: 0 21G<147 234> 524 76<50 147 234 327>
VStem: 147 87<0 524>
AnchorPoint: "DiaToBaseD" 61 0 basechar 0
AnchorPoint: "DiaToBaseU" 188 0 basechar 0
AnchorPoint: "DiaToBase3" 188 0 basechar 0
AnchorPoint: "DiaToBase2" 188 0 basechar 0
AnchorPoint: "DiaToBase1" 188 0 basechar 0
LayerCount: 2
Fore
SplineSet
234 524 m 1
 234 0 l 1
 147 0 l 1
 147 524 l 1
 50 524 l 5
 50 600 l 5
 327 600 l 1
 327 524 l 1
 234 524 l 1
EndSplineSet
Validated: 1
Comment: "%DiaToBase1+AD0A-188+AAoA%DiaToBase2+AD0A-188+AAoA%DiaToBase3+AD0A-188+AAoA%DiaToBaseO+AD0A-0+AAoA%DiaToBaseU+AD0A-188+AAoA" 
EndChar

StartChar: afii57671
Encoding: 1495 1495 225
Width: 678
VWidth: 1000
Flags: W
HStem: 0 21G<85 172 526 613> 524 76<172 471.441>
VStem: 85 87<0 524> 526 87<0 473.404>
AnchorPoint: "DiaToBaseD" 0 0 basechar 0
AnchorPoint: "DiaToBaseU" 349 0 basechar 0
AnchorPoint: "DiaToBase3" 349 0 basechar 0
AnchorPoint: "DiaToBase2" 349 0 basechar 0
AnchorPoint: "DiaToBase1" 349 0 basechar 0
LayerCount: 2
Back
SplineSet
68.001 349.499 m 2
 68 377 68.5 404 71.9473 430 c 0
 76.2529 462.477 85.5 493.5 102.5 524 c 1
 58 524 l 1
 58 600 l 1
 320.05 600 l 6
 354.7 600 383.5 598.4 412.3 593.6 c 4
 450.652 587.208 483.692 574.188 511.75 554.24 c 4
 540.47 533.82 560.298 507.846 572.05 478 c 4
 584.65 446 586 404.1 586 366.8 c 6
 586 0 l 1
 499 0 l 1
 499 373.625 l 6
 499 396.5 496.6 426.5 490.2 444.875 c 4
 483.916 462.919 473.51 478.646 457.8 491.448 c 4
 441.762 504.518 421.99 513.047 399.8 518 c 4
 383 521.75 363 524 340.2 524 c 6
 155 524 l 1
 155 0 l 1
 68 0 l 1
 68.001 349.499 l 2
EndSplineSet
Fore
SplineSet
367 524 m 6
 172 524 l 1
 172 0 l 1
 85 0 l 1
 85 600 l 1
 347 600 l 6
 382 600 410 599 439 594 c 4
 477 588 511 574 539 554 c 4
 568 534 587 508 599 478 c 4
 612 446 613 404 613 367 c 6
 613 0 l 1
 526 0 l 1
 526 374 l 6
 526 397 523 427 517 445 c 4
 511 463 501 478 485 491 c 4
 469 504 449 513 427 518 c 4
 410 522 390 524 367 524 c 6
EndSplineSet
Validated: 1
Comment: "%DiaToBase1+AD0A-349+AAoA%DiaToBase2+AD0A-349+AAoA%DiaToBase3+AD0A-349+AAoA%DiaToBaseO+AD0A-0+AAoA%DiaToBaseU+AD0A-349+AAoA" 
EndChar

StartChar: afii57672
Encoding: 1496 1496 226
Width: 638
VWidth: 1000
Flags: W
HStem: -8 76<239.85 418.15> 532 76<260.963 448.267> 580 20G<75 162>
VStem: 75 87<144.513 600> 496 87<144.513 484.535>
AnchorPoint: "DiaToBaseD" 329 0 basechar 0
AnchorPoint: "DiaToBaseU" 329 0 basechar 0
AnchorPoint: "DiaToBase3" 335 0 basechar 0
AnchorPoint: "DiaToBase2" 335 0 basechar 0
AnchorPoint: "DiaToBase1" 335 0 basechar 0
LayerCount: 2
Back
SplineSet
574 294.5 m 6xd8
 574 232.501 574 171.5 546.5 117.5 c 4
 509.158 44.1729 419.536 -8 320 -8 c 4
 220.464 -8 130.842 44.1733 93.5 117.5 c 4
 66 171.5 66 232.5 66 294.5 c 6
 66 600 l 5
 153 600 l 5xb8
 153 283.5 l 6
 153 236.5 152.144 195.206 170 156 c 4
 193 105.5 253.136 68 320 68 c 4
 386.863 68 447 105.5 470 156 c 4
 487.856 195.206 487 236.5 487 283.5 c 6
 487 380 l 6
 487 430.5 479.5 469 454 497 c 4
 436.018 516.745 396 532 361 532 c 4
 319 532 289.5 530 241 518 c 5
 241 597 l 5
 286 606 326.5 608 367.5 608 c 4
 463 608 530 564 557.5 489.5 c 4
 571.326 452.045 574 407.292 574 364.5 c 6
 574 294.5 l 6xd8
EndSplineSet
Fore
SplineSet
259 599 m 17xd8
 300 607 339 608 377 608 c 0xd8
 473 608 539 564 567 490 c 0
 581 453 583 407 583 364 c 2
 583 294 l 6
 583 232 583 172 555 118 c 4
 518 45 429 -8 329 -8 c 4
 229 -8 140 45 103 118 c 4
 75 172 75 232 75 294 c 6
 75 600 l 1
 162 600 l 1xb8
 162 284 l 6
 162 237 161 195 179 156 c 4
 202 106 262 68 329 68 c 4
 396 68 456 106 479 156 c 4
 497 195 496 237 496 284 c 6
 496 380 l 2
 496 430 489 469 463 497 c 0
 445 517 405 532 370 532 c 0
 331 532 302 530 259 520 c 9
 259 599 l 17xd8
EndSplineSet
Validated: 33
Comment: "%DiaToBase1+AD0A-335+AAoA%DiaToBase2+AD0A-335+AAoA%DiaToBase3+AD0A-335+AAoA%DiaToBaseO+AD0A-0+AAoA%DiaToBaseU+AD0A-329+AAoA" 
EndChar

StartChar: afii57673
Encoding: 1497 1497 227
Width: 232
VWidth: 1000
Flags: W
HStem: 307 293<70 117.415>
VStem: 70 87<321 600>
AnchorPoint: "DiaToBaseD" 60 64 basechar 0
AnchorPoint: "DiaToBaseU" 113 0 basechar 0
AnchorPoint: "DiaToBase3" 113 0 basechar 0
AnchorPoint: "DiaToBase2" 113 0 basechar 0
AnchorPoint: "DiaToBase1" 113 0 basechar 0
LayerCount: 2
Fore
SplineSet
70 600 m 1
 157 600 l 1
 157 321 l 1
 70 307 l 5
 70 600 l 1
EndSplineSet
Validated: 1
Comment: "%DiaToBase1+AD0A-113+AAoA%DiaToBase2+AD0A-113+AAoA%DiaToBase3+AD0A-113+AAoA%DiaToBaseO+AD0A-0+AAoA%DiaToBaseU+AD0A-113+AAoA" 
EndChar

StartChar: afii57636
Encoding: 8362 8362 228
Width: 970
VWidth: 1000
Flags: W
HStem: 0 76<422 727.716> 524 76<212 538.277>
VStem: 125 87<0 524> 335 87<76 375> 551 87<195 510.584> 773 87<119.82 600>
LayerCount: 2
Back
SplineSet
491 476 m 130
 491 502.496 459.192 524 420 524 c 2
 152 524 l 1
 152 0 l 1
 65 0 l 1
 65 600 l 1
 428 600 l 2
 510.8 600 578 548.928 578 486 c 130
 578 195 l 1
 491 195 l 1
 491 476 l 130
605 76 m 130
 664.616 76 713 110.944 713 154 c 130
 713 600 l 1
 800 600 l 1
 800 147 l 130
 800 65.8564 715.328 0 611 0 c 130
 275 0 l 1
 275 375 l 1
 362 375 l 1
 362 76 l 1
 605 76 l 130
EndSplineSet
Fore
SplineSet
478 600 m 2
 499 600 517 599 534 596 c 0
 557 592 577 584 594 572 c 0
 611 560 623 545 630 527 c 0
 638 508 638 482 638 460 c 2
 638 195 l 1
 551 195 l 1
 551 449 l 2
 551 460 550 475 547 484 c 0
 544 493 539 502 531 508 c 0
 523 514 513 519 502 521 c 0
 494 523 483 524 472 524 c 2
 212 524 l 1
 212 0 l 1
 125 0 l 1
 125 600 l 1
 478 600 l 2
621 0 m 2
 335 0 l 1
 335 375 l 1
 422 375 l 1
 422 76 l 1
 630 76 l 2
 651 76 669 77 684 81 c 0
 704 85 722 94 736 106 c 0
 750 118 760 131 765 147 c 0
 770 163 773 190 773 211 c 2
 773 600 l 1
 860 600 l 1
 860 210 l 2
 860 177 859 139 847 110 c 0
 836 83 819 59 793 41 c 0
 768 23 737 10 703 5 c 0
 677 1 652 0 621 0 c 2
EndSplineSet
Validated: 1
EndChar

StartChar: Euro
Encoding: 8364 8364 229
Width: 665
VWidth: 1000
Flags: HMW
HStem: 0 76G<376.25 441.312> 254 59<63 124 206 430> 379 59<63 118 215 479>
LayerCount: 2
Back
SplineSet
369 -20 m 0
 303 -20 231 6 178 61 c 0
 130 111 98 177 85 254 c 1
 2 254 l 1
 24 313 l 1
 78 313 l 1
 78 322 77 331 77 340 c 0
 77 353 78 366 79 379 c 1
 2 379 l 1
 24 438 l 1
 87 438 l 1
 101 509 130 571 174 619 c 0
 225 676 301 706 394 706 c 0
 459 706 511 692 553 665 c 9
 524 595 l 17
 482 619 439 628 383 628 c 0
 276 628 200 558 175 438 c 1
 462 438 l 1
 439 379 l 1
 167 379 l 1
 166 367 166 354 166 341 c 0
 166 331 166 322 167 313 c 1
 414 313 l 1
 390 254 l 1
 174 254 l 1
 199 132 284 58 370 58 c 0
 426 58 465 63 507 86 c 9
 536 16 l 17
 488 -11 434 -20 369 -20 c 0
EndSplineSet
Fore
SplineSet
409 -20 m 0
 343 -20 271 6 218 61 c 0
 170 111 140 173.667 127 244 c 1
 45 244 l 1
 64 303 l 1
 118 303 l 1
 118 312 117 321 117 330 c 0
 117 343 118 356 119 369 c 1
 45 369 l 1
 64 428 l 1
 125.667 428 l 1
 136.667 502.667 170 571 214 619 c 0
 265 676 341 706 434 706 c 0
 499 706 551 692 593 665 c 9
 564 595 l 17
 522 619 479 628 423 628 c 0
 313.333 628 232.667 551 213.667 428.001 c 1
 512 428 l 1
 492 369 l 1
 207 369 l 1
 206 357 206 344 206 331 c 0
 206 321 206 312 207 303 c 1
 472 303 l 5
 451 244 l 5
 215.999 244 l 1
 242.667 131 324 58 410 58 c 0
 466 58 505 63 547 86 c 9
 576 16 l 17
 528 -11 474 -20 409 -20 c 0
EndSplineSet
Validated: 1
EndChar

StartChar: SF110000
Encoding: 9474 9474 230
Width: 212
VWidth: 1000
Flags: W
VStem: 62 87<-300 900>
LayerCount: 2
Fore
SplineSet
62 -300 m 5
 62 900 l 1
 149 900 l 1
 149 -300 l 5
 62 -300 l 5
EndSplineSet
Validated: 1
EndChar

StartChar: uni25CC
Encoding: 9676 9676 231
Width: 615
VWidth: 1000
Flags: W
HStem: 21 66<271 340> 513 66<271 340>
VStem: 27 65<201.986 256.409 343.591 398.014> 271 69<31.0467 87 513 568.953> 519 65<201.986 256.409 343.591 398.014>
CounterMasks: 1 38
LayerCount: 2
Back
SplineSet
345.847 -3.0498 m 29
 265.847 603.05 l 29
 345.847 603.05 l 29
 265.847 -3.0498 l 29
 345.847 -3.0498 l 29
84.2471 300 m 4
 84.2471 178.339 183.524 79.5996 305.847 79.5996 c 4
 428.17 79.5996 527.446 178.339 527.446 300 c 4
 527.446 421.661 428.17 520.4 305.847 520.4 c 4
 183.524 520.4 84.2471 421.661 84.2471 300 c 4
28.8467 300 m 4
 28.8467 452.076 152.943 575.5 305.847 575.5 c 4
 458.751 575.5 582.847 452.076 582.847 300 c 4
 582.847 147.924 458.751 24.5 305.847 24.5 c 4
 152.943 24.5 28.8467 147.924 28.8467 300 c 4
EndSplineSet
Fore
SplineSet
54 173 m 5
 42 199 32 227 27 255 c 5
 92 267 l 5
 96 245 104 222 114 201 c 5
 54 173 l 5
584 345 m 5
 519 333 l 5
 515 355 508 378 498 399 c 5
 557 427 l 5
 569 401 579 373 584 345 c 5
177 49 m 1
 152 63 128 80 107 100 c 1
 153 148 l 1
 170 132 189 118 209 107 c 1
 177 49 l 1
505 500 m 1
 459 452 l 1
 442 468 423 482 403 493 c 1
 435 551 l 1
 460 537 484 520 505 500 c 1
584 255 m 1
 579 227 569 199 557 173 c 1
 498 201 l 1
 508 222 515 245 519 267 c 1
 584 255 l 1
54 427 m 1
 114 399 l 1
 104 378 96 355 92 333 c 1
 27 345 l 1
 32 373 42 401 54 427 c 1
505 100 m 1
 484 80 460 63 435 49 c 1
 403 107 l 1
 423 118 442 132 459 148 c 1
 505 100 l 1
177 551 m 1
 209 493 l 1
 189 482 170 468 153 452 c 1
 107 500 l 1
 128 520 152 537 177 551 c 1
349 21 m 1
 321 17 291 17 263 21 c 1
 271 87 l 1
 294 84 317 84 340 87 c 1
 349 21 l 1
349 579 m 1
 340 513 l 1
 317 516 294 516 271 513 c 1
 263 579 l 1
 291 583 321 583 349 579 c 1
EndSplineSet
Validated: 33
EndChar

StartChar: uniFB1E
Encoding: 64286 64286 236
Width: 0
VWidth: 1000
Flags: W
HStem: 660 71<-57.3605 57.3605>
VStem: -139 278
LayerCount: 2
Back
SplineSet
70.5889 812.941 m 1
 0 812.941 l 1
 0 812.941 6.15625 760.115 23.5293 730.588 c 24
 37.0293 707.645 47.6455 697.029 70.5889 683.529 c 24
 100.115 666.155 118.682 660 152.941 660 c 24
 187.201 660 205.768 666.155 235.294 683.529 c 24
 258.238 697.029 268.854 707.645 282.354 730.588 c 24
 299.727 760.115 305.883 812.941 305.883 812.941 c 1
 235.294 812.941 l 1
 235.294 812.941 229.685 772.037 211.765 754.117 c 24
 193.846 736.198 178.283 730.588 152.941 730.588 c 24
 127.6 730.588 112.037 736.198 94.1182 754.117 c 24
 76.1982 772.037 70.5889 812.941 70.5889 812.941 c 1
EndSplineSet
Fore
SplineSet
-73 775 m 1
 -59 749 -32 731 -0 731 c 0
 32 731 59 749 73 775 c 1
 139 750 l 1
 115 697 62 660 -0 660 c 0
 -62 660 -115 697 -139 750 c 1
 -73 775 l 1
EndSplineSet
Validated: 1
EndChar

StartChar: uniFB20
Encoding: 64288 64288 238
Width: 594
VWidth: 1000
Flags: W
HStem: 0 76<50 157 245 373.875> 580 20G<39 132.466 459.679 549>
AnchorPoint: "DiaToBaseU" 295 0 basechar 0
AnchorPoint: "DiaToBase3" 285 0 basechar 0
AnchorPoint: "DiaToBase2" 285 0 basechar 0
AnchorPoint: "DiaToBase1" 285 0 basechar 0
LayerCount: 2
Back
SplineSet
296 78 m 5
 382 88 449 150 449 226 c 134
 449 600 l 5
 536 600 l 5
 536 226 l 134
 536 101 417 0 270 0 c 134
 42 0 l 5
 42 76 l 5
 207 76 l 5
 68 600 l 5
 158 600 l 5
 296 78 l 5
EndSplineSet
Fore
SplineSet
528 300 m 2
 523 225 513 161 496 121 c 0
 480 84 458 54 426 32 c 0
 397 12 357 0 303 0 c 2
 50 0 l 25
 50 76 l 17
 157 76 l 1
 39 600 l 1
 128 600 l 1
 245 76 l 1
 294 76 l 2
 337 76 365 89 382 106 c 0
 400 123 413 150 422 176 c 0
 433 208 438 246 440 282 c 2
 461 600 l 1
 549 600 l 1
 528 300 l 2
EndSplineSet
Validated: 1
Comment: "%DiaToBase1+AD0A-285+AAoA%DiaToBase2+AD0A-285+AAoA%DiaToBase3+AD0A-285+AAoA%DiaToBaseO+AD0A-0+AAoA%DiaToBaseU+AD0A-295+AAoA" 
EndChar

StartChar: uniFB21
Encoding: 64289 64289 239
Width: 1195
VWidth: 1000
Flags: W
HStem: 0 21G<71 158 951.415 1137> 580 20G<63 245.738 1042 1129>
VStem: 71 87<0 258.179> 1042 87<341.821 600>
LayerCount: 2
Back
SplineSet
894 158 m 1
 1137 0 l 1
 982 0 l 1
 379 394 l 1
 220 337 158 260 158 141 c 10
 158 0 l 1
 71 0 l 1
 71 141 l 18
 71 283 160 395 305 442 c 1
 63 600 l 1
 215 600 l 1
 819 207 l 1
 978 263 1042 340 1042 459 c 10
 1042 600 l 1
 1129 600 l 1
 1129 459 l 18
 1129 317 1038 205 894 158 c 1
EndSplineSet
Fore
SplineSet
320 433 m 1
 63 600 l 1
 215 600 l 1
 819 207 l 1
 907 239 972 282 1007 326 c 0
 1037 362 1042 409 1042 460 c 2
 1042 600 l 1
 1129 600 l 1
 1129 460 l 2
 1129 405 1122 362 1104 326 c 0
 1084 287 1055 251 1012 220 c 0
 974 194 938 180 880 167 c 1
 1137 0 l 1
 982 0 l 1
 381 393 l 1
 293 361 228 318 193 274 c 0
 163 238 158 191 158 140 c 2
 158 0 l 1
 71 0 l 1
 71 140 l 2
 71 195 78 238 96 274 c 0
 116 313 145 349 188 380 c 0
 226 406 262 420 320 433 c 1
EndSplineSet
Validated: 1
Comment: "%DiaToBase1+AD0A-600+AAoA%DiaToBase2+AD0A-600+AAoA%DiaToBase3+AD0A-600+AAoA%DiaToBaseO+AD0A-0+AAoA%DiaToBaseU+AD0A-600+AAoA" 
EndChar

StartChar: uniFB22
Encoding: 64290 64290 240
Width: 1120
VWidth: 1000
Flags: W
HStem: 0 21G<900 987> 524 76<15 900 987 1070>
VStem: 900 87<0 524>
LayerCount: 2
Fore
SplineSet
987 524 m 1
 987 0 l 1
 900 0 l 1
 900 524 l 1
 15 524 l 1
 15 600 l 1
 1070 600 l 1
 1070 524 l 1
 987 524 l 1
EndSplineSet
Validated: 1
Comment: "%DiaToBase1+AD0A-570+AAoA%DiaToBase2+AD0A-570+AAoA%DiaToBase3+AD0A-570+AAoA%DiaToBaseO+AD0A-0+AAoA%DiaToBaseU+AD0A-570+AAoA" 
EndChar

StartChar: uniFB23
Encoding: 64291 64291 241
Width: 1177
VWidth: 1000
Flags: W
HStem: 0 21G<70 157 1040 1127> 524 76<70 985.441>
VStem: 70 87<0 305> 1040 87<0 473.404>
LayerCount: 2
Back
SplineSet
1038 372 m 130
 1038 456 961 524 867 524 c 2
 68 524 l 1
 68 600 l 1
 874 600 l 2
 1013 600 1125 501 1125 378 c 130
 1125 0 l 1
 1038 0 l 1
 1038 372 l 130
68 0 m 1
 68 375 l 1
 155 375 l 1
 155 0 l 1
 68 0 l 1
EndSplineSet
Fore
SplineSet
1040 374 m 6
 1040 397 1037 427 1031 445 c 4
 1025 463 1015 478 999 491 c 4
 983 504 963 513 941 518 c 4
 924 522 905 524 881 524 c 6
 70 524 l 1
 70 600 l 1
 861 600 l 6
 897 600 924 599 953 594 c 4
 991 588 1025 574 1053 554 c 4
 1082 534 1101 508 1113 478 c 4
 1126 446 1127 404 1127 367 c 6
 1127 0 l 5
 1040 0 l 5
 1040 374 l 6
70 0 m 1
 70 305 l 1
 157 305 l 1
 157 0 l 1
 70 0 l 1
EndSplineSet
Validated: 1
Comment: "%DiaToBase1+AD0A-596+AAoA%DiaToBase2+AD0A-596+AAoA%DiaToBase3+AD0A-596+AAoA%DiaToBaseO+AD0A-0+AAoA%DiaToBaseU+AD0A-596+AAoA" 
EndChar

StartChar: uniFB24
Encoding: 64292 64292 242
Width: 1110
VWidth: 1000
Flags: W
HStem: 0 76<60 901.46> 524 76<60 901.46>
VStem: 982 88<152.012 447.988>
LayerCount: 2
Back
SplineSet
984 229 m 134
 984 371 l 134
 984 455.456 890.816 524 776 524 c 6
 62 524 l 1
 62 600 l 1
 782 600 l 6
 941.528 600 1071 500.544 1071 378 c 134
 1071 222 l 134
 1071 99.4561 941.528 0 782 0 c 134
 62 0 l 1
 62 76 l 1
 776 76 l 134
 890.816 76 984 144.544 984 229 c 134
EndSplineSet
Fore
SplineSet
774 0 m 6
 60 0 l 1
 60 76 l 1
 784 76 l 6
 812 76 837 79 858 84 c 4
 886 91 911 102 931 119 c 4
 951 136 964 157 972 181 c 4
 980 205 982 246 982 276 c 6
 982 324 l 6
 982 354 980 394 972 418 c 4
 964 442 951 464 931 481 c 4
 911 498 886 509 858 516 c 4
 837 521 812 524 784 524 c 6
 60 524 l 1
 60 600 l 1
 774 600 l 6
 813 600 844 598 876 592 c 4
 919 584 956 568 987 543 c 4
 1019 517 1041 485 1054 448 c 4
 1068 408 1070 355 1070 308 c 6
 1070 291 l 6
 1070 244 1068 192 1054 152 c 4
 1041 115 1019 83 987 57 c 4
 956 32 919 16 876 8 c 4
 844 2 812 0 774 0 c 6
EndSplineSet
Validated: 1
Comment: "%DiaToBase1+AD0A-567+AAoA%DiaToBase2+AD0A-567+AAoA%DiaToBase3+AD0A-567+AAoA%DiaToBaseO+AD0A-0+AAoA%DiaToBaseU+AD0A-567+AAoA" 
EndChar

StartChar: uniFB25
Encoding: 64293 64293 243
Width: 1153
VWidth: 1000
Flags: HMW
HStem: 0 76<226 347.812> 524 76<129 430> 730 20G<42 129>
VStem: 42 87<600 750>
LayerCount: 2
Back
SplineSet
808 86 m 0
 807 0 l 1
 720 0 l 1
 720 103 727 159 778 228 c 0
 824 291 921 336 956 358 c 0
 993 381 1007 409 1013 452 c 0
 1013 524 l 1
 42 524 l 1
 42 749 l 1
 129 749 l 1
 129 600 l 1
 1100 600 l 1
 1100 447 l 0
 1100 398 1076 356 1044 327 c 0
 986 274 906 250 858 196 c 0
 825 159 814 129 808 86 c 0
EndSplineSet
Fore
SplineSet
997 524 m 5
 42 524 l 1
 42 750 l 1
 129 750 l 1
 129 600 l 1
 1103 600 l 5
 1030 300 l 6
 1012 225 990 161 966 121 c 4
 943 84 916 54 880 32 c 4
 847 12 805 0 751 0 c 6
 506 0 l 29
 506 76 l 29
 756 76 l 22
 799 76 828 89 848 106 c 4
 869 123 889 150 902 176 c 4
 919 208 929 246 938 282 c 6
 997 524 l 5
EndSplineSet
Validated: 1
Comment: "%DiaToBase1+AD0A-572+AAoA%DiaToBase2+AD0A-572+AAoA%DiaToBase3+AD0A-572+AAoA%DiaToBaseO+AD0A-0+AAoA%DiaToBaseU+AD0A-572+AAoA" 
EndChar

StartChar: uniFB26
Encoding: 64294 64294 244
Width: 1203
VWidth: 1000
Flags: W
HStem: 0 76<162 1046> 524 76<162 994.412>
VStem: 75 87<76 524> 1046 87<76 474.79>
LayerCount: 2
Back
SplineSet
831 524 m 2
 155 524 l 1
 155 76 l 1
 1039 76 l 1
 1039 371 l 130
 1039 455 946 524 831 524 c 2
1126 378 m 130
 1126 0 l 1
 68 0 l 1
 68 600 l 1
 837 600 l 2
 997 600 1126 501 1126 378 c 130
EndSplineSet
Fore
SplineSet
897 524 m 6
 162 524 l 1
 162 76 l 1
 1046 76 l 5
 1046 374 l 6
 1046 396 1044 427 1038 445 c 4
 1032 463 1022 478 1007 491 c 4
 992 504 974 513 953 518 c 4
 937 522 919 524 897 524 c 6
897 600 m 6
 929 600 953 599 979 594 c 4
 1013 588 1042 574 1067 554 c 4
 1093 534 1111 508 1121 478 c 4
 1132 446 1133 404 1133 367 c 6
 1133 0 l 5
 75 0 l 1
 75 600 l 1
 897 600 l 6
EndSplineSet
Validated: 1
Comment: "%DiaToBase1+AD0A-597+AAoA%DiaToBase2+AD0A-597+AAoA%DiaToBase3+AD0A-597+AAoA%DiaToBaseO+AD0A-0+AAoA%DiaToBaseU+AD0A-597+AAoA" 
EndChar

StartChar: uni05A2
Encoding: 1442 1442 250
Width: 0
VWidth: 1000
Flags: W
HStem: -258 141<-34.9879 34.9879>
VStem: -119 62<-104.724 -60> -35 70<-258 -163.64> 57 62<-104.724 -60>
CounterMasks: 1 70
LayerCount: 2
Fore
SplineSet
35 -174 m 1
 35 -258 l 1
 -35 -258 l 1
 -35 -174 l 1
 -83 -159 -119 -113 -119 -60 c 9
 -57 -60 l 17
 -57 -91 -31 -117 0 -117 c 0
 31 -117 57 -91 57 -60 c 9
 119 -60 l 17
 119 -113 83 -159 35 -174 c 1
EndSplineSet
Validated: 1
EndChar

StartChar: uni0000
Encoding: 0 0 251
Width: 696
VWidth: 1000
Flags: W
HStem: -80 50<110 586> 630 50<110 586>
VStem: 60 50<-30 630> 586 50<-30 630>
LayerCount: 2
Fore
SplineSet
110 630 m 5
 110 -30 l 5
 586 -30 l 1
 586 630 l 1
 110 630 l 5
60 680 m 1
 636 680 l 1
 636 -80 l 1
 60 -80 l 1
 60 680 l 1
EndSplineSet
Validated: 1
EndChar

StartChar: uni05BA
Encoding: 1466 1466 252
Width: 0
VWidth: 1000
Flags: W
HStem: 660 71<-35 35>
VStem: -35 70<660 731>
LayerCount: 2
Fore
SplineSet
-35 731 m 5
 35 731 l 5
 35 660 l 5
 -35 660 l 5
 -35 731 l 5
EndSplineSet
Validated: 1
EndChar

StartChar: uni05C5
Encoding: 1477 1477 253
Width: 0
VWidth: 990
Flags: W
HStem: -176 106<-53 53>
VStem: -53 106<-176 -70>
LayerCount: 2
Fore
SplineSet
-53 -70 m 5
 53 -70 l 5
 53 -176 l 5
 -53 -176 l 5
 -53 -70 l 5
EndSplineSet
Validated: 1
EndChar

StartChar: uni05C6
Encoding: 1478 1478 254
Width: 405
VWidth: 1000
Flags: W
HStem: 0 76<162 350> 524 76<213.588 336>
VStem: 75 87<76 474.79>
LayerCount: 2
Fore
SplineSet
311 524 m 2
 289 524 271 522 255 518 c 0
 234 513 216 504 201 491 c 0
 186 478 176 463 170 445 c 0
 164 427 162 396 162 374 c 2
 162 76 l 1
 350 76 l 1
 350 0 l 1
 75 0 l 1
 75 367 l 2
 75 404 76 446 87 478 c 0
 97 508 115 534 141 554 c 0
 166 574 195 588 229 594 c 0
 255 599 279 600 311 600 c 2
 336 600 l 9
 336 524 l 17
 311 524 l 2
EndSplineSet
Validated: 1
Comment: "%DiaToBase1+AD0A-212+AAoA%DiaToBase2+AD0A-212+AAoA%DiaToBase3+AD0A-212+AAoA%DiaToBaseO+AD0A-0+AAoA%DiaToBaseU+AD0A-212+AAoA" 
EndChar

StartChar: uni05C7
Encoding: 1479 1479 255
Width: 0
VWidth: 990
Flags: W
HStem: -141 71<-105 -35 36 105>
VStem: -35 71<-298 -141>
AnchorPoint: "DiaToBase2" 0 0 mark 0
LayerCount: 2
Back
SplineSet
35.2949 -130.588 m 1
 35.2949 -248.235 l 1
 -35.293 -248.235 l 1
 -35.293 -130.588 l 1
 -125.117 -130.588 l 5
 -125.117 -60 l 5
 125.117 -60 l 1
 125.117 -130.588 l 1
 35.2949 -130.588 l 1
EndSplineSet
Fore
SplineSet
36 -141 m 1
 36 -298 l 5
 -35 -298 l 5
 -35 -141 l 1
 -105 -141 l 1
 -105 -70 l 1
 105 -70 l 1
 105 -141 l 1
 36 -141 l 1
EndSplineSet
Validated: 1
EndChar

StartChar: quoteleft
Encoding: 8216 8216 256
Width: 195
VWidth: 1000
Flags: W
HStem: 464 245<79 118>
VStem: 52 93<464 612.867> 79 39<671.133 709>
LayerCount: 2
Fore
SplineSet
145 464 m 1xc0
 52 464 l 1
 52 575 l 1xc0
 79 709 l 1
 118 709 l 1xa0
 145 575 l 1
 145 464 l 1xc0
EndSplineSet
Validated: 1
EndChar

StartChar: quotedblleft
Encoding: 8220 8220 257
Width: 355
VWidth: 1000
Flags: W
HStem: 464 245<79 118 239 278>
VStem: 52 93<464 612.867> 79 39<671.133 709> 212 93<464 612.867> 239 39<671.133 709>
LayerCount: 2
Fore
SplineSet
305 464 m 1x90
 212 464 l 1
 212 575 l 1x90
 239 709 l 1
 278 709 l 1x88
 305 575 l 1
 305 464 l 1x90
145 464 m 1xc0
 52 464 l 1
 52 575 l 1xc0
 79 709 l 1
 118 709 l 1xa0
 145 575 l 1
 145 464 l 1xc0
EndSplineSet
Validated: 1
EndChar

StartChar: ellipsis
Encoding: 8230 8230 258
Width: 841
VWidth: 1000
Flags: W
HStem: 0 104<87 191 357 461 627 731>
VStem: 87 104<0 104> 357 104<0 104> 627 104<0 104>
CounterMasks: 1 70
LayerCount: 2
Fore
SplineSet
191 104 m 1
 191 0 l 1
 87 0 l 1
 87 104 l 1
 191 104 l 1
731 104 m 5
 731 0 l 5
 627 0 l 5
 627 104 l 5
 731 104 l 5
461 104 m 1
 461 0 l 1
 357 0 l 1
 357 104 l 1
 461 104 l 1
EndSplineSet
Validated: 1
EndChar

StartChar: minus
Encoding: 8722 8722 260
Width: 664
VWidth: 1100
Flags: W
HStem: 297 70<90 574>
LayerCount: 2
Fore
SplineSet
574 297 m 1
 90 297 l 1
 90 367 l 1
 574 367 l 1
 574 297 l 1
EndSplineSet
Validated: 1
EndChar
